<svg width="28" height="32" viewBox="0 0 28 32" fill="none" xmlns="http://www.w3.org/2000/svg">
<path fill-rule="evenodd" clip-rule="evenodd" d="M13.6893 0.0124902C13.6893 0.019897 13.6435 0.0249805 13.5769 0.0249805C13.5103 0.0249805 13.4645 0.030064 13.4645 0.0374707C13.4645 0.0444153 13.4312 0.049961 13.3895 0.049961C13.3479 0.049961 13.3146 0.0555066 13.3146 0.0624512C13.3146 0.0693208 13.2921 0.0749414 13.2646 0.0749414C13.2372 0.0749414 13.2147 0.0805621 13.2147 0.0874317C13.2147 0.0943013 13.1922 0.0999219 13.1647 0.0999219C13.1372 0.0999219 13.1148 0.105543 13.1148 0.112412C13.1148 0.119282 13.0979 0.124902 13.0773 0.124902C13.0567 0.124902 13.0398 0.130523 13.0398 0.137393C13.0398 0.144262 13.023 0.149883 13.0023 0.149883C12.9817 0.149883 12.9649 0.155504 12.9649 0.162373C12.9649 0.169243 12.948 0.174863 12.9274 0.174863C12.9068 0.174863 12.8899 0.180484 12.8899 0.187354C12.8899 0.194223 12.8787 0.199844 12.8649 0.199844C12.8512 0.199844 12.84 0.205464 12.84 0.212334C12.84 0.219204 12.8287 0.224824 12.815 0.224824C12.8012 0.224824 12.79 0.230445 12.79 0.237315C12.79 0.244184 12.7731 0.249805 12.7525 0.249805C12.7319 0.249805 12.7151 0.255425 12.7151 0.262295C12.7151 0.269165 12.7038 0.274785 12.6901 0.274785C12.6763 0.274785 12.6651 0.280406 12.6651 0.287276C12.6651 0.294145 12.6539 0.299766 12.6401 0.299766C12.6264 0.299766 12.6151 0.305386 12.6151 0.312256C12.6151 0.319126 12.6051 0.324746 12.5929 0.324746C12.5807 0.324746 12.5626 0.335988 12.5527 0.349727C12.5428 0.363466 12.5247 0.374707 12.5125 0.374707C12.5002 0.374707 12.4902 0.380328 12.4902 0.387197C12.4902 0.394067 12.4802 0.399688 12.468 0.399688C12.4558 0.399688 12.4377 0.410929 12.4278 0.424668C12.4179 0.438407 12.401 0.449649 12.3903 0.449649C12.3796 0.449649 12.3628 0.46089 12.3528 0.474629C12.3429 0.488368 12.3261 0.49961 12.3154 0.49961C12.3047 0.49961 12.2878 0.510851 12.2779 0.52459C12.268 0.538329 12.2522 0.549571 12.2427 0.549571C12.2332 0.549571 12.2097 0.566432 12.1905 0.587041C12.1712 0.60765 12.1477 0.624512 12.1383 0.624512C12.1288 0.624512 12.1129 0.635753 12.103 0.649493C12.0931 0.663232 12.0763 0.674473 12.0656 0.674473C12.0549 0.674473 12.038 0.685714 12.0281 0.699454C12.0182 0.713193 12.0023 0.724434 11.9929 0.724434C11.9834 0.724434 11.9599 0.741296 11.9407 0.761905C11.9214 0.782514 11.8979 0.799375 11.8885 0.799375C11.879 0.799375 11.8631 0.810617 11.8532 0.824356C11.8433 0.838095 11.8275 0.849336 11.818 0.849336C11.8086 0.849336 11.7851 0.866198 11.7658 0.886807C11.7466 0.907416 11.7231 0.924278 11.7136 0.924278C11.7041 0.924278 11.6883 0.935519 11.6784 0.949258C11.6685 0.962998 11.6526 0.974239 11.6432 0.974239C11.6337 0.974239 11.6102 0.991101 11.5909 1.01171C11.5717 1.03232 11.5482 1.04918 11.5387 1.04918C11.5293 1.04918 11.5134 1.06042 11.5035 1.07416C11.4936 1.0879 11.4778 1.09914 11.4683 1.09914C11.4588 1.09914 11.4353 1.116 11.4161 1.13661C11.3968 1.15722 11.3733 1.17408 11.3639 1.17408C11.3544 1.17408 11.3386 1.18532 11.3286 1.19906C11.3187 1.2128 11.3029 1.22404 11.2934 1.22404C11.284 1.22404 11.2605 1.24091 11.2412 1.26151C11.222 1.28212 11.1985 1.29899 11.189 1.29899C11.1795 1.29899 11.1637 1.31023 11.1538 1.32397C11.1439 1.3377 11.127 1.34895 11.1163 1.34895C11.1056 1.34895 11.0887 1.36019 11.0788 1.37393C11.0689 1.38767 11.0531 1.39891 11.0436 1.39891C11.0342 1.39891 11.0107 1.41577 10.9914 1.43638C10.9722 1.45699 10.9487 1.47385 10.9392 1.47385C10.9297 1.47385 10.9139 1.48509 10.904 1.49883C10.8941 1.51257 10.8782 1.52381 10.8688 1.52381C10.8593 1.52381 10.8358 1.54067 10.8165 1.56128C10.7973 1.58189 10.7738 1.59875 10.7643 1.59875C10.7549 1.59875 10.739 1.60999 10.7291 1.62373C10.7192 1.63747 10.7034 1.64871 10.6939 1.64871C10.6844 1.64871 10.6609 1.66557 10.6417 1.68618C10.6224 1.70679 10.5989 1.72365 10.5895 1.72365C10.58 1.72365 10.5642 1.73489 10.5543 1.74863C10.5443 1.76237 10.5285 1.77361 10.519 1.77361C10.5096 1.77361 10.4861 1.79048 10.4668 1.81109C10.4476 1.83169 10.4241 1.84856 10.4146 1.84856C10.4051 1.84856 10.3893 1.8598 10.3794 1.87354C10.3695 1.88728 10.3536 1.89852 10.3442 1.89852C10.3347 1.89852 10.3112 1.91538 10.292 1.93599C10.2727 1.9566 10.2492 1.97346 10.2397 1.97346C10.2303 1.97346 10.2144 1.9847 10.2045 1.99844C10.1946 2.01218 10.1778 2.02342 10.1671 2.02342C10.1564 2.02342 10.1395 2.03466 10.1296 2.0484C10.1197 2.06214 10.1038 2.07338 10.0944 2.07338C10.0849 2.07338 10.0614 2.09024 10.0422 2.11085C10.0229 2.13146 9.9994 2.14832 9.98995 2.14832C9.98048 2.14832 9.96463 2.15956 9.95472 2.1733C9.94482 2.18704 9.92897 2.19828 9.9195 2.19828C9.91004 2.19828 9.88654 2.21514 9.86729 2.23575C9.84804 2.25636 9.82454 2.27322 9.81508 2.27322C9.80561 2.27322 9.78976 2.28447 9.77986 2.2982C9.76995 2.31194 9.7541 2.32318 9.74464 2.32318C9.73518 2.32318 9.71167 2.34005 9.69243 2.36066C9.67318 2.38126 9.64967 2.39813 9.64022 2.39813C9.63075 2.39813 9.6149 2.40937 9.605 2.42311C9.59509 2.43685 9.57924 2.44809 9.56977 2.44809C9.56032 2.44809 9.53681 2.46495 9.51756 2.48556C9.49832 2.50617 9.47481 2.52303 9.46535 2.52303C9.45589 2.52303 9.44004 2.53427 9.43013 2.54801C9.42023 2.56175 9.40438 2.57299 9.39491 2.57299C9.38546 2.57299 9.36195 2.58985 9.3427 2.61046C9.32345 2.63107 9.29995 2.64793 9.29049 2.64793C9.28102 2.64793 9.26517 2.65917 9.25527 2.67291C9.24536 2.68665 9.2285 2.69789 9.2178 2.69789C9.20709 2.69789 9.19023 2.70913 9.18033 2.72287C9.17042 2.73661 9.15457 2.74785 9.14511 2.74785C9.13565 2.74785 9.11214 2.76471 9.0929 2.78532C9.07365 2.80593 9.05014 2.82279 9.04069 2.82279C9.03122 2.82279 9.01537 2.83404 9.00546 2.84778C8.99556 2.86151 8.97971 2.87276 8.97024 2.87276C8.96079 2.87276 8.93728 2.88962 8.91803 2.91023C8.89879 2.93084 8.87528 2.9477 8.86582 2.9477C8.85636 2.9477 8.84051 2.95894 8.8306 2.97268C8.8207 2.98642 8.80485 2.99766 8.79538 2.99766C8.78592 2.99766 8.76242 3.01452 8.74317 3.03513C8.72392 3.05574 8.70042 3.0726 8.69096 3.0726C8.68149 3.0726 8.66564 3.08384 8.65574 3.09758C8.64583 3.11132 8.62998 3.12256 8.62051 3.12256C8.61106 3.12256 8.58755 3.13942 8.56831 3.16003C8.54906 3.18064 8.52555 3.1975 8.5161 3.1975C8.50663 3.1975 8.49078 3.20874 8.48087 3.22248C8.47097 3.23622 8.45512 3.24746 8.44565 3.24746C8.4362 3.24746 8.41269 3.26432 8.39344 3.28493C8.3742 3.30554 8.35069 3.3224 8.34123 3.3224C8.33177 3.3224 8.31592 3.33365 8.30601 3.34738C8.29611 3.36112 8.28026 3.37237 8.27079 3.37237C8.26133 3.37237 8.23783 3.38923 8.21858 3.40984C8.19933 3.43044 8.17583 3.44731 8.16637 3.44731C8.1569 3.44731 8.14105 3.45855 8.13115 3.47229C8.12124 3.48603 8.10438 3.49727 8.09368 3.49727C8.08297 3.49727 8.06611 3.50851 8.05621 3.52225C8.0463 3.53599 8.03045 3.54723 8.02098 3.54723C8.01153 3.54723 7.98802 3.56409 7.96877 3.5847C7.94953 3.60531 7.92602 3.62217 7.91656 3.62217C7.9071 3.62217 7.89125 3.63341 7.88134 3.64715C7.87144 3.66089 7.85559 3.67213 7.84612 3.67213C7.83666 3.67213 7.81316 3.68899 7.79391 3.7096C7.77466 3.73021 7.75116 3.74707 7.7417 3.74707C7.73223 3.74707 7.71638 3.75831 7.70648 3.77205C7.69657 3.78579 7.68072 3.79703 7.67126 3.79703C7.6618 3.79703 7.6383 3.8139 7.61905 3.8345C7.5998 3.85511 7.57629 3.87197 7.56684 3.87197C7.55737 3.87197 7.54152 3.88322 7.53162 3.89696C7.52171 3.91069 7.50586 3.92194 7.49639 3.92194C7.48694 3.92194 7.46343 3.9388 7.44418 3.95941C7.42494 3.98002 7.40143 3.99688 7.39197 3.99688C7.38251 3.99688 7.36666 4.00812 7.35675 4.02186C7.34685 4.0356 7.331 4.04684 7.32153 4.04684C7.31207 4.04684 7.28857 4.0637 7.26932 4.08431C7.25007 4.10492 7.22657 4.12178 7.21711 4.12178C7.20764 4.12178 7.19179 4.13302 7.18189 4.14676C7.17198 4.1605 7.15512 4.17174 7.14442 4.17174C7.13371 4.17174 7.11685 4.18298 7.10695 4.19672C7.09704 4.21046 7.08119 4.2217 7.07172 4.2217C7.06227 4.2217 7.03876 4.23856 7.01952 4.25917C7.00027 4.27978 6.97676 4.29664 6.96731 4.29664C6.95784 4.29664 6.94199 4.30788 6.93208 4.32162C6.92218 4.33536 6.90633 4.3466 6.89686 4.3466C6.88741 4.3466 6.8639 4.36347 6.84465 4.38407C6.82541 4.40468 6.8019 4.42155 6.79244 4.42155C6.78298 4.42155 6.76713 4.43279 6.75722 4.44653C6.74732 4.46027 6.73147 4.47151 6.722 4.47151C6.71254 4.47151 6.68904 4.48837 6.66979 4.50898C6.65054 4.52959 6.62704 4.54645 6.61758 4.54645C6.60811 4.54645 6.59226 4.55769 6.58236 4.57143C6.57245 4.58517 6.5566 4.59641 6.54713 4.59641C6.53768 4.59641 6.51417 4.61327 6.49493 4.63388C6.47568 4.65449 6.45217 4.67135 6.44272 4.67135C6.43325 4.67135 6.4174 4.68259 6.40749 4.69633C6.39759 4.71007 6.38174 4.72131 6.37227 4.72131C6.36282 4.72131 6.33931 4.73817 6.32006 4.75878C6.30082 4.77939 6.27731 4.79625 6.26785 4.79625C6.25839 4.79625 6.24254 4.80749 6.23263 4.82123C6.22273 4.83497 6.20586 4.84621 6.19516 4.84621C6.18446 4.84621 6.16759 4.85746 6.15769 4.87119C6.14778 4.88493 6.13193 4.89617 6.12247 4.89617C6.11301 4.89617 6.08951 4.91304 6.07026 4.93365C6.05101 4.95425 6.0275 4.97112 6.01805 4.97112C6.00858 4.97112 5.99273 4.98236 5.98283 4.9961C5.97292 5.00984 5.95707 5.02108 5.9476 5.02108C5.93815 5.02108 5.91464 5.03794 5.89539 5.05855C5.87615 5.07916 5.85264 5.09602 5.84318 5.09602C5.83372 5.09602 5.81787 5.10726 5.80796 5.121C5.79806 5.13474 5.78221 5.14598 5.77274 5.14598C5.76328 5.14598 5.73978 5.16284 5.72053 5.18345C5.70128 5.20406 5.67778 5.22092 5.66832 5.22092C5.65885 5.22092 5.643 5.23216 5.6331 5.2459C5.62319 5.25964 5.60734 5.27088 5.59788 5.27088C5.58842 5.27088 5.56491 5.28774 5.54567 5.30835C5.52642 5.32896 5.50291 5.34582 5.49346 5.34582C5.48399 5.34582 5.46814 5.35706 5.45824 5.3708C5.44833 5.38454 5.43248 5.39578 5.42301 5.39578C5.41356 5.39578 5.39005 5.41265 5.3708 5.43326C5.35156 5.45386 5.32805 5.47073 5.31859 5.47073C5.30913 5.47073 5.29328 5.48197 5.28337 5.49571C5.27347 5.50945 5.25661 5.52069 5.2459 5.52069C5.2352 5.52069 5.21834 5.53193 5.20843 5.54567C5.19853 5.55941 5.18268 5.57065 5.17321 5.57065C5.16375 5.57065 5.14025 5.58751 5.121 5.60812C5.10175 5.62873 5.07825 5.64559 5.06879 5.64559C5.05932 5.64559 5.04347 5.65683 5.03357 5.67057C5.02366 5.68431 5.00781 5.69555 4.99834 5.69555C4.98889 5.69555 4.96538 5.71241 4.94614 5.73302C4.92689 5.75363 4.90338 5.77049 4.89393 5.77049C4.88446 5.77049 4.86861 5.78173 4.8587 5.79547C4.8488 5.80921 4.83295 5.82045 4.82348 5.82045C4.81403 5.82045 4.79052 5.83731 4.77127 5.85792C4.75203 5.87853 4.72852 5.89539 4.71906 5.89539C4.7096 5.89539 4.69375 5.90664 4.68384 5.92037C4.67394 5.93411 4.65809 5.94535 4.64862 5.94535C4.63916 5.94535 4.61566 5.96222 4.59641 5.98283C4.57716 6.00343 4.55366 6.0203 4.5442 6.0203C4.53473 6.0203 4.51888 6.03154 4.50898 6.04528C4.49907 6.05902 4.48322 6.07026 4.47375 6.07026C4.4643 6.07026 4.44079 6.08712 4.42155 6.10773C4.4023 6.12834 4.37879 6.1452 4.36934 6.1452C4.35987 6.1452 4.34402 6.15644 4.33411 6.17018C4.32421 6.18392 4.30735 6.19516 4.29664 6.19516C4.28594 6.19516 4.26908 6.2064 4.25917 6.22014C4.24927 6.23388 4.23342 6.24512 4.22395 6.24512C4.21449 6.24512 4.19099 6.26198 4.17174 6.28259C4.15249 6.3032 4.12899 6.32006 4.11953 6.32006C4.11006 6.32006 4.09421 6.3313 4.08431 6.34504C4.0744 6.35878 4.05855 6.37002 4.04909 6.37002C4.03963 6.37002 4.01612 6.38689 3.99688 6.40749C3.97763 6.4281 3.95412 6.44496 3.94467 6.44496C3.9352 6.44496 3.91935 6.45621 3.90945 6.46995C3.89954 6.48368 3.88369 6.49493 3.87422 6.49493C3.86477 6.49493 3.84126 6.51179 3.82201 6.5324C3.80277 6.55301 3.77926 6.56987 3.7698 6.56987C3.76034 6.56987 3.74449 6.58111 3.73458 6.59485C3.72468 6.60859 3.70883 6.61983 3.69936 6.61983C3.6899 6.61983 3.6664 6.63669 3.64715 6.6573C3.6279 6.67791 3.6044 6.69477 3.59494 6.69477C3.58547 6.69477 3.56962 6.70601 3.55972 6.71975C3.54981 6.73349 3.53396 6.74473 3.5245 6.74473C3.51504 6.74473 3.49153 6.76159 3.47229 6.7822C3.45304 6.80281 3.42953 6.81967 3.42008 6.81967C3.41061 6.81967 3.39476 6.83091 3.38486 6.84465C3.37495 6.85839 3.35809 6.86963 3.34738 6.86963C3.33668 6.86963 3.31982 6.88087 3.30991 6.89461C3.30001 6.90835 3.28416 6.91959 3.27469 6.91959C3.26524 6.91959 3.24173 6.93646 3.22248 6.95706C3.20323 6.97767 3.17973 6.99454 3.17027 6.99454C3.16081 6.99454 3.14496 7.00578 3.13505 7.01952C3.12515 7.03326 3.1093 7.0445 3.09983 7.0445C3.09037 7.0445 3.06687 7.06136 3.04762 7.08197C3.02837 7.10258 3.00486 7.11944 2.99541 7.11944C2.98594 7.11944 2.97009 7.13068 2.96019 7.14442C2.95028 7.15816 2.93443 7.1694 2.92496 7.1694C2.91551 7.1694 2.892 7.18626 2.87276 7.20687C2.85351 7.22748 2.83 7.24434 2.82055 7.24434C2.81108 7.24434 2.79523 7.25558 2.78532 7.26932C2.77542 7.28306 2.75957 7.2943 2.7501 7.2943C2.74065 7.2943 2.71714 7.31116 2.69789 7.33177C2.67864 7.35238 2.65514 7.36924 2.64568 7.36924C2.63622 7.36924 2.62037 7.38048 2.61046 7.39422C2.60056 7.40796 2.58471 7.4192 2.57524 7.4192C2.56578 7.4192 2.54228 7.43607 2.52303 7.45667C2.50378 7.47728 2.48027 7.49414 2.47082 7.49414C2.46135 7.49414 2.4455 7.50539 2.4356 7.51913C2.42569 7.53287 2.40984 7.54411 2.40037 7.54411C2.39092 7.54411 2.36741 7.56097 2.34817 7.58158C2.32892 7.60219 2.30541 7.61905 2.29596 7.61905C2.28649 7.61905 2.27064 7.63029 2.26073 7.64403C2.25083 7.65777 2.23397 7.66901 2.22326 7.66901C2.21256 7.66901 2.1957 7.68025 2.18579 7.69399C2.17589 7.70773 2.16004 7.71897 2.15057 7.71897C2.14111 7.71897 2.11761 7.73583 2.09836 7.75644C2.07911 7.77705 2.05561 7.79391 2.04615 7.79391C2.03668 7.79391 2.02083 7.80515 2.01093 7.81889C2.00102 7.83263 1.98517 7.84387 1.97571 7.84387C1.96625 7.84387 1.94274 7.86073 1.9235 7.88134C1.90425 7.90195 1.88074 7.91881 1.87129 7.91881C1.86182 7.91881 1.84597 7.93005 1.83607 7.94379C1.82616 7.95753 1.81031 7.96877 1.80084 7.96877C1.79139 7.96877 1.76788 7.98564 1.74863 8.00624C1.72939 8.02685 1.70588 8.04372 1.69642 8.04372C1.68696 8.04372 1.67111 8.05496 1.6612 8.0687C1.6513 8.08244 1.63545 8.09368 1.62598 8.09368C1.61652 8.09368 1.59302 8.11054 1.57377 8.13115C1.55452 8.15176 1.53102 8.16862 1.52156 8.16862C1.51209 8.16862 1.49624 8.17986 1.48634 8.1936C1.47643 8.20734 1.46058 8.21858 1.45112 8.21858C1.44166 8.21858 1.41815 8.23544 1.39891 8.25605C1.37966 8.27666 1.35615 8.29352 1.3467 8.29352C1.33723 8.29352 1.32138 8.30476 1.31148 8.3185C1.30157 8.33224 1.28471 8.34348 1.274 8.34348C1.2633 8.34348 1.24644 8.35472 1.23653 8.36846C1.22663 8.3822 1.21078 8.39344 1.20131 8.39344C1.19186 8.39344 1.16835 8.4103 1.1491 8.43091C1.12985 8.45152 1.10748 8.46838 1.09939 8.46838C1.09131 8.46838 1.06309 8.49087 1.03669 8.51834C1.01029 8.54582 0.98257 8.56831 0.975088 8.56831C0.957327 8.56831 0.674473 8.85116 0.674473 8.86892C0.674473 8.8764 0.651991 8.90412 0.624512 8.93052C0.597034 8.95693 0.574551 8.98514 0.574551 8.99322C0.574551 9.00132 0.557689 9.02369 0.53708 9.04294C0.516472 9.06218 0.49961 9.08569 0.49961 9.09514C0.49961 9.10461 0.488368 9.12046 0.474629 9.13037C0.46089 9.14027 0.449649 9.15713 0.449649 9.16784C0.449649 9.17854 0.438407 9.1954 0.424668 9.20531C0.410929 9.21521 0.399688 9.23331 0.399688 9.24554C0.399688 9.25776 0.394067 9.26776 0.387197 9.26776C0.380328 9.26776 0.374707 9.279 0.374707 9.29274C0.374707 9.30648 0.369087 9.31772 0.362217 9.31772C0.355347 9.31772 0.349727 9.32896 0.349727 9.3427C0.349727 9.35644 0.344106 9.36768 0.337237 9.36768C0.330367 9.36768 0.324746 9.37892 0.324746 9.39266C0.324746 9.4064 0.319126 9.41764 0.312256 9.41764C0.305386 9.41764 0.299766 9.42888 0.299766 9.44262C0.299766 9.45636 0.294145 9.4676 0.287276 9.4676C0.280406 9.4676 0.274785 9.47884 0.274785 9.49258C0.274785 9.50632 0.269165 9.51756 0.262295 9.51756C0.255425 9.51756 0.249805 9.52881 0.249805 9.54254C0.249805 9.55628 0.244184 9.56752 0.237315 9.56752C0.230445 9.56752 0.224824 9.57877 0.224824 9.59251C0.224824 9.60625 0.219204 9.61749 0.212334 9.61749C0.205464 9.61749 0.199844 9.63435 0.199844 9.65496C0.199844 9.67557 0.194223 9.69243 0.187354 9.69243C0.180484 9.69243 0.174863 9.70367 0.174863 9.71741C0.174863 9.73115 0.169243 9.74239 0.162373 9.74239C0.155504 9.74239 0.149883 9.75925 0.149883 9.77986C0.149883 9.80047 0.144262 9.81733 0.137393 9.81733C0.130523 9.81733 0.124902 9.83981 0.124902 9.86729C0.124902 9.89477 0.119282 9.91725 0.112412 9.91725C0.105543 9.91725 0.0999219 9.93411 0.0999219 9.95472C0.0999219 9.97533 0.0943013 9.99219 0.0874317 9.99219C0.0805621 9.99219 0.0749414 10.0203 0.0749414 10.0546C0.0749414 10.089 0.0693208 10.1171 0.0624512 10.1171C0.0555816 10.1171 0.049961 10.1452 0.049961 10.1795C0.049961 10.2139 0.0443404 10.242 0.0374707 10.242C0.030064 10.242 0.0249805 10.2878 0.0249805 10.3544C0.0249805 10.421 0.019897 10.4668 0.0124902 10.4668C0.00417174 10.4668 0 13.6352 0 19.9469C0 26.2586 0.00417174 29.427 0.0124902 29.427C0.019897 29.427 0.0249805 29.4728 0.0249805 29.5394C0.0249805 29.606 0.030064 29.6518 0.0374707 29.6518C0.0443404 29.6518 0.049961 29.6799 0.049961 29.7143C0.049961 29.7486 0.0555816 29.7767 0.0624512 29.7767C0.0693208 29.7767 0.0749414 29.8048 0.0749414 29.8392C0.0749414 29.8735 0.0805621 29.9016 0.0874317 29.9016C0.0943013 29.9016 0.0999219 29.9185 0.0999219 29.9391C0.0999219 29.9597 0.105543 29.9766 0.112412 29.9766C0.119282 29.9766 0.124902 29.9991 0.124902 30.0265C0.124902 30.054 0.130523 30.0765 0.137393 30.0765C0.144262 30.0765 0.149883 30.0934 0.149883 30.114C0.149883 30.1346 0.155504 30.1514 0.162373 30.1514C0.169243 30.1514 0.174863 30.1627 0.174863 30.1764C0.174863 30.1902 0.180484 30.2014 0.187354 30.2014C0.194223 30.2014 0.199844 30.2183 0.199844 30.2389C0.199844 30.2595 0.205464 30.2763 0.212334 30.2763C0.219204 30.2763 0.224824 30.2876 0.224824 30.3013C0.224824 30.3151 0.230445 30.3263 0.237315 30.3263C0.244184 30.3263 0.249805 30.3375 0.249805 30.3513C0.249805 30.365 0.255425 30.3763 0.262295 30.3763C0.269165 30.3763 0.274785 30.3875 0.274785 30.4012C0.274785 30.415 0.280406 30.4262 0.287276 30.4262C0.294145 30.4262 0.299766 30.4375 0.299766 30.4512C0.299766 30.4649 0.305386 30.4762 0.312256 30.4762C0.319126 30.4762 0.324746 30.4874 0.324746 30.5012C0.324746 30.5149 0.330367 30.5262 0.337237 30.5262C0.344106 30.5262 0.349727 30.5374 0.349727 30.5511C0.349727 30.5649 0.355347 30.5761 0.362217 30.5761C0.369087 30.5761 0.374707 30.5874 0.374707 30.6011C0.374707 30.6148 0.380328 30.6261 0.387197 30.6261C0.394067 30.6261 0.399688 30.6361 0.399688 30.6483C0.399688 30.6605 0.410929 30.6786 0.424668 30.6885C0.438407 30.6984 0.449649 30.7153 0.449649 30.726C0.449649 30.7367 0.46089 30.7536 0.474629 30.7635C0.488368 30.7734 0.49961 30.7892 0.49961 30.7987C0.49961 30.8081 0.516472 30.8316 0.53708 30.8509C0.557689 30.8701 0.574551 30.8925 0.574551 30.9006C0.574551 30.9087 0.597034 30.9369 0.624512 30.9633C0.651991 30.9897 0.674473 31.0174 0.674473 31.0249C0.674473 31.0426 0.932272 31.3005 0.94992 31.3005C0.957315 31.3005 0.990738 31.3286 1.0242 31.363C1.05766 31.3973 1.09258 31.4254 1.10181 31.4254C1.11106 31.4254 1.12671 31.4367 1.13661 31.4504C1.14652 31.4642 1.16237 31.4754 1.17183 31.4754C1.18129 31.4754 1.2048 31.4923 1.22404 31.5129C1.24329 31.5335 1.26803 31.5504 1.27901 31.5504C1.29 31.5504 1.29899 31.556 1.29899 31.5628C1.29899 31.5697 1.30899 31.5753 1.32121 31.5753C1.33343 31.5753 1.35153 31.5866 1.36144 31.6003C1.37134 31.6141 1.38944 31.6253 1.40167 31.6253C1.41388 31.6253 1.42389 31.6309 1.42389 31.6378C1.42389 31.6447 1.43513 31.6503 1.44887 31.6503C1.46261 31.6503 1.47385 31.6559 1.47385 31.6628C1.47385 31.6696 1.48509 31.6753 1.49883 31.6753C1.51257 31.6753 1.52381 31.6809 1.52381 31.6877C1.52381 31.6946 1.53505 31.7002 1.54879 31.7002C1.56253 31.7002 1.57377 31.7059 1.57377 31.7127C1.57377 31.7196 1.58501 31.7252 1.59875 31.7252C1.61249 31.7252 1.62373 31.7308 1.62373 31.7377C1.62373 31.7446 1.63497 31.7502 1.64871 31.7502C1.66245 31.7502 1.67369 31.7558 1.67369 31.7627C1.67369 31.7696 1.69055 31.7752 1.71116 31.7752C1.73177 31.7752 1.74863 31.7808 1.74863 31.7877C1.74863 31.7945 1.75988 31.8002 1.77361 31.8002C1.78735 31.8002 1.79859 31.8058 1.79859 31.8126C1.79859 31.8195 1.81546 31.8251 1.83607 31.8251C1.85667 31.8251 1.87354 31.8308 1.87354 31.8376C1.87354 31.8445 1.8904 31.8501 1.91101 31.8501C1.93162 31.8501 1.94848 31.8557 1.94848 31.8626C1.94848 31.8695 1.96534 31.8751 1.98595 31.8751C2.00656 31.8751 2.02342 31.8807 2.02342 31.8876C2.02342 31.8945 2.0459 31.9001 2.07338 31.9001C2.10086 31.9001 2.12334 31.9057 2.12334 31.9126C2.12334 31.9194 2.15144 31.9251 2.18579 31.9251C2.22014 31.9251 2.24824 31.9307 2.24824 31.9375C2.24824 31.9445 2.28155 31.95 2.32318 31.95C2.36481 31.95 2.39813 31.9556 2.39813 31.9625C2.39813 31.9703 2.46474 31.975 2.57299 31.975C2.68124 31.975 2.74785 31.9798 2.74785 31.9875C2.74785 31.9958 6.46995 32 13.8891 32C21.3084 32 25.0304 31.9958 25.0304 31.9875C25.0304 31.9797 25.1012 31.975 25.2178 31.975C25.3344 31.975 25.4052 31.9703 25.4052 31.9625C25.4052 31.9556 25.4385 31.95 25.4801 31.95C25.5217 31.95 25.555 31.9445 25.555 31.9375C25.555 31.9307 25.5831 31.9251 25.6175 31.9251C25.6518 31.9251 25.6799 31.9194 25.6799 31.9126C25.6799 31.9057 25.7024 31.9001 25.7299 31.9001C25.7574 31.9001 25.7799 31.8945 25.7799 31.8876C25.7799 31.8807 25.7967 31.8751 25.8173 31.8751C25.8379 31.8751 25.8548 31.8695 25.8548 31.8626C25.8548 31.8557 25.8717 31.8501 25.8923 31.8501C25.9129 31.8501 25.9297 31.8445 25.9297 31.8376C25.9297 31.8308 25.9466 31.8251 25.9672 31.8251C25.9878 31.8251 26.0047 31.8195 26.0047 31.8126C26.0047 31.8058 26.0215 31.8002 26.0422 31.8002C26.0628 31.8002 26.0796 31.7945 26.0796 31.7877C26.0796 31.7808 26.0909 31.7752 26.1046 31.7752C26.1183 31.7752 26.1296 31.7696 26.1296 31.7627C26.1296 31.7558 26.1408 31.7502 26.1546 31.7502C26.1683 31.7502 26.1795 31.7446 26.1795 31.7377C26.1795 31.7308 26.1908 31.7252 26.2045 31.7252C26.2183 31.7252 26.2295 31.7196 26.2295 31.7127C26.2295 31.7059 26.2407 31.7002 26.2545 31.7002C26.2682 31.7002 26.2795 31.6946 26.2795 31.6877C26.2795 31.6809 26.2907 31.6753 26.3044 31.6753C26.3182 31.6753 26.3294 31.6696 26.3294 31.6628C26.3294 31.6559 26.3407 31.6503 26.3544 31.6503C26.3681 31.6503 26.3794 31.6447 26.3794 31.6378C26.3794 31.6309 26.3906 31.6253 26.4044 31.6253C26.4181 31.6253 26.4294 31.6197 26.4294 31.6128C26.4294 31.6059 26.4394 31.6003 26.4516 31.6003C26.4638 31.6003 26.4819 31.5891 26.4918 31.5753C26.5017 31.5616 26.5186 31.5504 26.5293 31.5504C26.54 31.5504 26.5568 31.5391 26.5667 31.5254C26.5766 31.5116 26.5935 31.5004 26.6042 31.5004C26.6149 31.5004 26.6318 31.4891 26.6417 31.4754C26.6516 31.4617 26.6673 31.4504 26.6766 31.4504C26.686 31.4504 26.7152 31.4279 26.7416 31.4005C26.768 31.373 26.7957 31.3505 26.8032 31.3505C26.8209 31.3505 27.1788 30.9927 27.1788 30.9749C27.1788 30.9675 27.2012 30.9398 27.2287 30.9133C27.2562 30.8869 27.2787 30.8577 27.2787 30.8484C27.2787 30.8391 27.2899 30.8233 27.3037 30.8134C27.3174 30.8035 27.3286 30.7867 27.3286 30.776C27.3286 30.7653 27.3399 30.7484 27.3536 30.7385C27.3674 30.7286 27.3786 30.7105 27.3786 30.6983C27.3786 30.686 27.3842 30.676 27.3911 30.676C27.398 30.676 27.4036 30.666 27.4036 30.6538C27.4036 30.6416 27.4148 30.6235 27.4286 30.6136C27.4423 30.6037 27.4536 30.5856 27.4536 30.5734C27.4536 30.5611 27.4592 30.5511 27.466 30.5511C27.4729 30.5511 27.4785 30.5399 27.4785 30.5262C27.4785 30.5124 27.4842 30.5012 27.491 30.5012C27.4979 30.5012 27.5035 30.4899 27.5035 30.4762C27.5035 30.4625 27.5091 30.4512 27.516 30.4512C27.5229 30.4512 27.5285 30.44 27.5285 30.4262C27.5285 30.4125 27.5341 30.4012 27.541 30.4012C27.5479 30.4012 27.5535 30.39 27.5535 30.3763C27.5535 30.3625 27.5591 30.3513 27.566 30.3513C27.5728 30.3513 27.5785 30.34 27.5785 30.3263C27.5785 30.3126 27.5841 30.3013 27.5909 30.3013C27.5978 30.3013 27.6034 30.2845 27.6034 30.2639C27.6034 30.2432 27.6091 30.2264 27.6159 30.2264C27.6228 30.2264 27.6284 30.2151 27.6284 30.2014C27.6284 30.1877 27.634 30.1764 27.6409 30.1764C27.6478 30.1764 27.6534 30.1596 27.6534 30.139C27.6534 30.1183 27.659 30.1015 27.6659 30.1015C27.6728 30.1015 27.6784 30.0846 27.6784 30.064C27.6784 30.0434 27.684 30.0265 27.6909 30.0265C27.6977 30.0265 27.7034 30.0041 27.7034 29.9766C27.7034 29.9491 27.709 29.9266 27.7158 29.9266C27.7227 29.9266 27.7283 29.9041 27.7283 29.8767C27.7283 29.8492 27.734 29.8267 27.7408 29.8267C27.7477 29.8267 27.7533 29.7986 27.7533 29.7642C27.7533 29.7299 27.7589 29.7018 27.7658 29.7018C27.7729 29.7018 27.7783 29.6643 27.7783 29.6144C27.7783 29.5644 27.7837 29.5269 27.7908 29.5269C27.7991 29.5269 27.8033 27.1413 27.8033 22.395C27.8033 15.5664 27.8023 15.2631 27.7811 15.2631C27.7688 15.2631 27.7507 15.2743 27.7408 15.2881C27.7309 15.3018 27.7128 15.313 27.7006 15.313C27.6884 15.313 27.6784 15.3187 27.6784 15.3255C27.6784 15.3324 27.6671 15.338 27.6534 15.338C27.6397 15.338 27.6284 15.3436 27.6284 15.3505C27.6284 15.3574 27.6184 15.363 27.6062 15.363C27.594 15.363 27.5759 15.3742 27.566 15.388C27.5561 15.4017 27.538 15.413 27.5257 15.413C27.5135 15.413 27.5035 15.4186 27.5035 15.4254C27.5035 15.4323 27.4923 15.4379 27.4785 15.4379C27.4648 15.4379 27.4536 15.4436 27.4536 15.4504C27.4536 15.4573 27.4423 15.4629 27.4286 15.4629C27.4148 15.4629 27.4036 15.4685 27.4036 15.4754C27.4036 15.4823 27.3936 15.4879 27.3814 15.4879C27.3691 15.4879 27.351 15.4991 27.3411 15.5129C27.3312 15.5266 27.3131 15.5379 27.3009 15.5379C27.2887 15.5379 27.2787 15.5435 27.2787 15.5504C27.2787 15.5572 27.2674 15.5628 27.2537 15.5628C27.24 15.5628 27.2287 15.5685 27.2287 15.5753C27.2287 15.5822 27.2187 15.5878 27.2065 15.5878C27.1943 15.5878 27.1762 15.5991 27.1663 15.6128C27.1564 15.6265 27.1383 15.6378 27.126 15.6378C27.1138 15.6378 27.1038 15.6434 27.1038 15.6503C27.1038 15.6571 27.0926 15.6628 27.0788 15.6628C27.0651 15.6628 27.0539 15.6684 27.0539 15.6753C27.0539 15.6821 27.0426 15.6877 27.0289 15.6877C27.0151 15.6877 27.0039 15.6934 27.0039 15.7002C27.0039 15.7071 26.9939 15.7127 26.9817 15.7127C26.9695 15.7127 26.9514 15.724 26.9415 15.7377C26.9315 15.7514 26.9134 15.7627 26.9012 15.7627C26.889 15.7627 26.879 15.7683 26.879 15.7752C26.879 15.782 26.8678 15.7877 26.854 15.7877C26.8403 15.7877 26.829 15.7933 26.829 15.8002C26.829 15.807 26.819 15.8126 26.8068 15.8126C26.7946 15.8126 26.7765 15.8239 26.7666 15.8376C26.7567 15.8514 26.7386 15.8626 26.7264 15.8626C26.7141 15.8626 26.7041 15.8682 26.7041 15.8751C26.7041 15.882 26.6929 15.8876 26.6792 15.8876C26.6654 15.8876 26.6542 15.8932 26.6542 15.9001C26.6542 15.9069 26.6429 15.9126 26.6292 15.9126C26.6155 15.9126 26.6042 15.9182 26.6042 15.9251C26.6042 15.9319 26.5942 15.9375 26.582 15.9375C26.5698 15.9375 26.5517 15.9488 26.5418 15.9625C26.5319 15.9763 26.5138 15.9875 26.5015 15.9875C26.4893 15.9875 26.4793 15.9931 26.4793 16C26.4793 16.0069 26.4681 16.0125 26.4543 16.0125C26.4406 16.0125 26.4294 16.0181 26.4294 16.025C26.4294 16.0318 26.4193 16.0375 26.4071 16.0375C26.3949 16.0375 26.3768 16.0487 26.3669 16.0625C26.357 16.0762 26.3389 16.0874 26.3267 16.0874C26.3145 16.0874 26.3044 16.0931 26.3044 16.0999C26.3044 16.1068 26.2932 16.1124 26.2795 16.1124C26.2657 16.1124 26.2545 16.118 26.2545 16.1249C26.2545 16.1318 26.2432 16.1374 26.2295 16.1374C26.2158 16.1374 26.2045 16.143 26.2045 16.1499C26.2045 16.1568 26.1945 16.1624 26.1823 16.1624C26.1701 16.1624 26.152 16.1736 26.1421 16.1874C26.1322 16.2011 26.1141 16.2123 26.1018 16.2123C26.0896 16.2123 26.0796 16.218 26.0796 16.2248C26.0796 16.2317 26.0684 16.2373 26.0546 16.2373C26.0409 16.2373 26.0297 16.2429 26.0297 16.2498C26.0297 16.2567 26.0184 16.2623 26.0047 16.2623C25.9909 16.2623 25.9797 16.2679 25.9797 16.2748C25.9797 16.2817 25.9697 16.2873 25.9575 16.2873C25.9453 16.2873 25.9272 16.2985 25.9173 16.3123C25.9073 16.326 25.8892 16.3372 25.877 16.3372C25.8648 16.3372 25.8548 16.3429 25.8548 16.3497C25.8548 16.3566 25.8436 16.3622 25.8298 16.3622C25.8161 16.3622 25.8048 16.3678 25.8048 16.3747C25.8048 16.3816 25.7948 16.3872 25.7826 16.3872C25.7704 16.3872 25.7523 16.3984 25.7424 16.4122C25.7325 16.4259 25.7144 16.4372 25.7022 16.4372C25.6899 16.4372 25.6799 16.4428 25.6799 16.4496C25.6799 16.4565 25.6687 16.4621 25.655 16.4621C25.6412 16.4621 25.63 16.4678 25.63 16.4746C25.63 16.4815 25.6187 16.4871 25.605 16.4871C25.5913 16.4871 25.58 16.4927 25.58 16.4996C25.58 16.5065 25.57 16.5121 25.5578 16.5121C25.5456 16.5121 25.5275 16.5233 25.5176 16.5371C25.5077 16.5508 25.4896 16.5621 25.4773 16.5621C25.4651 16.5621 25.4551 16.5677 25.4551 16.5746C25.4551 16.5814 25.4439 16.587 25.4301 16.587C25.4164 16.587 25.4052 16.5927 25.4052 16.5995C25.4052 16.6064 25.3951 16.612 25.3829 16.612C25.3707 16.612 25.3526 16.6233 25.3427 16.637C25.3328 16.6507 25.3147 16.662 25.3025 16.662C25.2903 16.662 25.2802 16.6676 25.2802 16.6745C25.2802 16.6813 25.269 16.687 25.2553 16.687C25.2415 16.687 25.2303 16.6926 25.2303 16.6995C25.2303 16.7063 25.219 16.7119 25.2053 16.7119C25.1916 16.7119 25.1803 16.7176 25.1803 16.7244C25.1803 16.7313 25.1703 16.7369 25.1581 16.7369C25.1459 16.7369 25.1278 16.7482 25.1179 16.7619C25.108 16.7756 25.0899 16.7869 25.0776 16.7869C25.0654 16.7869 25.0554 16.7925 25.0554 16.7994C25.0554 16.8062 25.0442 16.8119 25.0304 16.8119C25.0167 16.8119 25.0055 16.8175 25.0055 16.8244C25.0055 16.8312 24.9955 16.8368 24.9832 16.8368C24.971 16.8368 24.9529 16.8481 24.943 16.8618C24.9331 16.8756 24.915 16.8868 24.9028 16.8868C24.8906 16.8868 24.8806 16.8924 24.8806 16.8993C24.8806 16.9062 24.8693 16.9118 24.8556 16.9118C24.8418 16.9118 24.8306 16.9174 24.8306 16.9243C24.8306 16.9311 24.8194 16.9368 24.8056 16.9368C24.7919 16.9368 24.7806 16.9424 24.7806 16.9493C24.7806 16.9561 24.7706 16.9617 24.7584 16.9617C24.7462 16.9617 24.7281 16.973 24.7182 16.9867C24.7083 17.0005 24.6902 17.0117 24.678 17.0117C24.6657 17.0117 24.6557 17.0173 24.6557 17.0242C24.6557 17.0311 24.6445 17.0367 24.6308 17.0367C24.617 17.0367 24.6058 17.0423 24.6058 17.0492C24.6058 17.056 24.5958 17.0617 24.5836 17.0617C24.5713 17.0617 24.5532 17.0729 24.5433 17.0867C24.5334 17.1004 24.5153 17.1116 24.5031 17.1116C24.4909 17.1116 24.4809 17.1173 24.4809 17.1241C24.4809 17.131 24.4696 17.1366 24.4559 17.1366C24.4422 17.1366 24.4309 17.1422 24.4309 17.1491C24.4309 17.156 24.4197 17.1616 24.4059 17.1616C24.3922 17.1616 24.381 17.1672 24.381 17.1741C24.381 17.181 24.3709 17.1866 24.3587 17.1866C24.3465 17.1866 24.3284 17.1978 24.3185 17.2116C24.3086 17.2253 24.2905 17.2365 24.2783 17.2365C24.2661 17.2365 24.2561 17.2422 24.2561 17.249C24.2561 17.2559 24.2448 17.2615 24.2311 17.2615C24.2173 17.2615 24.2061 17.2671 24.2061 17.274C24.2061 17.2809 24.1961 17.2865 24.1839 17.2865C24.1716 17.2865 24.1535 17.2977 24.1436 17.3115C24.1337 17.3252 24.1156 17.3365 24.1034 17.3365C24.0912 17.3365 24.0812 17.3421 24.0812 17.3489C24.0812 17.3558 24.0699 17.3614 24.0562 17.3614C24.0425 17.3614 24.0312 17.3671 24.0312 17.3739C24.0312 17.3808 24.02 17.3864 24.0062 17.3864C23.9925 17.3864 23.9813 17.392 23.9813 17.3989C23.9813 17.4058 23.9713 17.4114 23.959 17.4114C23.9468 17.4114 23.9287 17.4226 23.9188 17.4364C23.9089 17.4501 23.8908 17.4614 23.8786 17.4614C23.8664 17.4614 23.8564 17.467 23.8564 17.4738C23.8564 17.4807 23.8451 17.4863 23.8314 17.4863C23.8176 17.4863 23.8064 17.492 23.8064 17.4988C23.8064 17.5057 23.7952 17.5113 23.7814 17.5113C23.7677 17.5113 23.7564 17.5169 23.7564 17.5238C23.7564 17.5307 23.7464 17.5363 23.7342 17.5363C23.722 17.5363 23.7039 17.5475 23.694 17.5613C23.6841 17.575 23.666 17.5863 23.6538 17.5863C23.6415 17.5863 23.6315 17.5919 23.6315 17.5988C23.6315 17.6056 23.6203 17.6112 23.6066 17.6112C23.5928 17.6112 23.5816 17.6169 23.5816 17.6237C23.5816 17.6306 23.5716 17.6362 23.5594 17.6362C23.5471 17.6362 23.529 17.6475 23.5191 17.6612C23.5092 17.6749 23.4911 17.6862 23.4789 17.6862C23.4667 17.6862 23.4567 17.6918 23.4567 17.6987C23.4567 17.7055 23.4454 17.7112 23.4317 17.7112C23.418 17.7112 23.4067 17.7168 23.4067 17.7237C23.4067 17.7305 23.3955 17.7361 23.3817 17.7361C23.368 17.7361 23.3568 17.7418 23.3568 17.7486C23.3568 17.7555 23.3467 17.7611 23.3345 17.7611C23.3223 17.7611 23.3042 17.7724 23.2943 17.7861C23.2844 17.7998 23.2663 17.8111 23.2541 17.8111C23.2419 17.8111 23.2318 17.8167 23.2318 17.8236C23.2318 17.8304 23.2206 17.8361 23.2069 17.8361C23.1931 17.8361 23.1819 17.8417 23.1819 17.8486C23.1819 17.8554 23.1719 17.861 23.1597 17.861C23.1474 17.861 23.1293 17.8723 23.1194 17.886C23.1095 17.8998 23.0914 17.911 23.0792 17.911C23.067 17.911 23.057 17.9166 23.057 17.9235C23.057 17.9304 23.0457 17.936 23.032 17.936C23.0183 17.936 23.007 17.9416 23.007 17.9485C23.007 17.9553 22.9958 17.961 22.982 17.961C22.9683 17.961 22.9571 17.9666 22.9571 17.9735C22.9571 17.9803 22.9471 17.9859 22.9348 17.9859C22.9226 17.9859 22.9045 17.9972 22.8946 18.0109C22.8847 18.0247 22.8666 18.0359 22.8544 18.0359C22.8422 18.0359 22.8322 18.0415 22.8322 18.0484C22.8322 18.0553 22.8209 18.0609 22.8072 18.0609C22.7934 18.0609 22.7822 18.0665 22.7822 18.0734C22.7822 18.0802 22.7722 18.0859 22.76 18.0859C22.7478 18.0859 22.7297 18.0971 22.7197 18.1109C22.7098 18.1246 22.6917 18.1358 22.6795 18.1358C22.6673 18.1358 22.6573 18.1415 22.6573 18.1483C22.6573 18.1552 22.6461 18.1608 22.6323 18.1608C22.6186 18.1608 22.6073 18.1664 22.6073 18.1733C22.6073 18.1802 22.5961 18.1858 22.5824 18.1858C22.5686 18.1858 22.5574 18.1914 22.5574 18.1983C22.5574 18.2052 22.5474 18.2108 22.5352 18.2108C22.5229 18.2108 22.5048 18.222 22.4949 18.2358C22.485 18.2495 22.4669 18.2607 22.4547 18.2607C22.4425 18.2607 22.4325 18.2664 22.4325 18.2732C22.4325 18.2801 22.4212 18.2857 22.4075 18.2857C22.3938 18.2857 22.3825 18.2913 22.3825 18.2982C22.3825 18.3051 22.3725 18.3107 22.3603 18.3107C22.3481 18.3107 22.33 18.3219 22.3201 18.3357C22.3102 18.3494 22.2921 18.3607 22.2798 18.3607C22.2676 18.3607 22.2576 18.3663 22.2576 18.3731C22.2576 18.38 22.2464 18.3856 22.2326 18.3856C22.2189 18.3856 22.2076 18.3913 22.2076 18.3981C22.2076 18.405 22.1964 18.4106 22.1827 18.4106C22.1689 18.4106 22.1577 18.4162 22.1577 18.4231C22.1577 18.43 22.1477 18.4356 22.1355 18.4356C22.1232 18.4356 22.1051 18.4468 22.0952 18.4606C22.0853 18.4743 22.0672 18.4856 22.055 18.4856C22.0428 18.4856 22.0328 18.4912 22.0328 18.498C22.0328 18.5049 22.0215 18.5105 22.0078 18.5105C21.9941 18.5105 21.9828 18.5162 21.9828 18.523C21.9828 18.5299 21.9728 18.5355 21.9606 18.5355C21.9484 18.5355 21.9303 18.5468 21.9204 18.5605C21.9105 18.5742 21.8924 18.5855 21.8801 18.5855C21.8679 18.5855 21.8579 18.5911 21.8579 18.598C21.8579 18.6048 21.8467 18.6105 21.8329 18.6105C21.8192 18.6105 21.808 18.6161 21.808 18.6229C21.808 18.6298 21.7967 18.6354 21.783 18.6354C21.7692 18.6354 21.758 18.6411 21.758 18.6479C21.758 18.6548 21.748 18.6604 21.7358 18.6604C21.7236 18.6604 21.7055 18.6717 21.6956 18.6854C21.6856 18.6991 21.6675 18.7104 21.6553 18.7104C21.6431 18.7104 21.6331 18.716 21.6331 18.7229C21.6331 18.7297 21.6219 18.7354 21.6081 18.7354C21.5944 18.7354 21.5831 18.741 21.5831 18.7479C21.5831 18.7547 21.5719 18.7603 21.5582 18.7603C21.5444 18.7603 21.5332 18.766 21.5332 18.7728C21.5332 18.7797 21.5232 18.7853 21.511 18.7853C21.4987 18.7853 21.4806 18.7966 21.4707 18.8103C21.4608 18.824 21.4427 18.8353 21.4305 18.8353C21.4183 18.8353 21.4083 18.8409 21.4083 18.8478C21.4083 18.8546 21.397 18.8603 21.3833 18.8603C21.3696 18.8603 21.3583 18.8659 21.3583 18.8728C21.3583 18.8796 21.3483 18.8852 21.3361 18.8852C21.3239 18.8852 21.3058 18.8965 21.2959 18.9102C21.286 18.924 21.2679 18.9352 21.2556 18.9352C21.2434 18.9352 21.2334 18.9408 21.2334 18.9477C21.2334 18.9546 21.2222 18.9602 21.2084 18.9602C21.1947 18.9602 21.1835 18.9658 21.1835 18.9727C21.1835 18.9795 21.1722 18.9852 21.1585 18.9852C21.1447 18.9852 21.1335 18.9908 21.1335 18.9977C21.1335 19.0045 21.1235 19.0101 21.1113 19.0101C21.099 19.0101 21.0809 19.0214 21.071 19.0351C21.0611 19.0489 21.043 19.0601 21.0308 19.0601C21.0186 19.0601 21.0086 19.0657 21.0086 19.0726C21.0086 19.0795 20.9973 19.0851 20.9836 19.0851C20.9699 19.0851 20.9586 19.0907 20.9586 19.0976C20.9586 19.1045 20.9486 19.1101 20.9364 19.1101C20.9242 19.1101 20.9061 19.1213 20.8962 19.135C20.8863 19.1488 20.8682 19.16 20.8559 19.16C20.8437 19.16 20.8337 19.1657 20.8337 19.1725C20.8337 19.1794 20.8225 19.185 20.8087 19.185C20.795 19.185 20.7838 19.1906 20.7838 19.1975C20.7838 19.2044 20.7725 19.21 20.7588 19.21C20.745 19.21 20.7338 19.2156 20.7338 19.2225C20.7338 19.2294 20.7238 19.235 20.7116 19.235C20.6994 19.235 20.6813 19.2462 20.6714 19.26C20.6614 19.2737 20.6433 19.2849 20.6311 19.2849C20.6189 19.2849 20.6089 19.2906 20.6089 19.2974C20.6089 19.3043 20.5977 19.3099 20.5839 19.3099C20.5702 19.3099 20.5589 19.3155 20.5589 19.3224C20.5589 19.3293 20.5489 19.3349 20.5367 19.3349C20.5245 19.3349 20.5064 19.3461 20.4965 19.3599C20.4866 19.3736 20.4685 19.3849 20.4563 19.3849C20.444 19.3849 20.434 19.3905 20.434 19.3973C20.434 19.4042 20.4228 19.4098 20.4091 19.4098C20.3953 19.4098 20.3841 19.4155 20.3841 19.4223C20.3841 19.4292 20.3728 19.4348 20.3591 19.4348C20.3454 19.4348 20.3341 19.4404 20.3341 19.4473C20.3341 19.4542 20.3241 19.4598 20.3119 19.4598C20.2997 19.4598 20.2816 19.471 20.2717 19.4848C20.2618 19.4985 20.2437 19.5098 20.2314 19.5098C20.2192 19.5098 20.2092 19.5154 20.2092 19.5222C20.2092 19.5291 20.198 19.5347 20.1842 19.5347C20.1705 19.5347 20.1593 19.5404 20.1593 19.5472C20.1593 19.5541 20.1492 19.5597 20.137 19.5597C20.1248 19.5597 20.1067 19.571 20.0968 19.5847C20.0869 19.5984 20.0688 19.6097 20.0566 19.6097C20.0444 19.6097 20.0343 19.6153 20.0343 19.6222C20.0343 19.629 20.0231 19.6347 20.0094 19.6347C19.9956 19.6347 19.9844 19.6403 19.9844 19.6472C19.9844 19.654 19.9731 19.6596 19.9594 19.6596C19.9457 19.6596 19.9344 19.6653 19.9344 19.6721C19.9344 19.679 19.9244 19.6846 19.9122 19.6846C19.9 19.6846 19.8819 19.6959 19.872 19.7096C19.8621 19.7233 19.844 19.7346 19.8317 19.7346C19.8195 19.7346 19.8095 19.7402 19.8095 19.7471C19.8095 19.7539 19.7983 19.7596 19.7845 19.7596C19.7708 19.7596 19.7596 19.7652 19.7596 19.7721C19.7596 19.7789 19.7483 19.7845 19.7346 19.7845C19.7208 19.7845 19.7096 19.7902 19.7096 19.797C19.7096 19.8039 19.6996 19.8095 19.6874 19.8095C19.6752 19.8095 19.6571 19.8208 19.6472 19.8345C19.6372 19.8482 19.6191 19.8595 19.6069 19.8595C19.5947 19.8595 19.5847 19.8651 19.5847 19.872C19.5847 19.8788 19.5735 19.8845 19.5597 19.8845C19.546 19.8845 19.5347 19.8901 19.5347 19.897C19.5347 19.9038 19.5247 19.9094 19.5125 19.9094C19.5003 19.9094 19.4822 19.9207 19.4723 19.9344C19.4624 19.9482 19.4443 19.9594 19.4321 19.9594C19.4198 19.9594 19.4098 19.965 19.4098 19.9719C19.4098 19.9788 19.3986 19.9844 19.3849 19.9844C19.3711 19.9844 19.3599 19.99 19.3599 19.9969C19.3599 20.0037 19.3486 20.0094 19.3349 20.0094C19.3212 20.0094 19.3099 20.015 19.3099 20.0219C19.3099 20.0287 19.2999 20.0343 19.2877 20.0343C19.2755 20.0343 19.2574 20.0456 19.2475 20.0593C19.2376 20.0731 19.2195 20.0843 19.2072 20.0843C19.195 20.0843 19.185 20.0899 19.185 20.0968C19.185 20.1037 19.1738 20.1093 19.16 20.1093C19.1463 20.1093 19.135 20.1149 19.135 20.1218C19.135 20.1286 19.125 20.1343 19.1128 20.1343C19.1006 20.1343 19.0825 20.1455 19.0726 20.1593C19.0627 20.173 19.0446 20.1842 19.0324 20.1842C19.0202 20.1842 19.0101 20.1899 19.0101 20.1967C19.0101 20.2036 18.9989 20.2092 18.9852 20.2092C18.9714 20.2092 18.9602 20.2148 18.9602 20.2217C18.9602 20.2286 18.9489 20.2342 18.9352 20.2342C18.9215 20.2342 18.9102 20.2398 18.9102 20.2467C18.9102 20.2536 18.9002 20.2592 18.888 20.2592C18.8758 20.2592 18.8577 20.2704 18.8478 20.2842C18.8379 20.2979 18.8198 20.3091 18.8075 20.3091C18.7953 20.3091 18.7853 20.3148 18.7853 20.3216C18.7853 20.3285 18.7741 20.3341 18.7603 20.3341C18.7466 20.3341 18.7354 20.3397 18.7354 20.3466C18.7354 20.3535 18.7254 20.3591 18.7131 20.3591C18.7009 20.3591 18.6828 20.3703 18.6729 20.3841C18.663 20.3978 18.6449 20.4091 18.6327 20.4091C18.6205 20.4091 18.6105 20.4147 18.6105 20.4215C18.6105 20.4284 18.5992 20.434 18.5855 20.434C18.5717 20.434 18.5605 20.4397 18.5605 20.4465C18.5605 20.4534 18.5493 20.459 18.5355 20.459C18.5218 20.459 18.5105 20.4646 18.5105 20.4715C18.5105 20.4784 18.5005 20.484 18.4883 20.484C18.4761 20.484 18.458 20.4952 18.4481 20.509C18.4382 20.5227 18.4201 20.534 18.4079 20.534C18.3956 20.534 18.3856 20.5396 18.3856 20.5464C18.3856 20.5533 18.3744 20.5589 18.3607 20.5589C18.3469 20.5589 18.3357 20.5646 18.3357 20.5714C18.3357 20.5783 18.3257 20.5839 18.3135 20.5839C18.3012 20.5839 18.2831 20.5952 18.2732 20.6089C18.2633 20.6226 18.2452 20.6339 18.233 20.6339C18.2208 20.6339 18.2108 20.6395 18.2108 20.6464C18.2108 20.6532 18.1995 20.6589 18.1858 20.6589C18.1721 20.6589 18.1608 20.6645 18.1608 20.6714C18.1608 20.6782 18.1496 20.6838 18.1358 20.6838C18.1221 20.6838 18.1109 20.6895 18.1109 20.6963C18.1109 20.7032 18.1008 20.7088 18.0886 20.7088C18.0764 20.7088 18.0583 20.7201 18.0484 20.7338C18.0385 20.7475 18.0204 20.7588 18.0082 20.7588C17.996 20.7588 17.9859 20.7644 17.9859 20.7713C17.9859 20.7781 17.9747 20.7838 17.961 20.7838C17.9472 20.7838 17.936 20.7894 17.936 20.7963C17.936 20.8031 17.926 20.8087 17.9138 20.8087C17.9015 20.8087 17.8834 20.82 17.8735 20.8337C17.8636 20.8475 17.8455 20.8587 17.8333 20.8587C17.8211 20.8587 17.8111 20.8643 17.8111 20.8712C17.8111 20.8781 17.7998 20.8837 17.7861 20.8837C17.7724 20.8837 17.7611 20.8893 17.7611 20.8962C17.7611 20.903 17.7499 20.9087 17.7361 20.9087C17.7224 20.9087 17.7112 20.9143 17.7112 20.9212C17.7112 20.928 17.7012 20.9336 17.6889 20.9336C17.6767 20.9336 17.6586 20.9449 17.6487 20.9586C17.6388 20.9724 17.6207 20.9836 17.6085 20.9836C17.5963 20.9836 17.5863 20.9892 17.5863 20.9961C17.5863 21.003 17.575 21.0086 17.5613 21.0086C17.5475 21.0086 17.5363 21.0142 17.5363 21.0211C17.5363 21.0279 17.5251 21.0336 17.5113 21.0336C17.4976 21.0336 17.4863 21.0392 17.4863 21.0461C17.4863 21.0529 17.4763 21.0585 17.4641 21.0585C17.4519 21.0585 17.4338 21.0698 17.4239 21.0835C17.414 21.0973 17.3959 21.1085 17.3837 21.1085C17.3714 21.1085 17.3614 21.1141 17.3614 21.121C17.3614 21.1279 17.3502 21.1335 17.3365 21.1335C17.3227 21.1335 17.3115 21.1391 17.3115 21.146C17.3115 21.1528 17.3015 21.1585 17.2893 21.1585C17.277 21.1585 17.2589 21.1697 17.249 21.1835C17.2391 21.1972 17.221 21.2084 17.2088 21.2084C17.1966 21.2084 17.1866 21.2141 17.1866 21.2209C17.1866 21.2278 17.1753 21.2334 17.1616 21.2334C17.1479 21.2334 17.1366 21.239 17.1366 21.2459C17.1366 21.2528 17.1254 21.2584 17.1116 21.2584C17.0979 21.2584 17.0867 21.264 17.0867 21.2709C17.0867 21.2778 17.0766 21.2834 17.0644 21.2834C17.0522 21.2834 17.0341 21.2946 17.0242 21.3084C17.0143 21.3221 16.9962 21.3333 16.984 21.3333C16.9718 21.3333 16.9617 21.339 16.9617 21.3458C16.9617 21.3527 16.9505 21.3583 16.9368 21.3583C16.923 21.3583 16.9118 21.3639 16.9118 21.3708C16.9118 21.3777 16.9018 21.3833 16.8896 21.3833C16.8773 21.3833 16.8592 21.3945 16.8493 21.4083C16.8394 21.422 16.8213 21.4333 16.8091 21.4333C16.7969 21.4333 16.7869 21.4389 16.7869 21.4457C16.7869 21.4526 16.7756 21.4582 16.7619 21.4582C16.7482 21.4582 16.7369 21.4639 16.7369 21.4707C16.7369 21.4776 16.7257 21.4832 16.7119 21.4832C16.6982 21.4832 16.687 21.4888 16.687 21.4957C16.687 21.5026 16.677 21.5082 16.6647 21.5082C16.6525 21.5082 16.6344 21.5194 16.6245 21.5332C16.6146 21.5469 16.5965 21.5582 16.5843 21.5582C16.5721 21.5582 16.5621 21.5638 16.5621 21.5706C16.5621 21.5775 16.5508 21.5831 16.5371 21.5831C16.5233 21.5831 16.5121 21.5888 16.5121 21.5956C16.5121 21.6025 16.5021 21.6081 16.4899 21.6081C16.4777 21.6081 16.4596 21.6194 16.4496 21.6331C16.4397 21.6468 16.4216 21.6581 16.4094 21.6581C16.3972 21.6581 16.3872 21.6637 16.3872 21.6706C16.3872 21.6774 16.376 21.6831 16.3622 21.6831C16.3485 21.6831 16.3372 21.6887 16.3372 21.6956C16.3372 21.7024 16.326 21.708 16.3123 21.708C16.2985 21.708 16.2873 21.7137 16.2873 21.7205C16.2873 21.7274 16.2773 21.733 16.2651 21.733C16.2528 21.733 16.2347 21.7443 16.2248 21.758C16.2149 21.7717 16.1968 21.783 16.1846 21.783C16.1724 21.783 16.1624 21.7886 16.1624 21.7955C16.1624 21.8023 16.1511 21.808 16.1374 21.808C16.1237 21.808 16.1124 21.8136 16.1124 21.8205C16.1124 21.8273 16.1024 21.8329 16.0902 21.8329C16.078 21.8329 16.0599 21.8442 16.05 21.8579C16.0401 21.8717 16.022 21.8829 16.0097 21.8829C15.9975 21.8829 15.9875 21.8885 15.9875 21.8954C15.9875 21.9023 15.9763 21.9079 15.9625 21.9079C15.9488 21.9079 15.9375 21.9135 15.9375 21.9204C15.9375 21.9272 15.9263 21.9329 15.9126 21.9329C15.8988 21.9329 15.8876 21.9385 15.8876 21.9454C15.8876 21.9522 15.8776 21.9578 15.8654 21.9578C15.8531 21.9578 15.835 21.9691 15.8251 21.9828C15.8152 21.9966 15.7971 22.0078 15.7849 22.0078C15.7727 22.0078 15.7627 22.0134 15.7627 22.0203C15.7627 22.0272 15.7514 22.0328 15.7377 22.0328C15.724 22.0328 15.7127 22.0384 15.7127 22.0453C15.7127 22.0521 15.7027 22.0578 15.6905 22.0578C15.6783 22.0578 15.6602 22.069 15.6503 22.0827C15.6404 22.0965 15.6223 22.1077 15.61 22.1077C15.5978 22.1077 15.5878 22.1133 15.5878 22.1202C15.5878 22.1271 15.5766 22.1327 15.5628 22.1327C15.5491 22.1327 15.5379 22.1383 15.5379 22.1452C15.5379 22.1521 15.5266 22.1577 15.5129 22.1577C15.4991 22.1577 15.4879 22.1633 15.4879 22.1702C15.4879 22.177 15.4779 22.1827 15.4657 22.1827C15.4535 22.1827 15.4354 22.1939 15.4254 22.2076C15.4155 22.2214 15.3974 22.2326 15.3852 22.2326C15.373 22.2326 15.363 22.2383 15.363 22.2451C15.363 22.252 15.3518 22.2576 15.338 22.2576C15.3243 22.2576 15.313 22.2632 15.313 22.2701C15.313 22.277 15.3018 22.2826 15.2881 22.2826C15.2743 22.2826 15.2631 22.2882 15.2631 22.2951C15.2631 22.302 15.2531 22.3076 15.2409 22.3076C15.2286 22.3076 15.2105 22.3188 15.2006 22.3326C15.1907 22.3463 15.1726 22.3575 15.1604 22.3575C15.1482 22.3575 15.1382 22.3632 15.1382 22.37C15.1382 22.3769 15.1269 22.3825 15.1132 22.3825C15.0995 22.3825 15.0882 22.3881 15.0882 22.395C15.0882 22.4019 15.0782 22.4075 15.066 22.4075C15.0538 22.4075 15.0357 22.4187 15.0258 22.4325C15.0159 22.4462 14.9978 22.4575 14.9855 22.4575C14.9733 22.4575 14.9633 22.4631 14.9633 22.4699C14.9633 22.4768 14.9521 22.4824 14.9383 22.4824C14.9246 22.4824 14.9133 22.4881 14.9133 22.4949C14.9133 22.5018 14.9021 22.5074 14.8884 22.5074C14.8746 22.5074 14.8634 22.513 14.8634 22.5199C14.8634 22.5268 14.8534 22.5324 14.8412 22.5324C14.8289 22.5324 14.8108 22.5436 14.8009 22.5574C14.791 22.5711 14.7729 22.5824 14.7607 22.5824C14.7485 22.5824 14.7385 22.588 14.7385 22.5948C14.7385 22.6017 14.7272 22.6073 14.7135 22.6073C14.6998 22.6073 14.6885 22.613 14.6885 22.6198C14.6885 22.6267 14.6785 22.6323 14.6663 22.6323C14.6541 22.6323 14.636 22.6436 14.6261 22.6573C14.6162 22.671 14.5981 22.6823 14.5858 22.6823C14.5736 22.6823 14.5636 22.6879 14.5636 22.6948C14.5636 22.7016 14.5524 22.7073 14.5386 22.7073C14.5249 22.7073 14.5137 22.7129 14.5137 22.7197C14.5137 22.7266 14.5024 22.7322 14.4887 22.7322C14.4749 22.7322 14.4637 22.7379 14.4637 22.7447C14.4637 22.7516 14.4537 22.7572 14.4415 22.7572C14.4293 22.7572 14.4112 22.7685 14.4012 22.7822C14.3913 22.7959 14.3732 22.8072 14.361 22.8072C14.3488 22.8072 14.3388 22.8128 14.3388 22.8197C14.3388 22.8265 14.3276 22.8322 14.3138 22.8322C14.3001 22.8322 14.2888 22.8378 14.2888 22.8447C14.2888 22.8515 14.2788 22.8571 14.2666 22.8571C14.2544 22.8571 14.2363 22.8684 14.2264 22.8821C14.2165 22.8959 14.1984 22.9071 14.1862 22.9071C14.1739 22.9071 14.1639 22.9127 14.1639 22.9196C14.1639 22.9265 14.1527 22.9321 14.139 22.9321C14.1252 22.9321 14.114 22.9377 14.114 22.9446C14.114 22.9514 14.1027 22.9571 14.089 22.9571C14.0753 22.9571 14.064 22.9627 14.064 22.9696C14.064 22.9764 14.054 22.982 14.0418 22.982C14.0296 22.982 14.0115 22.9933 14.0016 23.007C13.9917 23.0208 13.9736 23.032 13.9613 23.032C13.9491 23.032 13.9391 23.0376 13.9391 23.0445C13.9391 23.0514 13.9279 23.057 13.9141 23.057C13.9004 23.057 13.8891 23.0626 13.8891 23.0695C13.8891 23.0763 13.8791 23.082 13.8669 23.082C13.8547 23.082 13.8366 23.0932 13.8267 23.1069C13.8168 23.1207 13.7987 23.1319 13.7865 23.1319C13.7743 23.1319 13.7642 23.1375 13.7642 23.1444C13.7642 23.1741 13.7207 23.1523 13.6643 23.0945C13.6309 23.0601 13.5971 23.032 13.5894 23.032C13.5816 23.032 13.5479 23.0039 13.5144 22.9696C13.481 22.9352 13.4472 22.9071 13.4393 22.9071C13.4315 22.9071 13.4035 22.8846 13.377 22.8571C13.3506 22.8297 13.3226 22.8072 13.3148 22.8072C13.3069 22.8072 13.2731 22.7791 13.2397 22.7447C13.2062 22.7104 13.1725 22.6823 13.1647 22.6823C13.157 22.6823 13.1232 22.6542 13.0898 22.6198C13.0563 22.5855 13.0226 22.5574 13.0148 22.5574C13.0071 22.5574 12.9734 22.5293 12.9399 22.4949C12.9064 22.4606 12.8727 22.4325 12.8649 22.4325C12.8572 22.4325 12.8235 22.4044 12.79 22.37C12.7565 22.3357 12.7227 22.3076 12.7149 22.3076C12.707 22.3076 12.679 22.2851 12.6526 22.2576C12.6262 22.2301 12.5982 22.2076 12.5903 22.2076C12.5825 22.2076 12.5487 22.1795 12.5152 22.1452C12.4818 22.1109 12.448 22.0827 12.4403 22.0827C12.4325 22.0827 12.3988 22.0546 12.3653 22.0203C12.3319 21.9859 12.2982 21.9578 12.2904 21.9578C12.2826 21.9578 12.2489 21.9297 12.2155 21.8954C12.182 21.861 12.1483 21.8329 12.1405 21.8329C12.1328 21.8329 12.099 21.8048 12.0656 21.7705C12.0321 21.7361 11.9983 21.708 11.9905 21.708C11.9826 21.708 11.9546 21.6856 11.9282 21.6581C11.9018 21.6306 11.8737 21.6081 11.8659 21.6081C11.858 21.6081 11.8242 21.58 11.7908 21.5457C11.7573 21.5113 11.7236 21.4832 11.7158 21.4832C11.7081 21.4832 11.6744 21.4551 11.6409 21.4208C11.6074 21.3864 11.5737 21.3583 11.566 21.3583C11.5582 21.3583 11.5245 21.3302 11.491 21.2959C11.4576 21.2615 11.4238 21.2334 11.4161 21.2334C11.4083 21.2334 11.3746 21.2053 11.3411 21.171C11.3077 21.1366 11.2739 21.1085 11.266 21.1085C11.2582 21.1085 11.2302 21.086 11.2037 21.0585C11.1773 21.0311 11.1493 21.0086 11.1415 21.0086C11.1336 21.0086 11.0998 20.9805 11.0664 20.9461C11.0329 20.9118 10.9992 20.8837 10.9914 20.8837C10.9837 20.8837 10.9499 20.8556 10.9165 20.8212C10.883 20.7869 10.8493 20.7588 10.8415 20.7588C10.8338 20.7588 10.8 20.7307 10.7666 20.6963C10.7331 20.662 10.6994 20.6339 10.6916 20.6339C10.6839 20.6339 10.6502 20.6058 10.6167 20.5714C10.5832 20.5371 10.5494 20.509 10.5416 20.509C10.5337 20.509 10.5057 20.4865 10.4793 20.459C10.4529 20.4315 10.4249 20.4091 10.417 20.4091C10.4092 20.4091 10.3754 20.381 10.3419 20.3466C10.3085 20.3123 10.2747 20.2842 10.267 20.2842C10.2592 20.2842 10.2255 20.2561 10.192 20.2217C10.1586 20.1874 10.1249 20.1593 10.1171 20.1593C10.1093 20.1593 10.0756 20.1311 10.0422 20.0968C10.0087 20.0625 9.97497 20.0343 9.96721 20.0343C9.95946 20.0343 9.92573 20.0062 9.89227 19.9719C9.85881 19.9375 9.82501 19.9094 9.81717 19.9094C9.80931 19.9094 9.78128 19.887 9.75488 19.8595C9.72847 19.832 9.70045 19.8095 9.69259 19.8095C9.68475 19.8095 9.65095 19.7814 9.61749 19.7471C9.58402 19.7127 9.5503 19.6846 9.54254 19.6846C9.53479 19.6846 9.50106 19.6565 9.4676 19.6222C9.43414 19.5878 9.40042 19.5597 9.39266 19.5597C9.38491 19.5597 9.35118 19.5316 9.31772 19.4973C9.28426 19.4629 9.25054 19.4348 9.24278 19.4348C9.23502 19.4348 9.2013 19.4067 9.16784 19.3724C9.13438 19.338 9.10058 19.3099 9.09273 19.3099C9.08488 19.3099 9.05685 19.2874 9.03045 19.26C9.00404 19.2325 8.97601 19.21 8.96816 19.21C8.96031 19.21 8.92651 19.1819 8.89305 19.1475C8.85959 19.1132 8.82587 19.0851 8.81811 19.0851C8.81035 19.0851 8.77663 19.057 8.74317 19.0226C8.70971 18.9883 8.67625 18.9602 8.6688 18.9602C8.66137 18.9602 8.61884 18.9238 8.57431 18.8792L8.49336 18.7983V16.8237C8.49336 15.129 8.4959 14.8466 8.51121 14.8313C8.53741 14.8051 8.55424 14.8091 8.59329 14.8509C8.61253 14.8715 8.63483 14.8884 8.64282 14.8884C8.65082 14.8884 8.68473 14.9165 8.71819 14.9508C8.75165 14.9852 8.78537 15.0133 8.79313 15.0133C8.80089 15.0133 8.83461 15.0414 8.86807 15.0757C8.90153 15.1101 8.93526 15.1382 8.94301 15.1382C8.95077 15.1382 8.98449 15.1663 9.01795 15.2006C9.05142 15.235 9.08521 15.2631 9.09306 15.2631C9.10091 15.2631 9.12894 15.2856 9.15535 15.313C9.18175 15.3405 9.20978 15.363 9.21764 15.363C9.22548 15.363 9.25928 15.3911 9.29274 15.4254C9.3262 15.4598 9.35993 15.4879 9.36768 15.4879C9.37544 15.4879 9.40916 15.516 9.44262 15.5504C9.47608 15.5847 9.50981 15.6128 9.51756 15.6128C9.52532 15.6128 9.55904 15.6409 9.59251 15.6753C9.62597 15.7096 9.65969 15.7377 9.66745 15.7377C9.6752 15.7377 9.70893 15.7658 9.74239 15.8002C9.77585 15.8345 9.80965 15.8626 9.81749 15.8626C9.82535 15.8626 9.85338 15.8851 9.87978 15.9126C9.90619 15.94 9.93421 15.9625 9.94207 15.9625C9.94991 15.9625 9.98371 15.9906 10.0172 16.025C10.0506 16.0593 10.0844 16.0874 10.0921 16.0874C10.0999 16.0874 10.1336 16.1155 10.1671 16.1499C10.2005 16.1842 10.2342 16.2123 10.242 16.2123C10.2498 16.2123 10.2835 16.2404 10.3169 16.2748C10.3504 16.3091 10.3841 16.3372 10.3919 16.3372C10.3996 16.3372 10.4334 16.3653 10.4668 16.3997C10.5003 16.434 10.5341 16.4621 10.5419 16.4621C10.5498 16.4621 10.5778 16.4846 10.6042 16.5121C10.6306 16.5396 10.6586 16.5621 10.6665 16.5621C10.6743 16.5621 10.7081 16.5902 10.7416 16.6245C10.7751 16.6589 10.8088 16.687 10.8165 16.687C10.8243 16.687 10.858 16.7151 10.8915 16.7494C10.925 16.7838 10.9587 16.8119 10.9664 16.8119C10.9742 16.8119 11.0079 16.84 11.0414 16.8743C11.0748 16.9087 11.1086 16.9368 11.1163 16.9368C11.1241 16.9368 11.1578 16.9649 11.1913 16.9992C11.2247 17.0336 11.2585 17.0617 11.2664 17.0617C11.2742 17.0617 11.3022 17.0842 11.3286 17.1116C11.3551 17.1391 11.3831 17.1616 11.3909 17.1616C11.3988 17.1616 11.4326 17.1897 11.466 17.224C11.4995 17.2584 11.5332 17.2865 11.541 17.2865C11.5487 17.2865 11.5825 17.3146 11.6159 17.3489C11.6494 17.3833 11.6831 17.4114 11.6909 17.4114C11.6986 17.4114 11.7323 17.4395 11.7658 17.4738C11.7993 17.5082 11.833 17.5363 11.8407 17.5363C11.8485 17.5363 11.8822 17.5644 11.9157 17.5988C11.9492 17.6331 11.983 17.6612 11.9908 17.6612C11.9987 17.6612 12.0267 17.6837 12.0531 17.7112C12.0795 17.7386 12.1075 17.7611 12.1154 17.7611C12.1232 17.7611 12.157 17.7892 12.1905 17.8236C12.2239 17.8579 12.2577 17.886 12.2654 17.886C12.2732 17.886 12.3069 17.9141 12.3404 17.9485C12.3738 17.9828 12.4075 18.0109 12.4153 18.0109C12.4231 18.0109 12.4568 18.039 12.4902 18.0734C12.5237 18.1077 12.5574 18.1358 12.5652 18.1358C12.5729 18.1358 12.6067 18.1639 12.6401 18.1983C12.6736 18.2326 12.7074 18.2607 12.7152 18.2607C12.7231 18.2607 12.7511 18.2832 12.7775 18.3107C12.8039 18.3382 12.832 18.3607 12.8398 18.3607C12.8477 18.3607 12.8814 18.3888 12.9149 18.4231C12.9484 18.4575 12.9821 18.4856 12.9899 18.4856C12.9976 18.4856 13.0313 18.5137 13.0648 18.548C13.0983 18.5824 13.132 18.6105 13.1397 18.6105C13.1475 18.6105 13.1812 18.6386 13.2147 18.6729C13.2481 18.7073 13.2819 18.7354 13.2896 18.7354C13.2974 18.7354 13.3311 18.7635 13.3646 18.7978C13.398 18.8322 13.4317 18.8603 13.4395 18.8603C13.4473 18.8603 13.481 18.8884 13.5144 18.9227C13.5479 18.9571 13.5817 18.9852 13.5895 18.9852C13.5974 18.9852 13.6254 19.0077 13.6518 19.0351C13.6782 19.0626 13.7063 19.0851 13.7141 19.0851C13.722 19.0851 13.7558 19.1132 13.7892 19.1475C13.8227 19.1819 13.8564 19.21 13.8642 19.21C13.8719 19.21 13.9056 19.2381 13.9391 19.2724C13.9726 19.3068 14.0067 19.3349 14.0149 19.3349C14.0231 19.3349 14.0411 19.3475 14.0549 19.363C14.0718 19.3821 14.0817 19.3861 14.0855 19.3755C14.0886 19.3669 14.1018 19.3599 14.115 19.3599C14.1282 19.3599 14.139 19.3543 14.139 19.3474C14.139 19.3405 14.1502 19.3349 14.1639 19.3349C14.1777 19.3349 14.1889 19.3293 14.1889 19.3224C14.1889 19.3155 14.1989 19.3099 14.2111 19.3099C14.2234 19.3099 14.2415 19.2987 14.2514 19.2849C14.2613 19.2712 14.2794 19.26 14.2916 19.26C14.3038 19.26 14.3138 19.2543 14.3138 19.2475C14.3138 19.2406 14.3251 19.235 14.3388 19.235C14.3525 19.235 14.3638 19.2294 14.3638 19.2225C14.3638 19.2156 14.375 19.21 14.3888 19.21C14.4025 19.21 14.4137 19.2044 14.4137 19.1975C14.4137 19.1906 14.4237 19.185 14.436 19.185C14.4482 19.185 14.4663 19.1738 14.4762 19.16C14.4861 19.1463 14.5042 19.135 14.5164 19.135C14.5286 19.135 14.5386 19.1294 14.5386 19.1226C14.5386 19.1157 14.5499 19.1101 14.5636 19.1101C14.5774 19.1101 14.5886 19.1045 14.5886 19.0976C14.5886 19.0907 14.5986 19.0851 14.6108 19.0851C14.6231 19.0851 14.6411 19.0738 14.6511 19.0601C14.661 19.0464 14.6791 19.0351 14.6913 19.0351C14.7035 19.0351 14.7135 19.0295 14.7135 19.0226C14.7135 19.0158 14.7247 19.0101 14.7385 19.0101C14.7522 19.0101 14.7635 19.0045 14.7635 18.9977C14.7635 18.9908 14.7747 18.9852 14.7884 18.9852C14.8022 18.9852 14.8134 18.9795 14.8134 18.9727C14.8134 18.9658 14.8234 18.9602 14.8356 18.9602C14.8479 18.9602 14.866 18.9489 14.8759 18.9352C14.8858 18.9215 14.9039 18.9102 14.9161 18.9102C14.9283 18.9102 14.9383 18.9046 14.9383 18.8977C14.9383 18.8909 14.9496 18.8852 14.9633 18.8852C14.977 18.8852 14.9883 18.8796 14.9883 18.8728C14.9883 18.8659 14.9983 18.8603 15.0105 18.8603C15.0227 18.8603 15.0408 18.849 15.0507 18.8353C15.0606 18.8215 15.0787 18.8103 15.091 18.8103C15.1032 18.8103 15.1132 18.8047 15.1132 18.7978C15.1132 18.7909 15.1244 18.7853 15.1382 18.7853C15.1519 18.7853 15.1632 18.7797 15.1632 18.7728C15.1632 18.766 15.1744 18.7603 15.1881 18.7603C15.2019 18.7603 15.2131 18.7547 15.2131 18.7479C15.2131 18.741 15.2231 18.7354 15.2353 18.7354C15.2476 18.7354 15.2657 18.7241 15.2756 18.7104C15.2855 18.6966 15.3036 18.6854 15.3158 18.6854C15.328 18.6854 15.338 18.6798 15.338 18.6729C15.338 18.666 15.3493 18.6604 15.363 18.6604C15.3767 18.6604 15.388 18.6548 15.388 18.6479C15.388 18.6411 15.398 18.6354 15.4102 18.6354C15.4224 18.6354 15.4405 18.6242 15.4504 18.6105C15.4603 18.5967 15.4784 18.5855 15.4907 18.5855C15.5029 18.5855 15.5129 18.5799 15.5129 18.573C15.5129 18.5661 15.5241 18.5605 15.5379 18.5605C15.5516 18.5605 15.5628 18.5549 15.5628 18.548C15.5628 18.5411 15.5741 18.5355 15.5878 18.5355C15.6016 18.5355 15.6128 18.5299 15.6128 18.523C15.6128 18.5162 15.6228 18.5105 15.635 18.5105C15.6473 18.5105 15.6653 18.4993 15.6753 18.4856C15.6852 18.4718 15.7033 18.4606 15.7155 18.4606C15.7277 18.4606 15.7377 18.455 15.7377 18.4481C15.7377 18.4412 15.7489 18.4356 15.7627 18.4356C15.7764 18.4356 15.7877 18.43 15.7877 18.4231C15.7877 18.4162 15.7977 18.4106 15.8099 18.4106C15.8221 18.4106 15.8402 18.3994 15.8501 18.3856C15.86 18.3719 15.8781 18.3607 15.8903 18.3607C15.9026 18.3607 15.9126 18.355 15.9126 18.3482C15.9126 18.3413 15.9238 18.3357 15.9375 18.3357C15.9513 18.3357 15.9625 18.3301 15.9625 18.3232C15.9625 18.3163 15.9738 18.3107 15.9875 18.3107C16.0012 18.3107 16.0125 18.3051 16.0125 18.2982C16.0125 18.2913 16.0225 18.2857 16.0347 18.2857C16.0469 18.2857 16.065 18.2745 16.0749 18.2607C16.0848 18.247 16.1029 18.2358 16.1152 18.2358C16.1274 18.2358 16.1374 18.2301 16.1374 18.2233C16.1374 18.2164 16.1486 18.2108 16.1624 18.2108C16.1761 18.2108 16.1874 18.2052 16.1874 18.1983C16.1874 18.1914 16.1974 18.1858 16.2096 18.1858C16.2218 18.1858 16.2399 18.1746 16.2498 18.1608C16.2597 18.1471 16.2778 18.1358 16.29 18.1358C16.3022 18.1358 16.3123 18.1302 16.3123 18.1233C16.3123 18.1165 16.3235 18.1109 16.3372 18.1109C16.351 18.1109 16.3622 18.1052 16.3622 18.0984C16.3622 18.0915 16.3735 18.0859 16.3872 18.0859C16.4009 18.0859 16.4122 18.0802 16.4122 18.0734C16.4122 18.0665 16.4222 18.0609 16.4344 18.0609C16.4466 18.0609 16.4647 18.0496 16.4746 18.0359C16.4845 18.0222 16.5026 18.0109 16.5149 18.0109C16.5271 18.0109 16.5371 18.0053 16.5371 17.9984C16.5371 17.9916 16.5483 17.9859 16.5621 17.9859C16.5758 17.9859 16.587 17.9803 16.587 17.9735C16.587 17.9666 16.5983 17.961 16.612 17.961C16.6258 17.961 16.637 17.9553 16.637 17.9485C16.637 17.9416 16.647 17.936 16.6592 17.936C16.6715 17.936 16.6895 17.9247 16.6995 17.911C16.7094 17.8973 16.7275 17.886 16.7397 17.886C16.7519 17.886 16.7619 17.8804 16.7619 17.8735C16.7619 17.8667 16.7731 17.861 16.7869 17.861C16.8006 17.861 16.8119 17.8554 16.8119 17.8486C16.8119 17.8417 16.8219 17.8361 16.8341 17.8361C16.8463 17.8361 16.8644 17.8248 16.8743 17.8111C16.8842 17.7973 16.9023 17.7861 16.9145 17.7861C16.9268 17.7861 16.9368 17.7805 16.9368 17.7736C16.9368 17.7667 16.948 17.7611 16.9617 17.7611C16.9755 17.7611 16.9867 17.7555 16.9867 17.7486C16.9867 17.7418 16.998 17.7361 17.0117 17.7361C17.0254 17.7361 17.0367 17.7305 17.0367 17.7237C17.0367 17.7168 17.0467 17.7112 17.0589 17.7112C17.0711 17.7112 17.0892 17.6999 17.0991 17.6862C17.109 17.6724 17.1271 17.6612 17.1394 17.6612C17.1516 17.6612 17.1616 17.6556 17.1616 17.6487C17.1616 17.6418 17.1728 17.6362 17.1866 17.6362C17.2003 17.6362 17.2116 17.6306 17.2116 17.6237C17.2116 17.6169 17.2216 17.6112 17.2338 17.6112C17.246 17.6112 17.2641 17.6 17.274 17.5863C17.2839 17.5725 17.302 17.5613 17.3142 17.5613C17.3265 17.5613 17.3365 17.5557 17.3365 17.5488C17.3365 17.5419 17.3477 17.5363 17.3614 17.5363C17.3752 17.5363 17.3864 17.5307 17.3864 17.5238C17.3864 17.5169 17.3977 17.5113 17.4114 17.5113C17.4251 17.5113 17.4364 17.5057 17.4364 17.4988C17.4364 17.492 17.4464 17.4863 17.4586 17.4863C17.4708 17.4863 17.4889 17.4751 17.4988 17.4614C17.5087 17.4476 17.5268 17.4364 17.5391 17.4364C17.5513 17.4364 17.5613 17.4308 17.5613 17.4239C17.5613 17.417 17.5725 17.4114 17.5863 17.4114C17.6 17.4114 17.6112 17.4058 17.6112 17.3989C17.6112 17.392 17.6212 17.3864 17.6335 17.3864C17.6457 17.3864 17.6638 17.3752 17.6737 17.3614C17.6836 17.3477 17.7017 17.3365 17.7139 17.3365C17.7261 17.3365 17.7361 17.3308 17.7361 17.324C17.7361 17.3171 17.7474 17.3115 17.7611 17.3115C17.7749 17.3115 17.7861 17.3059 17.7861 17.299C17.7861 17.2921 17.7973 17.2865 17.8111 17.2865C17.8248 17.2865 17.8361 17.2809 17.8361 17.274C17.8361 17.2671 17.8461 17.2615 17.8583 17.2615C17.8705 17.2615 17.8886 17.2503 17.8985 17.2365C17.9084 17.2228 17.9265 17.2116 17.9387 17.2116C17.951 17.2116 17.961 17.2059 17.961 17.1991C17.961 17.1922 17.9722 17.1866 17.9859 17.1866C17.9997 17.1866 18.0109 17.181 18.0109 17.1741C18.0109 17.1672 18.0209 17.1616 18.0331 17.1616C18.0454 17.1616 18.0635 17.1504 18.0734 17.1366C18.0833 17.1229 18.1014 17.1116 18.1136 17.1116C18.1258 17.1116 18.1358 17.106 18.1358 17.0991C18.1358 17.0923 18.1471 17.0867 18.1608 17.0867C18.1746 17.0867 18.1858 17.081 18.1858 17.0742C18.1858 17.0673 18.197 17.0617 18.2108 17.0617C18.2245 17.0617 18.2358 17.056 18.2358 17.0492C18.2358 17.0423 18.2458 17.0367 18.258 17.0367C18.2702 17.0367 18.2883 17.0254 18.2982 17.0117C18.3081 16.998 18.3262 16.9867 18.3384 16.9867C18.3507 16.9867 18.3607 16.9811 18.3607 16.9742C18.3607 16.9674 18.3719 16.9617 18.3856 16.9617C18.3994 16.9617 18.4106 16.9561 18.4106 16.9493C18.4106 16.9424 18.4206 16.9368 18.4328 16.9368C18.4451 16.9368 18.4632 16.9255 18.4731 16.9118C18.483 16.898 18.5011 16.8868 18.5133 16.8868C18.5255 16.8868 18.5355 16.8812 18.5355 16.8743C18.5355 16.8674 18.5468 16.8618 18.5605 16.8618C18.5742 16.8618 18.5855 16.8562 18.5855 16.8493C18.5855 16.8425 18.5967 16.8368 18.6105 16.8368C18.6242 16.8368 18.6354 16.8312 18.6354 16.8244C18.6354 16.8175 18.6454 16.8119 18.6577 16.8119C18.6699 16.8119 18.688 16.8006 18.6979 16.7869C18.7078 16.7731 18.7259 16.7619 18.7381 16.7619C18.7503 16.7619 18.7603 16.7563 18.7603 16.7494C18.7603 16.7425 18.7716 16.7369 18.7853 16.7369C18.7991 16.7369 18.8103 16.7313 18.8103 16.7244C18.8103 16.7176 18.8203 16.7119 18.8325 16.7119C18.8448 16.7119 18.8629 16.7007 18.8728 16.687C18.8827 16.6732 18.9008 16.662 18.913 16.662C18.9252 16.662 18.9352 16.6564 18.9352 16.6495C18.9352 16.6426 18.9464 16.637 18.9602 16.637C18.9739 16.637 18.9852 16.6314 18.9852 16.6245C18.9852 16.6176 18.9964 16.612 19.0101 16.612C19.0239 16.612 19.0351 16.6064 19.0351 16.5995C19.0351 16.5927 19.0451 16.587 19.0574 16.587C19.0696 16.587 19.0877 16.5758 19.0976 16.5621C19.1075 16.5483 19.1256 16.5371 19.1378 16.5371C19.15 16.5371 19.16 16.5315 19.16 16.5246C19.16 16.5177 19.1713 16.5121 19.185 16.5121C19.1988 16.5121 19.21 16.5065 19.21 16.4996C19.21 16.4927 19.22 16.4871 19.2322 16.4871C19.2444 16.4871 19.2625 16.4759 19.2724 16.4621C19.2823 16.4484 19.3004 16.4372 19.3127 16.4372C19.3249 16.4372 19.3349 16.4315 19.3349 16.4247C19.3349 16.4178 19.3461 16.4122 19.3599 16.4122C19.3736 16.4122 19.3849 16.4066 19.3849 16.3997C19.3849 16.3928 19.3961 16.3872 19.4098 16.3872C19.4236 16.3872 19.4348 16.3816 19.4348 16.3747C19.4348 16.3678 19.4448 16.3622 19.457 16.3622C19.4693 16.3622 19.4874 16.351 19.4973 16.3372C19.5072 16.3235 19.5253 16.3123 19.5375 16.3123C19.5497 16.3123 19.5597 16.3066 19.5597 16.2998C19.5597 16.2929 19.571 16.2873 19.5847 16.2873C19.5984 16.2873 19.6097 16.2817 19.6097 16.2748C19.6097 16.2679 19.6197 16.2623 19.6319 16.2623C19.6441 16.2623 19.6622 16.2511 19.6721 16.2373C19.682 16.2236 19.7001 16.2123 19.7124 16.2123C19.7246 16.2123 19.7346 16.2067 19.7346 16.1998C19.7346 16.193 19.7458 16.1874 19.7596 16.1874C19.7733 16.1874 19.7845 16.1817 19.7845 16.1749C19.7845 16.168 19.7958 16.1624 19.8095 16.1624C19.8233 16.1624 19.8345 16.1568 19.8345 16.1499C19.8345 16.143 19.8445 16.1374 19.8567 16.1374C19.869 16.1374 19.8871 16.1262 19.897 16.1124C19.9069 16.0987 19.925 16.0874 19.9372 16.0874C19.9494 16.0874 19.9594 16.0818 19.9594 16.0749C19.9594 16.0681 19.9706 16.0625 19.9844 16.0625C19.9981 16.0625 20.0094 16.0568 20.0094 16.05C20.0094 16.0431 20.0206 16.0375 20.0343 16.0375C20.0481 16.0375 20.0593 16.0318 20.0593 16.025C20.0593 16.0181 20.0693 16.0125 20.0815 16.0125C20.0938 16.0125 20.1119 16.0012 20.1218 15.9875C20.1317 15.9738 20.1498 15.9625 20.162 15.9625C20.1742 15.9625 20.1842 15.9569 20.1842 15.95C20.1842 15.9432 20.1955 15.9375 20.2092 15.9375C20.2229 15.9375 20.2342 15.9319 20.2342 15.9251C20.2342 15.9182 20.2442 15.9126 20.2564 15.9126C20.2686 15.9126 20.2867 15.9013 20.2966 15.8876C20.3065 15.8738 20.3246 15.8626 20.3369 15.8626C20.3491 15.8626 20.3591 15.857 20.3591 15.8501C20.3591 15.8432 20.3703 15.8376 20.3841 15.8376C20.3978 15.8376 20.4091 15.832 20.4091 15.8251C20.4091 15.8183 20.4203 15.8126 20.434 15.8126C20.4478 15.8126 20.459 15.807 20.459 15.8002C20.459 15.7933 20.469 15.7877 20.4812 15.7877C20.4935 15.7877 20.5116 15.7764 20.5215 15.7627C20.5314 15.7489 20.5495 15.7377 20.5617 15.7377C20.5739 15.7377 20.5839 15.7321 20.5839 15.7252C20.5839 15.7183 20.5952 15.7127 20.6089 15.7127C20.6226 15.7127 20.6339 15.7071 20.6339 15.7002C20.6339 15.6934 20.6439 15.6877 20.6561 15.6877C20.6683 15.6877 20.6864 15.6765 20.6963 15.6628C20.7062 15.649 20.7243 15.6378 20.7366 15.6378C20.7488 15.6378 20.7588 15.6322 20.7588 15.6253C20.7588 15.6184 20.77 15.6128 20.7838 15.6128C20.7975 15.6128 20.8087 15.6072 20.8087 15.6003C20.8087 15.5934 20.82 15.5878 20.8337 15.5878C20.8475 15.5878 20.8587 15.5822 20.8587 15.5753C20.8587 15.5685 20.8687 15.5628 20.8809 15.5628C20.8932 15.5628 20.9113 15.5516 20.9212 15.5379C20.9311 15.5241 20.9492 15.5129 20.9614 15.5129C20.9736 15.5129 20.9836 15.5073 20.9836 15.5004C20.9836 15.4935 20.9948 15.4879 21.0086 15.4879C21.0223 15.4879 21.0336 15.4823 21.0336 15.4754C21.0336 15.4685 21.0436 15.4629 21.0558 15.4629C21.068 15.4629 21.0861 15.4517 21.096 15.4379C21.1059 15.4242 21.124 15.413 21.1362 15.413C21.1485 15.413 21.1585 15.4073 21.1585 15.4005C21.1585 15.3936 21.1697 15.388 21.1835 15.388C21.1972 15.388 21.2084 15.3824 21.2084 15.3755C21.2084 15.3686 21.2197 15.363 21.2334 15.363C21.2472 15.363 21.2584 15.3574 21.2584 15.3505C21.2584 15.3436 21.2684 15.338 21.2806 15.338C21.2928 15.338 21.3109 15.3268 21.3208 15.313C21.3307 15.2993 21.3488 15.2881 21.3611 15.2881C21.3733 15.2881 21.3833 15.2824 21.3833 15.2756C21.3833 15.2687 21.3945 15.2631 21.4083 15.2631C21.422 15.2631 21.4333 15.2575 21.4333 15.2506C21.4333 15.2437 21.4433 15.2381 21.4555 15.2381C21.4677 15.2381 21.4858 15.2269 21.4957 15.2131C21.5056 15.1994 21.5237 15.1881 21.5359 15.1881C21.5482 15.1881 21.5582 15.1825 21.5582 15.1756C21.5582 15.1688 21.5694 15.1632 21.5831 15.1632C21.5969 15.1632 21.6081 15.1575 21.6081 15.1507C21.6081 15.1438 21.6194 15.1382 21.6331 15.1382C21.6468 15.1382 21.6581 15.1326 21.6581 15.1257C21.6581 15.1188 21.6681 15.1132 21.6803 15.1132C21.6925 15.1132 21.7106 15.102 21.7205 15.0882C21.7304 15.0745 21.7485 15.0632 21.7608 15.0632C21.773 15.0632 21.783 15.0576 21.783 15.0507C21.783 15.0439 21.7942 15.0383 21.808 15.0383C21.8217 15.0383 21.8329 15.0326 21.8329 15.0258C21.8329 15.0189 21.8429 15.0133 21.8552 15.0133C21.8674 15.0133 21.8855 15.002 21.8954 14.9883C21.9053 14.9746 21.9234 14.9633 21.9356 14.9633C21.9478 14.9633 21.9578 14.9577 21.9578 14.9508C21.9578 14.9439 21.9691 14.9383 21.9828 14.9383C21.9966 14.9383 22.0078 14.9327 22.0078 14.9258C22.0078 14.919 22.019 14.9133 22.0328 14.9133C22.0465 14.9133 22.0578 14.9077 22.0578 14.9009C22.0578 14.894 22.0678 14.8884 22.08 14.8884C22.0922 14.8884 22.1103 14.8771 22.1202 14.8634C22.1301 14.8496 22.1482 14.8384 22.1604 14.8384C22.1727 14.8384 22.1827 14.8328 22.1827 14.8259C22.1827 14.819 22.1939 14.8134 22.2076 14.8134C22.2214 14.8134 22.2326 14.8078 22.2326 14.8009C22.2326 14.7941 22.2426 14.7884 22.2549 14.7884C22.2671 14.7884 22.2852 14.7772 22.2951 14.7635C22.305 14.7497 22.3231 14.7385 22.3353 14.7385C22.3475 14.7385 22.3575 14.7329 22.3575 14.726C22.3575 14.7191 22.3688 14.7135 22.3825 14.7135C22.3963 14.7135 22.4075 14.7079 22.4075 14.701C22.4075 14.6941 22.4187 14.6885 22.4325 14.6885C22.4462 14.6885 22.4575 14.6829 22.4575 14.676C22.4575 14.6692 22.4675 14.6635 22.4797 14.6635C22.4919 14.6635 22.51 14.6523 22.5199 14.6386C22.5298 14.6248 22.5479 14.6136 22.5601 14.6136C22.5724 14.6136 22.5824 14.608 22.5824 14.6011C22.5824 14.5942 22.5936 14.5886 22.6073 14.5886C22.6211 14.5886 22.6323 14.583 22.6323 14.5761C22.6323 14.5692 22.6423 14.5636 22.6545 14.5636C22.6668 14.5636 22.6849 14.5524 22.6948 14.5386C22.7047 14.5249 22.7228 14.5137 22.735 14.5137C22.7472 14.5137 22.7572 14.508 22.7572 14.5012C22.7572 14.4943 22.7685 14.4887 22.7822 14.4887C22.7959 14.4887 22.8072 14.4831 22.8072 14.4762C22.8072 14.4693 22.8184 14.4637 22.8322 14.4637C22.8459 14.4637 22.8571 14.4581 22.8571 14.4512C22.8571 14.4443 22.8671 14.4387 22.8794 14.4387C22.8916 14.4387 22.9097 14.4275 22.9196 14.4137C22.9295 14.4 22.9476 14.3888 22.9598 14.3888C22.972 14.3888 22.982 14.3831 22.982 14.3763C22.982 14.3694 22.9933 14.3638 23.007 14.3638C23.0208 14.3638 23.032 14.3582 23.032 14.3513C23.032 14.3444 23.0432 14.3388 23.057 14.3388C23.0707 14.3388 23.082 14.3332 23.082 14.3263C23.082 14.3194 23.092 14.3138 23.1042 14.3138C23.1164 14.3138 23.1345 14.3026 23.1444 14.2888C23.1543 14.2751 23.1724 14.2639 23.1846 14.2639C23.1969 14.2639 23.2069 14.2582 23.2069 14.2514C23.2069 14.2445 23.2181 14.2389 23.2318 14.2389C23.2456 14.2389 23.2568 14.2333 23.2568 14.2264C23.2568 14.2195 23.2668 14.2139 23.2791 14.2139C23.2913 14.2139 23.3094 14.2027 23.3193 14.1889C23.3292 14.1752 23.3473 14.1639 23.3595 14.1639C23.3717 14.1639 23.3817 14.1583 23.3817 14.1514C23.3817 14.1446 23.393 14.139 23.4067 14.139C23.4205 14.139 23.4317 14.1333 23.4317 14.1265C23.4317 14.1196 23.4429 14.114 23.4567 14.114C23.4704 14.114 23.4817 14.1084 23.4817 14.1015C23.4817 14.0946 23.4917 14.089 23.5039 14.089C23.5161 14.089 23.5342 14.0778 23.5441 14.064C23.554 14.0503 23.5721 14.039 23.5843 14.039C23.5966 14.039 23.6066 14.0334 23.6066 14.0265C23.6066 14.0197 23.6178 14.0141 23.6315 14.0141C23.6453 14.0141 23.6565 14.0084 23.6565 14.0016C23.6565 13.9947 23.6665 13.9891 23.6787 13.9891C23.691 13.9891 23.7091 13.9778 23.719 13.9641C23.7289 13.9504 23.747 13.9391 23.7592 13.9391C23.7714 13.9391 23.7814 13.9335 23.7814 13.9266C23.7814 13.9198 23.7927 13.9141 23.8064 13.9141C23.8201 13.9141 23.8314 13.9085 23.8314 13.9016C23.8314 13.8948 23.8426 13.8891 23.8564 13.8891C23.8701 13.8891 23.8813 13.8835 23.8813 13.8767C23.8813 13.8698 23.8913 13.8642 23.9036 13.8642C23.9158 13.8642 23.9339 13.8529 23.9438 13.8392C23.9537 13.8254 23.9718 13.8142 23.984 13.8142C23.9962 13.8142 24.0062 13.8086 24.0062 13.8017C24.0062 13.7948 24.0175 13.7892 24.0312 13.7892C24.045 13.7892 24.0562 13.7836 24.0562 13.7767C24.0562 13.7699 24.0662 13.7642 24.0784 13.7642C24.0907 13.7642 24.1088 13.753 24.1187 13.7393C24.1286 13.7255 24.1467 13.7143 24.1589 13.7143C24.1711 13.7143 24.1811 13.7087 24.1811 13.7018C24.1811 13.6949 24.1923 13.6893 24.2061 13.6893C24.2198 13.6893 24.2311 13.6837 24.2311 13.6768C24.2311 13.6699 24.2423 13.6643 24.2561 13.6643C24.2698 13.6643 24.281 13.6587 24.281 13.6518C24.281 13.645 24.291 13.6393 24.3033 13.6393C24.3155 13.6393 24.3336 13.6281 24.3435 13.6144C24.3534 13.6006 24.3715 13.5894 24.3837 13.5894C24.3959 13.5894 24.4059 13.5838 24.4059 13.5769C24.4059 13.57 24.4172 13.5644 24.4309 13.5644C24.4447 13.5644 24.4559 13.5588 24.4559 13.5519C24.4559 13.545 24.4659 13.5394 24.4781 13.5394C24.4903 13.5394 24.5084 13.5282 24.5183 13.5144C24.5282 13.5007 24.5463 13.4895 24.5586 13.4895C24.5708 13.4895 24.5808 13.4838 24.5808 13.477C24.5808 13.4701 24.592 13.4645 24.6058 13.4645C24.6195 13.4645 24.6308 13.4589 24.6308 13.452C24.6308 13.4451 24.642 13.4395 24.6557 13.4395C24.6695 13.4395 24.6807 13.4339 24.6807 13.427C24.6807 13.4201 24.6907 13.4145 24.7029 13.4145C24.7152 13.4145 24.7333 13.4033 24.7432 13.3895C24.7531 13.3758 24.7712 13.3646 24.7834 13.3646C24.7956 13.3646 24.8056 13.3589 24.8056 13.3521C24.8056 13.3452 24.8169 13.3396 24.8306 13.3396C24.8443 13.3396 24.8556 13.334 24.8556 13.3271C24.8556 13.3202 24.8656 13.3146 24.8778 13.3146C24.89 13.3146 24.9081 13.3034 24.918 13.2896C24.9279 13.2759 24.946 13.2646 24.9583 13.2646C24.9705 13.2646 24.9805 13.259 24.9805 13.2521C24.9805 13.2453 24.9917 13.2397 25.0055 13.2397C25.0192 13.2397 25.0304 13.234 25.0304 13.2272C25.0304 13.2203 25.0417 13.2147 25.0554 13.2147C25.0692 13.2147 25.0804 13.2091 25.0804 13.2022C25.0804 13.1953 25.0904 13.1897 25.1026 13.1897C25.1149 13.1897 25.133 13.1785 25.1429 13.1647C25.1528 13.151 25.1709 13.1397 25.1831 13.1397C25.1953 13.1397 25.2053 13.1341 25.2053 13.1272C25.2053 13.1204 25.2165 13.1148 25.2303 13.1148C25.244 13.1148 25.2553 13.1091 25.2553 13.1023C25.2553 13.0954 25.2653 13.0898 25.2775 13.0898C25.2897 13.0898 25.3078 13.0785 25.3177 13.0648C25.3276 13.0511 25.3457 13.0398 25.358 13.0398C25.3702 13.0398 25.3802 13.0342 25.3802 13.0273C25.3802 13.0205 25.3914 13.0148 25.4052 13.0148C25.4189 13.0148 25.4301 13.0092 25.4301 13.0023C25.4301 12.9955 25.4414 12.9899 25.4551 12.9899C25.4689 12.9899 25.4801 12.9842 25.4801 12.9774C25.4801 12.9705 25.4901 12.9649 25.5023 12.9649C25.5145 12.9649 25.5326 12.9536 25.5425 12.9399C25.5524 12.9262 25.5705 12.9149 25.5828 12.9149C25.595 12.9149 25.605 12.9093 25.605 12.9024C25.605 12.8955 25.6162 12.8899 25.63 12.8899C25.6437 12.8899 25.655 12.8843 25.655 12.8774C25.655 12.8706 25.665 12.8649 25.6772 12.8649C25.6894 12.8649 25.7075 12.8537 25.7174 12.84C25.7273 12.8262 25.7454 12.815 25.7576 12.815C25.7699 12.815 25.7799 12.8094 25.7799 12.8025C25.7799 12.7956 25.7911 12.79 25.8048 12.79C25.8186 12.79 25.8298 12.7844 25.8298 12.7775C25.8298 12.7706 25.8411 12.765 25.8548 12.765C25.8685 12.765 25.8798 12.7594 25.8798 12.7525C25.8798 12.7457 25.8898 12.74 25.902 12.74C25.9142 12.74 25.9323 12.7288 25.9422 12.7151C25.9521 12.7013 25.9702 12.6901 25.9825 12.6901C25.9947 12.6901 26.0047 12.6845 26.0047 12.6776C26.0047 12.6707 26.0159 12.6651 26.0297 12.6651C26.0434 12.6651 26.0546 12.6595 26.0546 12.6526C26.0546 12.6457 26.0646 12.6401 26.0769 12.6401C26.0891 12.6401 26.1072 12.6289 26.1171 12.6151C26.127 12.6014 26.1451 12.5902 26.1573 12.5902C26.1695 12.5902 26.1795 12.5845 26.1795 12.5777C26.1795 12.5708 26.1908 12.5652 26.2045 12.5652C26.2183 12.5652 26.2295 12.5596 26.2295 12.5527C26.2295 12.5458 26.2407 12.5402 26.2545 12.5402C26.2682 12.5402 26.2795 12.5346 26.2795 12.5277C26.2795 12.5208 26.2895 12.5152 26.3017 12.5152C26.3139 12.5152 26.332 12.504 26.3419 12.4902C26.3518 12.4765 26.3699 12.4653 26.3822 12.4653C26.3944 12.4653 26.4044 12.4596 26.4044 12.4528C26.4044 12.4459 26.4156 12.4403 26.4294 12.4403C26.4431 12.4403 26.4543 12.4347 26.4543 12.4278C26.4543 12.4209 26.4656 12.4153 26.4793 12.4153C26.4931 12.4153 26.5043 12.4097 26.5043 12.4028C26.5043 12.3959 26.5143 12.3903 26.5265 12.3903C26.5387 12.3903 26.5568 12.3791 26.5667 12.3653C26.5766 12.3516 26.5947 12.3404 26.607 12.3404C26.6192 12.3404 26.6292 12.3347 26.6292 12.3279C26.6292 12.321 26.6404 12.3154 26.6542 12.3154C26.6679 12.3154 26.6792 12.3098 26.6792 12.3029C26.6792 12.296 26.6892 12.2904 26.7014 12.2904C26.7136 12.2904 26.7317 12.2792 26.7416 12.2654C26.7515 12.2517 26.7696 12.2404 26.7818 12.2404C26.7941 12.2404 26.8041 12.2348 26.8041 12.2279C26.8041 12.2211 26.8153 12.2155 26.829 12.2155C26.8428 12.2155 26.854 12.2098 26.854 12.203C26.854 12.1961 26.8653 12.1905 26.879 12.1905C26.8927 12.1905 26.904 12.1849 26.904 12.178C26.904 12.1711 26.914 12.1655 26.9262 12.1655C26.9384 12.1655 26.9565 12.1543 26.9664 12.1405C26.9763 12.1268 26.9944 12.1155 27.0067 12.1155C27.0189 12.1155 27.0289 12.1099 27.0289 12.103C27.0289 12.0962 27.0401 12.0906 27.0539 12.0906C27.0676 12.0906 27.0788 12.0849 27.0788 12.0781C27.0788 12.0712 27.0889 12.0656 27.1011 12.0656C27.1133 12.0656 27.1314 12.0543 27.1413 12.0406C27.1512 12.0269 27.1693 12.0156 27.1815 12.0156C27.1937 12.0156 27.2037 12.01 27.2037 12.0031C27.2037 11.9963 27.215 11.9906 27.2287 11.9906C27.2425 11.9906 27.2537 11.985 27.2537 11.9781C27.2537 11.9713 27.2649 11.9657 27.2787 11.9657C27.2924 11.9657 27.3037 11.96 27.3037 11.9532C27.3037 11.9463 27.3137 11.9407 27.3259 11.9407C27.3381 11.9407 27.3562 11.9294 27.3661 11.9157C27.376 11.902 27.3941 11.8907 27.4064 11.8907C27.4186 11.8907 27.4286 11.8851 27.4286 11.8782C27.4286 11.8714 27.4398 11.8657 27.4536 11.8657C27.4673 11.8657 27.4785 11.8601 27.4785 11.8532C27.4785 11.8464 27.4885 11.8407 27.5008 11.8407C27.513 11.8407 27.5311 11.8295 27.541 11.8158C27.5509 11.802 27.569 11.7908 27.5812 11.7908C27.5934 11.7908 27.6034 11.7852 27.6034 11.7783C27.6034 11.7714 27.6147 11.7658 27.6284 11.7658C27.6422 11.7658 27.6534 11.7602 27.6534 11.7533C27.6534 11.7464 27.6646 11.7408 27.6784 11.7408C27.6921 11.7408 27.7034 11.7352 27.7034 11.7283C27.7034 11.7215 27.712 11.7158 27.7227 11.7158C27.7333 11.7158 27.7558 11.702 27.7726 11.6852L27.8033 11.6545V11.0107C27.8033 10.5898 27.799 10.3669 27.7908 10.3669C27.7837 10.3669 27.7783 10.3294 27.7783 10.2795C27.7783 10.2295 27.7729 10.192 27.7658 10.192C27.7589 10.192 27.7533 10.1639 27.7533 10.1296C27.7533 10.0952 27.7477 10.0671 27.7408 10.0671C27.734 10.0671 27.7283 10.0447 27.7283 10.0172C27.7283 9.9897 27.7227 9.96721 27.7158 9.96721C27.709 9.96721 27.7034 9.94473 27.7034 9.91725C27.7034 9.88977 27.6977 9.86729 27.6909 9.86729C27.684 9.86729 27.6784 9.85043 27.6784 9.82982C27.6784 9.80921 27.6728 9.79235 27.6659 9.79235C27.659 9.79235 27.6534 9.77549 27.6534 9.75488C27.6534 9.73427 27.6478 9.71741 27.6409 9.71741C27.634 9.71741 27.6284 9.70617 27.6284 9.69243C27.6284 9.67869 27.6228 9.66745 27.6159 9.66745C27.6091 9.66745 27.6034 9.65059 27.6034 9.62998C27.6034 9.60937 27.5978 9.59251 27.5909 9.59251C27.5841 9.59251 27.5785 9.58126 27.5785 9.56752C27.5785 9.55379 27.5728 9.54254 27.566 9.54254C27.5591 9.54254 27.5535 9.5313 27.5535 9.51756C27.5535 9.50383 27.5479 9.49258 27.541 9.49258C27.5341 9.49258 27.5285 9.48134 27.5285 9.4676C27.5285 9.45386 27.5229 9.44262 27.516 9.44262C27.5091 9.44262 27.5035 9.43138 27.5035 9.41764C27.5035 9.4039 27.4979 9.39266 27.491 9.39266C27.4842 9.39266 27.4785 9.38142 27.4785 9.36768C27.4785 9.35394 27.4729 9.3427 27.466 9.3427C27.4592 9.3427 27.4536 9.33146 27.4536 9.31772C27.4536 9.30398 27.4479 9.29274 27.4411 9.29274C27.4342 9.29274 27.4286 9.28273 27.4286 9.27052C27.4286 9.25829 27.4173 9.24019 27.4036 9.23029C27.3899 9.22038 27.3786 9.20352 27.3786 9.19282C27.3786 9.18211 27.3674 9.16525 27.3536 9.15535C27.3399 9.14544 27.3286 9.12858 27.3286 9.11788C27.3286 9.10717 27.3174 9.09031 27.3037 9.08041C27.2899 9.0705 27.2787 9.05478 27.2787 9.04545C27.2787 9.03612 27.2562 9.00689 27.2287 8.98048C27.2012 8.95408 27.1788 8.92638 27.1788 8.91891C27.1788 8.90103 26.7958 8.51834 26.7779 8.51834C26.7703 8.51834 26.7484 8.50148 26.7291 8.48087C26.7099 8.46027 26.6864 8.4434 26.6769 8.4434C26.6674 8.4434 26.6516 8.43216 26.6417 8.41842C26.6318 8.40468 26.6159 8.39344 26.6065 8.39344C26.597 8.39344 26.5735 8.37658 26.5543 8.35597C26.535 8.33536 26.5115 8.3185 26.502 8.3185C26.4926 8.3185 26.4767 8.30726 26.4668 8.29352C26.4569 8.27978 26.4411 8.26854 26.4316 8.26854C26.4221 8.26854 26.3986 8.25168 26.3794 8.23107C26.3601 8.21046 26.3366 8.1936 26.3272 8.1936C26.3177 8.1936 26.3019 8.18236 26.292 8.16862C26.2821 8.15488 26.2662 8.14364 26.2567 8.14364C26.2473 8.14364 26.2238 8.12678 26.2045 8.10617C26.1853 8.08556 26.1618 8.0687 26.1523 8.0687C26.1429 8.0687 26.127 8.05746 26.1171 8.04372C26.1072 8.02998 26.0913 8.01873 26.0819 8.01873C26.0724 8.01873 26.0489 8.00187 26.0297 7.98126C26.0104 7.96066 25.9869 7.94379 25.9775 7.94379C25.968 7.94379 25.9521 7.93255 25.9422 7.91881C25.9323 7.90507 25.9165 7.89383 25.907 7.89383C25.8976 7.89383 25.874 7.87697 25.8548 7.85636C25.8356 7.83575 25.812 7.81889 25.8026 7.81889C25.7931 7.81889 25.7773 7.80765 25.7674 7.79391C25.7575 7.78017 25.7406 7.76893 25.7299 7.76893C25.7192 7.76893 25.7023 7.75769 25.6924 7.74395C25.6825 7.73021 25.6667 7.71897 25.6572 7.71897C25.6477 7.71897 25.6242 7.70211 25.605 7.6815C25.5857 7.66089 25.5622 7.64403 25.5528 7.64403C25.5433 7.64403 25.5275 7.63279 25.5176 7.61905C25.5077 7.60531 25.4918 7.59407 25.4823 7.59407C25.4729 7.59407 25.4494 7.57721 25.4301 7.5566C25.4109 7.53599 25.3874 7.51913 25.3779 7.51913C25.3685 7.51913 25.3526 7.50788 25.3427 7.49414C25.3328 7.48041 25.3169 7.46916 25.3075 7.46916C25.298 7.46916 25.2745 7.4523 25.2553 7.43169C25.236 7.41109 25.2125 7.39422 25.2031 7.39422C25.1936 7.39422 25.1777 7.38298 25.1678 7.36924C25.1579 7.3555 25.1421 7.34426 25.1326 7.34426C25.1232 7.34426 25.0997 7.3274 25.0804 7.30679C25.0612 7.28618 25.0377 7.26932 25.0282 7.26932C25.0187 7.26932 25.0029 7.25808 24.993 7.24434C24.9831 7.2306 24.9672 7.21936 24.9578 7.21936C24.9483 7.21936 24.9248 7.2025 24.9055 7.18189C24.8863 7.16128 24.8628 7.14442 24.8533 7.14442C24.8439 7.14442 24.828 7.13318 24.8181 7.11944C24.8082 7.1057 24.7913 7.09446 24.7806 7.09446C24.7699 7.09446 24.7531 7.08322 24.7432 7.06948C24.7333 7.05574 24.7174 7.0445 24.7079 7.0445C24.6985 7.0445 24.675 7.02763 24.6557 7.00703C24.6365 6.98642 24.613 6.96955 24.6035 6.96955C24.5941 6.96955 24.5782 6.95831 24.5683 6.94457C24.5584 6.93084 24.5426 6.91959 24.5331 6.91959C24.5236 6.91959 24.5001 6.90273 24.4809 6.88212C24.4616 6.86151 24.4381 6.84465 24.4287 6.84465C24.4192 6.84465 24.4033 6.83341 24.3934 6.81967C24.3835 6.80593 24.3677 6.79469 24.3582 6.79469C24.3488 6.79469 24.3253 6.77783 24.306 6.75722C24.2868 6.73661 24.2633 6.71975 24.2538 6.71975C24.2443 6.71975 24.2285 6.70851 24.2186 6.69477C24.2087 6.68103 24.1928 6.66979 24.1834 6.66979C24.1739 6.66979 24.1504 6.65293 24.1311 6.63232C24.1119 6.61171 24.0884 6.59485 24.0789 6.59485C24.0695 6.59485 24.0536 6.58361 24.0437 6.56987C24.0338 6.55613 24.018 6.54489 24.0085 6.54489C23.999 6.54489 23.9755 6.52802 23.9563 6.50742C23.937 6.48681 23.9135 6.46995 23.9041 6.46995C23.8946 6.46995 23.8788 6.4587 23.8689 6.44496C23.8589 6.43123 23.8421 6.41998 23.8314 6.41998C23.8207 6.41998 23.8038 6.40874 23.7939 6.395C23.784 6.38126 23.7682 6.37002 23.7587 6.37002C23.7492 6.37002 23.7257 6.35316 23.7065 6.33255C23.6872 6.31194 23.6637 6.29508 23.6543 6.29508C23.6448 6.29508 23.629 6.28384 23.619 6.2701C23.6091 6.25636 23.5933 6.24512 23.5838 6.24512C23.5744 6.24512 23.5509 6.22826 23.5316 6.20765C23.5124 6.18704 23.4889 6.17018 23.4794 6.17018C23.4699 6.17018 23.4541 6.15894 23.4442 6.1452C23.4343 6.13146 23.4184 6.12022 23.409 6.12022C23.3995 6.12022 23.376 6.10336 23.3568 6.08275C23.3375 6.06214 23.314 6.04528 23.3045 6.04528C23.2951 6.04528 23.2792 6.03404 23.2693 6.0203C23.2594 6.00656 23.2436 5.99532 23.2341 5.99532C23.2246 5.99532 23.2011 5.97845 23.1819 5.95785C23.1626 5.93724 23.1391 5.92037 23.1297 5.92037C23.1202 5.92037 23.1044 5.90913 23.0945 5.89539C23.0846 5.88165 23.0677 5.87041 23.057 5.87041C23.0463 5.87041 23.0294 5.85917 23.0195 5.84543C23.0096 5.83169 22.9938 5.82045 22.9843 5.82045C22.9748 5.82045 22.9513 5.80359 22.9321 5.78298C22.9128 5.76237 22.8893 5.74551 22.8799 5.74551C22.8704 5.74551 22.8546 5.73427 22.8447 5.72053C22.8347 5.70679 22.8189 5.69555 22.8094 5.69555C22.8 5.69555 22.7765 5.67869 22.7572 5.65808C22.738 5.63747 22.7145 5.62061 22.705 5.62061C22.6955 5.62061 22.6797 5.60937 22.6698 5.59563C22.6599 5.58189 22.644 5.57065 22.6346 5.57065C22.6251 5.57065 22.6016 5.55379 22.5824 5.53318C22.5631 5.51257 22.5396 5.49571 22.5301 5.49571C22.5207 5.49571 22.5048 5.48447 22.4949 5.47073C22.485 5.45699 22.4692 5.44575 22.4597 5.44575C22.4502 5.44575 22.4267 5.42888 22.4075 5.40827C22.3882 5.38767 22.3647 5.3708 22.3553 5.3708C22.3458 5.3708 22.33 5.35956 22.3201 5.34582C22.3102 5.33208 22.2943 5.32084 22.2848 5.32084C22.2754 5.32084 22.2519 5.30398 22.2326 5.28337C22.2134 5.26276 22.1899 5.2459 22.1804 5.2459C22.171 5.2459 22.1551 5.23466 22.1452 5.22092C22.1353 5.20718 22.1184 5.19594 22.1077 5.19594C22.097 5.19594 22.0802 5.1847 22.0703 5.17096C22.0604 5.15722 22.0445 5.14598 22.035 5.14598C22.0256 5.14598 22.0021 5.12912 21.9828 5.10851C21.9636 5.0879 21.9401 5.07104 21.9306 5.07104C21.9211 5.07104 21.9053 5.0598 21.8954 5.04606C21.8855 5.03232 21.8696 5.02108 21.8602 5.02108C21.8507 5.02108 21.8272 5.00422 21.808 4.98361C21.7887 4.963 21.7652 4.94614 21.7558 4.94614C21.7463 4.94614 21.7304 4.93489 21.7205 4.92116C21.7106 4.90742 21.6948 4.89617 21.6853 4.89617C21.6759 4.89617 21.6523 4.87931 21.6331 4.8587C21.6139 4.8381 21.5903 4.82123 21.5809 4.82123C21.5714 4.82123 21.5556 4.80999 21.5457 4.79625C21.5358 4.78251 21.5199 4.77127 21.5104 4.77127C21.501 4.77127 21.4775 4.75441 21.4582 4.7338C21.439 4.71319 21.4155 4.69633 21.406 4.69633C21.3966 4.69633 21.3807 4.68509 21.3708 4.67135C21.3609 4.65761 21.345 4.64637 21.3356 4.64637C21.3261 4.64637 21.3026 4.62951 21.2834 4.6089C21.2641 4.58829 21.2406 4.57143 21.2312 4.57143C21.2217 4.57143 21.2058 4.56019 21.1959 4.54645C21.186 4.53271 21.1692 4.52147 21.1585 4.52147C21.1478 4.52147 21.1309 4.51023 21.121 4.49649C21.1111 4.48275 21.0952 4.47151 21.0858 4.47151C21.0763 4.47151 21.0528 4.45464 21.0336 4.43404C21.0143 4.41343 20.9908 4.39656 20.9814 4.39656C20.9719 4.39656 20.956 4.38532 20.9461 4.37158C20.9362 4.35785 20.9204 4.3466 20.9109 4.3466C20.9015 4.3466 20.878 4.32974 20.8587 4.30913C20.8395 4.28852 20.8159 4.27166 20.8065 4.27166C20.797 4.27166 20.7812 4.26042 20.7713 4.24668C20.7614 4.23294 20.7455 4.2217 20.736 4.2217C20.7266 4.2217 20.7031 4.20484 20.6838 4.18423C20.6646 4.16362 20.6411 4.14676 20.6316 4.14676C20.6222 4.14676 20.6063 4.13552 20.5964 4.12178C20.5865 4.10804 20.5707 4.0968 20.5612 4.0968C20.5517 4.0968 20.5282 4.07994 20.509 4.05933C20.4897 4.03872 20.4662 4.02186 20.4568 4.02186C20.4473 4.02186 20.4314 4.01062 20.4215 3.99688C20.4116 3.98314 20.3958 3.9719 20.3863 3.9719C20.3769 3.9719 20.3534 3.95503 20.3341 3.93443C20.3149 3.91382 20.2914 3.89696 20.2819 3.89696C20.2724 3.89696 20.2566 3.88571 20.2467 3.87197C20.2368 3.85824 20.2199 3.84699 20.2092 3.84699C20.1985 3.84699 20.1816 3.83575 20.1717 3.82201C20.1618 3.80827 20.146 3.79703 20.1365 3.79703C20.1271 3.79703 20.1036 3.78017 20.0843 3.75956C20.0651 3.73895 20.0416 3.72209 20.0321 3.72209C20.0226 3.72209 20.0068 3.71085 19.9969 3.69711C19.987 3.68337 19.9711 3.67213 19.9617 3.67213C19.9522 3.67213 19.9287 3.65527 19.9094 3.63466C19.8902 3.61405 19.8667 3.59719 19.8572 3.59719C19.8478 3.59719 19.8319 3.58595 19.822 3.57221C19.8121 3.55847 19.7963 3.54723 19.7868 3.54723C19.7773 3.54723 19.7538 3.53037 19.7346 3.50976C19.7153 3.48915 19.6918 3.47229 19.6824 3.47229C19.6729 3.47229 19.6571 3.46105 19.6472 3.44731C19.6372 3.43357 19.6214 3.42233 19.6119 3.42233C19.6025 3.42233 19.579 3.40546 19.5597 3.38486C19.5405 3.36425 19.517 3.34738 19.5075 3.34738C19.498 3.34738 19.4822 3.33614 19.4723 3.3224C19.4624 3.30867 19.4465 3.29742 19.4371 3.29742C19.4276 3.29742 19.4041 3.28056 19.3849 3.25995C19.3656 3.23934 19.3421 3.22248 19.3326 3.22248C19.3232 3.22248 19.3073 3.21124 19.2974 3.1975C19.2875 3.18376 19.2707 3.17252 19.26 3.17252C19.2492 3.17252 19.2324 3.16128 19.2225 3.14754C19.2126 3.1338 19.1967 3.12256 19.1873 3.12256C19.1778 3.12256 19.1543 3.1057 19.135 3.08509C19.1158 3.06448 19.0923 3.04762 19.0828 3.04762C19.0734 3.04762 19.0575 3.03638 19.0476 3.02264C19.0377 3.0089 19.0219 2.99766 19.0124 2.99766C19.0029 2.99766 18.9794 2.9808 18.9602 2.96019C18.9409 2.93958 18.9174 2.92272 18.908 2.92272C18.8985 2.92272 18.8827 2.91148 18.8728 2.89774C18.8629 2.884 18.847 2.87276 18.8375 2.87276C18.8281 2.87276 18.8046 2.85589 18.7853 2.83528C18.7661 2.81468 18.7426 2.79781 18.7331 2.79781C18.7236 2.79781 18.7078 2.78657 18.6979 2.77283C18.688 2.75909 18.6721 2.74785 18.6627 2.74785C18.6532 2.74785 18.6297 2.73099 18.6105 2.71038C18.5912 2.68977 18.5677 2.67291 18.5583 2.67291C18.5488 2.67291 18.5329 2.66167 18.523 2.64793C18.5131 2.63419 18.4963 2.62295 18.4856 2.62295C18.4749 2.62295 18.458 2.61171 18.4481 2.59797C18.4382 2.58423 18.4223 2.57299 18.4129 2.57299C18.4034 2.57299 18.3799 2.55613 18.3607 2.53552C18.3414 2.51491 18.3179 2.49805 18.3084 2.49805C18.299 2.49805 18.2831 2.48681 18.2732 2.47307C18.2633 2.45933 18.2475 2.44809 18.238 2.44809C18.2285 2.44809 18.205 2.43123 18.1858 2.41062C18.1665 2.39001 18.143 2.37315 18.1336 2.37315C18.1241 2.37315 18.1083 2.3619 18.0984 2.34817C18.0885 2.33443 18.0726 2.32318 18.0631 2.32318C18.0537 2.32318 18.0302 2.30632 18.0109 2.28571C17.9917 2.26511 17.9682 2.24824 17.9587 2.24824C17.9493 2.24824 17.9334 2.237 17.9235 2.22326C17.9136 2.20952 17.8977 2.19828 17.8883 2.19828C17.8788 2.19828 17.8553 2.18142 17.8361 2.16081C17.8168 2.1402 17.7933 2.12334 17.7839 2.12334C17.7744 2.12334 17.7585 2.1121 17.7486 2.09836C17.7387 2.08462 17.7229 2.07338 17.7134 2.07338C17.704 2.07338 17.6804 2.05652 17.6612 2.03591C17.642 2.0153 17.6184 1.99844 17.609 1.99844C17.5995 1.99844 17.5837 1.9872 17.5738 1.97346C17.5639 1.95972 17.547 1.94848 17.5363 1.94848C17.5256 1.94848 17.5087 1.93724 17.4988 1.9235C17.4889 1.90976 17.4731 1.89852 17.4636 1.89852C17.4542 1.89852 17.4306 1.88165 17.4114 1.86105C17.3921 1.84044 17.3686 1.82358 17.3592 1.82358C17.3497 1.82358 17.3339 1.81233 17.324 1.79859C17.3141 1.78486 17.2982 1.77361 17.2887 1.77361C17.2793 1.77361 17.2558 1.75675 17.2365 1.73614C17.2173 1.71553 17.1938 1.69867 17.1843 1.69867C17.1749 1.69867 17.159 1.68743 17.1491 1.67369C17.1392 1.65995 17.1233 1.64871 17.1139 1.64871C17.1044 1.64871 17.0809 1.63185 17.0617 1.61124C17.0424 1.59063 17.0189 1.57377 17.0095 1.57377C17 1.57377 16.9841 1.56253 16.9742 1.54879C16.9643 1.53505 16.9485 1.52381 16.939 1.52381C16.9296 1.52381 16.9061 1.50695 16.8868 1.48634C16.8676 1.46573 16.8441 1.44887 16.8346 1.44887C16.8251 1.44887 16.8093 1.43763 16.7994 1.42389C16.7895 1.41015 16.7736 1.39891 16.7642 1.39891C16.7547 1.39891 16.7312 1.38205 16.7119 1.36144C16.6927 1.34083 16.6692 1.32397 16.6597 1.32397C16.6503 1.32397 16.6344 1.31272 16.6245 1.29899C16.6146 1.28525 16.5977 1.274 16.587 1.274C16.5763 1.274 16.5595 1.26276 16.5496 1.24902C16.5397 1.23528 16.5238 1.22404 16.5143 1.22404C16.5049 1.22404 16.4814 1.20718 16.4621 1.18657C16.4429 1.16596 16.4194 1.1491 16.4099 1.1491C16.4005 1.1491 16.3846 1.13786 16.3747 1.12412C16.3648 1.11038 16.349 1.09914 16.3395 1.09914C16.33 1.09914 16.3065 1.08228 16.2873 1.06167C16.268 1.04106 16.2445 1.0242 16.2351 1.0242C16.2256 1.0242 16.2097 1.01296 16.1998 0.999219C16.1899 0.98548 16.1741 0.974239 16.1646 0.974239C16.1552 0.974239 16.1317 0.957377 16.1124 0.936768C16.0932 0.916159 16.0697 0.899297 16.0602 0.899297C16.0507 0.899297 16.0349 0.888056 16.025 0.874317C16.0151 0.860578 15.9992 0.849336 15.9898 0.849336C15.9803 0.849336 15.9568 0.832475 15.9375 0.811866C15.9183 0.791257 15.8948 0.774395 15.8853 0.774395C15.8759 0.774395 15.86 0.763154 15.8501 0.749415C15.8402 0.735675 15.8244 0.724434 15.8149 0.724434C15.8054 0.724434 15.7819 0.707572 15.7627 0.686963C15.7434 0.666354 15.7199 0.649493 15.7105 0.649493C15.701 0.649493 15.6852 0.638251 15.6753 0.624512C15.6653 0.610773 15.6485 0.599532 15.6378 0.599532C15.6271 0.599532 15.6102 0.58829 15.6003 0.574551C15.5904 0.560812 15.5746 0.549571 15.5651 0.549571C15.5556 0.549571 15.5321 0.532709 15.5129 0.5121C15.4936 0.491491 15.4701 0.474629 15.4607 0.474629C15.4512 0.474629 15.4354 0.463388 15.4254 0.449649C15.4155 0.435909 15.3974 0.424668 15.3852 0.424668C15.373 0.424668 15.363 0.419048 15.363 0.412178C15.363 0.405308 15.353 0.399688 15.3408 0.399688C15.3285 0.399688 15.3105 0.388447 15.3005 0.374707C15.2906 0.360968 15.2725 0.349727 15.2603 0.349727C15.2481 0.349727 15.2381 0.344106 15.2381 0.337237C15.2381 0.330367 15.2269 0.324746 15.2131 0.324746C15.1994 0.324746 15.1881 0.319126 15.1881 0.312256C15.1881 0.305386 15.1769 0.299766 15.1632 0.299766C15.1494 0.299766 15.1382 0.294145 15.1382 0.287276C15.1382 0.280406 15.1269 0.274785 15.1132 0.274785C15.0995 0.274785 15.0882 0.269165 15.0882 0.262295C15.0882 0.255425 15.077 0.249805 15.0632 0.249805C15.0495 0.249805 15.0383 0.244184 15.0383 0.237315C15.0383 0.230445 15.0214 0.224824 15.0008 0.224824C14.9802 0.224824 14.9633 0.219204 14.9633 0.212334C14.9633 0.205464 14.9521 0.199844 14.9383 0.199844C14.9246 0.199844 14.9133 0.194223 14.9133 0.187354C14.9133 0.180484 14.8965 0.174863 14.8759 0.174863C14.8553 0.174863 14.8384 0.169243 14.8384 0.162373C14.8384 0.155504 14.8215 0.149883 14.8009 0.149883C14.7803 0.149883 14.7635 0.144262 14.7635 0.137393C14.7635 0.130523 14.7466 0.124902 14.726 0.124902C14.7054 0.124902 14.6885 0.119282 14.6885 0.112412C14.6885 0.105543 14.666 0.0999219 14.6386 0.0999219C14.6111 0.0999219 14.5886 0.0943013 14.5886 0.0874317C14.5886 0.0805621 14.5661 0.0749414 14.5386 0.0749414C14.5112 0.0749414 14.4887 0.0693208 14.4887 0.0624512C14.4887 0.0555066 14.4554 0.049961 14.4137 0.049961C14.3721 0.049961 14.3388 0.0444153 14.3388 0.0374707C14.3388 0.030064 14.293 0.0249805 14.2264 0.0249805C14.1598 0.0249805 14.114 0.019897 14.114 0.0124902C14.114 0.00465886 14.0349 0 13.9016 0C13.7684 0 13.6893 0.00465886 13.6893 0.0124902Z" fill="url(#paint0_radial_15064_383450)"/>
<defs>
<radialGradient id="paint0_radial_15064_383450" cx="0" cy="0" r="1" gradientUnits="userSpaceOnUse" gradientTransform="translate(6.11672 29.76) rotate(-54.7801) scale(31.3363 30.1667)">
<stop stop-color="#EC534A"/>
<stop offset="1" stop-color="#EC6E47"/>
</radialGradient>
</defs>
</svg>
