<svg width="56" height="19" viewBox="0 0 56 19" fill="none" xmlns="http://www.w3.org/2000/svg">
<path fill-rule="evenodd" clip-rule="evenodd" d="M35.1996 0.706295C35.1945 0.714484 35.1288 0.721319 35.0535 0.721483C34.9783 0.721632 34.843 0.731637 34.753 0.743682C34.6629 0.755742 34.5611 0.765659 34.5268 0.765733C34.4925 0.765793 34.4608 0.771734 34.4563 0.77894C34.4519 0.786132 34.4096 0.795585 34.3624 0.799948C34.2477 0.810549 34.0752 0.840015 34.0384 0.855336C34.022 0.862141 33.9852 0.871655 33.9565 0.876494C33.8282 0.898143 33.7198 0.923097 33.7096 0.933355C33.7035 0.939505 33.6765 0.944522 33.6497 0.944522C33.6229 0.944522 33.5971 0.950835 33.5923 0.958548C33.5875 0.966261 33.5535 0.977085 33.5168 0.982608C33.48 0.988117 33.4463 0.998555 33.4418 1.00579C33.4374 1.01304 33.4144 1.01897 33.3908 1.01897C33.3672 1.01897 33.344 1.02528 33.3392 1.03299C33.3344 1.04071 33.3006 1.05153 33.2639 1.05703C33.2273 1.06252 33.1973 1.07296 33.1973 1.08022C33.1973 1.08747 33.1805 1.09341 33.16 1.09341C33.1396 1.09341 33.1228 1.10011 33.1228 1.1083C33.1228 1.11649 33.1088 1.12319 33.0916 1.12319C33.0744 1.12319 33.0392 1.13245 33.0134 1.14375C32.9876 1.15507 32.8962 1.19259 32.8102 1.22715C32.7242 1.26169 32.6475 1.296 32.6397 1.30335C32.632 1.31072 32.6135 1.31675 32.5988 1.31675C32.5841 1.31675 32.572 1.32345 32.572 1.33164C32.572 1.33983 32.5622 1.34653 32.5503 1.34653C32.5303 1.34653 32.2914 1.46289 32.2743 1.48095C32.2702 1.48527 32.2367 1.50182 32.1998 1.51776C32.163 1.53369 32.1295 1.55024 32.1254 1.55456C32.1113 1.56938 32.0584 1.60051 32.0323 1.60926C32.018 1.61407 32.0063 1.62393 32.0063 1.63117C32.0063 1.63839 31.9994 1.64431 31.991 1.64431C31.9721 1.64431 31.7774 1.76554 31.7706 1.78155C31.7678 1.78796 31.7561 1.79321 31.7445 1.79321C31.7329 1.79321 31.7234 1.79846 31.7234 1.80488C31.7234 1.81131 31.7017 1.82922 31.6751 1.84471C31.6485 1.86019 31.6233 1.87715 31.6192 1.88242C31.6151 1.88768 31.5716 1.92164 31.5225 1.95789C31.4733 1.99415 31.4298 2.02744 31.4257 2.03186C31.4216 2.03629 31.3982 2.05533 31.3736 2.07419C31.21 2.19983 30.8677 2.53929 30.7605 2.68231C30.7374 2.71307 30.7035 2.75251 30.6851 2.76995C30.6666 2.78737 30.6516 2.80637 30.6516 2.81216C30.6516 2.81795 30.6432 2.83202 30.633 2.84344C30.5929 2.88811 30.5771 2.909 30.5771 2.91735C30.5771 2.92216 30.5604 2.94415 30.5399 2.96622C30.5194 2.9883 30.5027 3.01482 30.5027 3.02514C30.5027 3.03545 30.4971 3.0439 30.4901 3.0439C30.4833 3.0439 30.465 3.06735 30.4496 3.09601C30.4341 3.12467 30.417 3.14812 30.4116 3.14812C30.4062 3.14812 30.3979 3.16332 30.3932 3.18192C30.3886 3.2005 30.3728 3.22937 30.3581 3.24608C30.3236 3.28544 30.2794 3.36835 30.2794 3.39376C30.2794 3.40469 30.2744 3.41587 30.2682 3.41861C30.2535 3.42518 30.1305 3.67269 30.1305 3.69588C30.1305 3.70579 30.1238 3.71391 30.1156 3.71391C30.1074 3.71391 30.1007 3.7232 30.1007 3.73454C30.1007 3.74589 30.0907 3.77436 30.0785 3.79782C30.0663 3.82127 30.0562 3.8522 30.0562 3.86652C30.0561 3.88085 30.0494 3.89258 30.0412 3.89258C30.033 3.89258 30.0263 3.90799 30.0263 3.92682C30.0263 3.94566 30.021 3.96744 30.0145 3.97521C30.008 3.983 29.9905 4.02956 29.9755 4.07869C29.9606 4.12783 29.9426 4.18143 29.9355 4.19781C29.9195 4.23491 29.8921 4.34469 29.8817 4.4137C29.8774 4.44236 29.8687 4.47251 29.8624 4.4807C29.8561 4.48889 29.8461 4.53914 29.8402 4.59237C29.8343 4.6456 29.8241 4.69585 29.8177 4.70404C29.8112 4.71223 29.8024 4.75913 29.7981 4.80826C29.7939 4.8574 29.7835 4.9646 29.7751 5.04649C29.7455 5.33436 29.7586 5.88421 29.8018 6.17062C29.8098 6.22385 29.8241 6.31765 29.8334 6.37907C29.8428 6.44049 29.8565 6.49711 29.864 6.50488C29.8714 6.51265 29.8774 6.54074 29.8774 6.56728C29.8774 6.59383 29.8833 6.61913 29.8904 6.62353C29.8975 6.62793 29.9077 6.6649 29.9131 6.70568C29.9185 6.74648 29.9295 6.78388 29.9374 6.78879C29.9454 6.7937 29.9519 6.81742 29.9519 6.84151C29.9519 6.8656 29.9569 6.88536 29.963 6.88544C29.9692 6.8855 29.9872 6.92721 30.0031 6.97814C30.0305 7.06606 30.0558 7.12902 30.0868 7.1866C30.0945 7.20082 30.1007 7.2226 30.1007 7.23499C30.1007 7.24739 30.1074 7.25753 30.1156 7.25753C30.1238 7.25753 30.1305 7.26704 30.1305 7.27866C30.1305 7.29818 30.173 7.38932 30.1901 7.40641C30.1942 7.41052 30.2109 7.44067 30.2271 7.47342C30.2434 7.50618 30.2602 7.53633 30.2645 7.54043C30.2688 7.54452 30.2854 7.573 30.3015 7.6037C30.3176 7.63441 30.3352 7.65954 30.3406 7.65954C30.346 7.65954 30.3543 7.67126 30.3591 7.6856C30.3703 7.71895 30.3972 7.75973 30.4394 7.80749C30.4579 7.82831 30.4729 7.85133 30.4729 7.85864C30.4729 7.86596 30.4848 7.88277 30.4994 7.89602C30.5139 7.90926 30.5364 7.93685 30.5494 7.95732C30.6194 8.06752 31.0173 8.46653 31.1652 8.57481C31.1979 8.59878 31.2389 8.63381 31.2562 8.65265C31.2736 8.67148 31.2924 8.68689 31.2982 8.68689C31.309 8.68689 31.4036 8.75492 31.4379 8.78739C31.4487 8.79764 31.4672 8.80601 31.4789 8.80601C31.4906 8.80601 31.5001 8.81165 31.5001 8.81856C31.5001 8.82545 31.5236 8.84372 31.5522 8.85916C31.5809 8.8746 31.6043 8.89239 31.6043 8.89872C31.6043 8.90505 31.6144 8.91023 31.6267 8.91023C31.639 8.91023 31.649 8.91648 31.649 8.92412C31.649 8.93176 31.6641 8.9427 31.6825 8.94845C31.7009 8.95421 31.7193 8.96303 31.7234 8.96807C31.7301 8.97623 31.7726 9.00107 31.8649 9.05058C31.8812 9.05937 31.898 9.06992 31.9021 9.07401C31.9101 9.08198 31.9683 9.11403 32.0882 9.17643C32.1291 9.19775 32.1648 9.22028 32.1676 9.22649C32.1703 9.2327 32.1827 9.23779 32.195 9.23779C32.2204 9.23779 32.3088 9.28389 32.3164 9.30107C32.3192 9.3072 32.3315 9.31224 32.3439 9.31224C32.3563 9.31224 32.3842 9.32168 32.4059 9.33322C32.474 9.36934 32.6168 9.43135 32.632 9.43135C32.6399 9.43135 32.6464 9.43805 32.6464 9.44624C32.6464 9.45443 32.6628 9.46113 32.6828 9.46113C32.7028 9.46113 32.7229 9.46731 32.7276 9.47487C32.7323 9.48243 32.7561 9.49302 32.7806 9.4984C32.8051 9.50377 32.8251 9.51433 32.8251 9.52186C32.8251 9.52941 32.8374 9.53557 32.8526 9.53557C32.8776 9.53557 32.9409 9.56032 33.0072 9.59608C33.0215 9.60375 33.0466 9.61002 33.0631 9.61002C33.0796 9.61002 33.0931 9.61505 33.0932 9.62119C33.0932 9.62732 33.1351 9.6451 33.1862 9.66069C33.2373 9.67626 33.2858 9.69392 33.294 9.69991C33.3022 9.70591 33.3321 9.71578 33.3605 9.72187C33.3889 9.72794 33.4241 9.73877 33.4387 9.74591C33.4533 9.75306 33.4778 9.76515 33.4932 9.77279C33.5085 9.78041 33.5454 9.79122 33.5752 9.79681C33.605 9.80239 33.633 9.8129 33.6375 9.82015C33.6419 9.82742 33.6587 9.83336 33.6747 9.83336C33.6907 9.83336 33.7155 9.83922 33.7297 9.8464C33.7439 9.85356 33.7957 9.87109 33.8448 9.88535C33.894 9.8996 33.9476 9.91625 33.9639 9.92233C33.9803 9.92842 34.0339 9.94519 34.083 9.95959C34.1322 9.97399 34.1891 9.99074 34.2096 9.9968C34.23 10.0029 34.287 10.0195 34.3361 10.0338C34.3852 10.048 34.4371 10.0657 34.4513 10.0731C34.4655 10.0804 34.4898 10.0865 34.5053 10.0865C34.5208 10.0865 34.5575 10.0965 34.5869 10.1088C34.6163 10.1211 34.6573 10.1311 34.678 10.1311C34.6988 10.1311 34.7157 10.1371 34.7157 10.1445C34.7157 10.1518 34.7409 10.1612 34.7716 10.1654C34.8305 10.1735 34.9412 10.2016 34.9911 10.2213C35.0075 10.2277 35.0678 10.2441 35.1251 10.2578C35.1824 10.2714 35.241 10.2887 35.2552 10.2962C35.2694 10.3037 35.2946 10.3098 35.3112 10.3098C35.3278 10.3098 35.353 10.3162 35.3672 10.3241C35.3815 10.332 35.4232 10.3449 35.4601 10.3529C35.4969 10.3609 35.5539 10.375 35.5866 10.3843C35.6194 10.3935 35.6763 10.4076 35.7132 10.4156C35.75 10.4236 35.7918 10.4366 35.806 10.4444C35.8202 10.4523 35.8483 10.4587 35.8684 10.4587C35.8885 10.4587 35.9087 10.4648 35.9133 10.4722C35.9179 10.4796 35.9551 10.4903 35.996 10.4959C36.0369 10.5016 36.0742 10.5122 36.0788 10.5197C36.0834 10.5271 36.1057 10.5331 36.1284 10.5331C36.1511 10.5331 36.1747 10.5382 36.1809 10.5443C36.1928 10.5563 36.3151 10.5899 36.3942 10.6029C36.4209 10.6073 36.4426 10.6152 36.4426 10.6206C36.4426 10.626 36.4996 10.6434 36.5692 10.6593C36.6388 10.6752 36.6957 10.6935 36.6957 10.7C36.6957 10.7065 36.707 10.7118 36.7209 10.7118C36.7467 10.7118 36.9567 10.7733 37.057 10.8103C37.0879 10.8216 37.1264 10.8309 37.1426 10.8309C37.1588 10.8309 37.1721 10.8376 37.1721 10.8458C37.1721 10.854 37.1838 10.8609 37.1982 10.8612C37.2283 10.8618 37.3765 10.9112 37.3907 10.9255C37.396 10.9308 37.4119 10.9352 37.426 10.9352C37.44 10.9352 37.4707 10.9452 37.4942 10.9574C37.5176 10.9696 37.5485 10.9797 37.5629 10.9797C37.5772 10.9798 37.5889 10.9865 37.5889 10.9947C37.5889 11.0029 37.6043 11.0096 37.6232 11.0096C37.642 11.0096 37.6638 11.0151 37.6716 11.0218C37.6793 11.0285 37.7359 11.0528 37.7974 11.0757C37.9103 11.1179 38.0378 11.1724 38.1149 11.2116C38.1381 11.2233 38.1666 11.2329 38.1782 11.2329C38.1898 11.2329 38.1993 11.2391 38.1993 11.2467C38.1993 11.2542 38.2194 11.2648 38.244 11.2702C38.2685 11.2756 38.2886 11.2861 38.2886 11.2937C38.2886 11.3012 38.3015 11.3074 38.3172 11.3074C38.3329 11.3074 38.3479 11.3124 38.3507 11.3186C38.3578 11.3347 38.4511 11.3818 38.4759 11.3818C38.4875 11.3818 38.497 11.3878 38.497 11.3951C38.497 11.4024 38.5138 11.4126 38.5343 11.4177C38.5547 11.4229 38.5715 11.4336 38.5715 11.4417C38.5715 11.4497 38.5815 11.4563 38.5938 11.4563C38.6061 11.4563 38.6162 11.4613 38.6163 11.4674C38.6164 11.4736 38.6465 11.4918 38.6833 11.508C38.72 11.5242 38.7501 11.5415 38.7501 11.5466C38.7501 11.5517 38.7736 11.5684 38.8022 11.5839C38.8309 11.5993 38.8543 11.6171 38.8543 11.6234C38.8543 11.6298 38.8608 11.6349 38.8688 11.6349C38.8891 11.6349 39.0181 11.7275 39.0181 11.742C39.0181 11.7487 39.0251 11.7541 39.0336 11.7541C39.0422 11.7541 39.0653 11.7691 39.085 11.7876C39.1357 11.8349 39.1646 11.8583 39.1726 11.8583C39.1826 11.8583 39.42 12.0944 39.42 12.1043C39.42 12.1137 39.4413 12.1404 39.4908 12.1933C39.5092 12.213 39.5243 12.2362 39.5243 12.2447C39.5243 12.2533 39.5304 12.2603 39.5379 12.2603C39.5454 12.2603 39.5669 12.2854 39.5857 12.3161C39.6044 12.3468 39.6251 12.3742 39.6315 12.3769C39.638 12.3797 39.6433 12.3947 39.6433 12.4104C39.6433 12.4261 39.6493 12.439 39.6565 12.439C39.6637 12.439 39.6738 12.4507 39.6788 12.465C39.6838 12.4794 39.711 12.5313 39.7391 12.5804C39.7673 12.6295 39.7907 12.6848 39.7913 12.7032C39.7918 12.7217 39.7973 12.7367 39.8036 12.7367C39.8181 12.7367 39.8667 12.8723 39.8667 12.9128C39.8667 12.9297 39.8726 12.9471 39.8799 12.9516C39.8936 12.9601 39.8993 12.9859 39.9262 13.1611C39.9349 13.2184 39.9486 13.2939 39.9565 13.3288C39.9752 13.4115 39.9751 13.8346 39.9563 13.9165C39.9421 13.9787 39.9176 14.1181 39.9014 14.2295C39.8969 14.2602 39.8873 14.2891 39.88 14.2936C39.8726 14.2982 39.8667 14.3181 39.8667 14.3379C39.8667 14.3694 39.8512 14.4199 39.8075 14.5309C39.8011 14.5473 39.7841 14.5908 39.7699 14.6277C39.7326 14.7241 39.6157 14.9574 39.5799 15.0066C39.5509 15.0464 39.4945 15.1359 39.4945 15.142C39.4945 15.1457 39.4828 15.1608 39.4684 15.1755C39.4541 15.1902 39.429 15.2211 39.4126 15.2441C39.3962 15.2672 39.3745 15.2949 39.3642 15.3057C39.354 15.3165 39.3456 15.3299 39.3456 15.3354C39.3456 15.3488 39.0345 15.6543 38.9823 15.6922C38.9419 15.7216 38.9093 15.7479 38.843 15.8048C38.8246 15.8207 38.8044 15.8337 38.7982 15.8337C38.7921 15.8337 38.7702 15.8488 38.7496 15.8672C38.7162 15.897 38.679 15.9203 38.5789 15.974C38.5625 15.9828 38.5458 15.9942 38.5417 15.9992C38.5376 16.0042 38.5192 16.013 38.5008 16.0188C38.4823 16.0246 38.4673 16.0355 38.4673 16.0431C38.4673 16.0508 38.4578 16.057 38.4461 16.057C38.4213 16.057 38.3281 16.1041 38.3209 16.1203C38.3181 16.1264 38.3077 16.1315 38.2976 16.1315C38.2812 16.1315 38.1536 16.1867 38.0946 16.2193C38.0821 16.2262 38.0503 16.2366 38.0241 16.2424C37.9978 16.2482 37.9725 16.2591 37.9678 16.2666C37.9632 16.2742 37.9441 16.2804 37.9255 16.2804C37.9069 16.2804 37.8873 16.2847 37.882 16.29C37.8659 16.3061 37.7176 16.3538 37.682 16.3543C37.6635 16.3546 37.6485 16.3601 37.6485 16.3665C37.6485 16.3783 37.5283 16.4084 37.4177 16.4243C37.385 16.429 37.3548 16.4373 37.3507 16.4428C37.3414 16.4552 37.1484 16.49 37.0344 16.4999C36.9873 16.504 36.9488 16.5122 36.9488 16.5183C36.9488 16.5243 36.8935 16.5336 36.826 16.5388C36.7584 16.5441 36.6462 16.5546 36.5766 16.5623C36.4077 16.581 35.4467 16.5806 35.2591 16.5618C35.1772 16.5536 35.0617 16.5432 35.0023 16.5386C34.9429 16.534 34.8944 16.5243 34.8944 16.517C34.8944 16.5097 34.8589 16.5037 34.8156 16.5037C34.7723 16.5037 34.6983 16.4937 34.6511 16.4814C34.604 16.4691 34.5427 16.459 34.5149 16.459C34.4871 16.459 34.4608 16.4532 34.4564 16.4461C34.452 16.439 34.4198 16.4292 34.3848 16.4244C34.3499 16.4196 34.281 16.4059 34.2319 16.394C34.0577 16.3519 33.8891 16.3075 33.8597 16.296C33.8434 16.2897 33.7931 16.2729 33.7481 16.2588C33.703 16.2447 33.6528 16.2276 33.6364 16.2209C33.62 16.2141 33.5648 16.1963 33.5137 16.1812C33.4626 16.1661 33.4208 16.1488 33.4207 16.1426C33.4206 16.1365 33.4038 16.1315 33.3833 16.1315C33.3629 16.1315 33.3461 16.1256 33.3461 16.1185C33.3461 16.1113 33.3193 16.1012 33.2866 16.096C33.2538 16.0907 33.227 16.0798 33.227 16.0717C33.227 16.0637 33.2103 16.057 33.1898 16.057C33.1693 16.057 33.1526 16.0511 33.1526 16.0438C33.1526 16.0365 33.1291 16.0262 33.1005 16.0208C33.0718 16.0154 33.0484 16.0046 33.0484 15.9968C33.0484 15.989 33.0316 15.9826 33.0112 15.9826C32.9907 15.9826 32.9739 15.9774 32.9739 15.971C32.9739 15.9646 32.9405 15.9464 32.8995 15.9305C32.8586 15.9146 32.8251 15.8978 32.8251 15.8933C32.8251 15.8887 32.7916 15.8719 32.7506 15.856C32.7097 15.8401 32.6762 15.8219 32.6762 15.8155C32.6762 15.8091 32.6667 15.8039 32.6551 15.8039C32.6346 15.8039 32.5425 15.7603 32.5274 15.7435C32.5232 15.739 32.4976 15.7262 32.4702 15.7151C32.4429 15.7041 32.4125 15.6877 32.4026 15.6787C32.3927 15.6698 32.3614 15.6499 32.3331 15.6345C32.2153 15.5704 32.1473 15.5309 32.1403 15.5223C32.1362 15.5174 32.1077 15.5001 32.077 15.484C32.0463 15.4679 32.0212 15.4495 32.0212 15.4432C32.0212 15.4369 32.0111 15.4317 31.9988 15.4317C31.9866 15.4317 31.9765 15.4251 31.9765 15.4171C31.9765 15.4091 31.9598 15.3983 31.9393 15.3931C31.9188 15.388 31.9021 15.3789 31.9021 15.3729C31.9021 15.3668 31.8786 15.3493 31.85 15.3339C31.8213 15.3184 31.7979 15.3006 31.7979 15.2943C31.7979 15.288 31.7907 15.2828 31.7819 15.2828C31.7731 15.2828 31.7566 15.2744 31.7452 15.2642C31.696 15.22 31.6791 15.2083 31.6645 15.2083C31.656 15.2083 31.649 15.2031 31.649 15.1967C31.649 15.1902 31.6272 15.1722 31.6006 15.1566C31.574 15.1409 31.545 15.1211 31.5362 15.1124C31.5274 15.1038 31.4984 15.0799 31.4717 15.0595C31.445 15.039 31.4141 15.0139 31.4031 15.0036C31.3922 14.9934 31.3788 14.985 31.3734 14.985C31.3681 14.985 31.3417 14.9624 31.315 14.9349C31.2882 14.9073 31.2587 14.8822 31.2494 14.879C31.2205 14.8693 31.0606 14.7208 30.7662 14.4304C30.6105 14.2768 30.4787 14.1512 30.4733 14.1512C30.4612 14.1512 30.4263 14.1919 30.3389 14.3079C30.3021 14.3568 30.2569 14.4135 30.2385 14.4339C30.22 14.4543 30.205 14.4766 30.205 14.4835C30.205 14.4903 30.1865 14.5144 30.1639 14.537C30.1413 14.5596 30.1062 14.6026 30.0857 14.6326C30.0653 14.6625 30.0436 14.6871 30.0375 14.6871C30.0313 14.6872 30.0263 14.6967 30.0263 14.7083C30.0263 14.7199 30.0212 14.7316 30.015 14.7344C30.0088 14.7371 29.9804 14.7695 29.9519 14.8063C29.9234 14.8432 29.8883 14.8863 29.8739 14.9022C29.8595 14.9181 29.8477 14.9358 29.8477 14.9416C29.8477 14.951 29.8167 14.9885 29.7307 15.0832C29.7151 15.1003 29.6949 15.1283 29.6858 15.1453C29.6767 15.1623 29.6608 15.1853 29.6505 15.1964C29.6402 15.2075 29.6086 15.2465 29.5803 15.2832C29.5519 15.3198 29.5234 15.352 29.517 15.3548C29.5105 15.3575 29.5053 15.3692 29.5053 15.3808C29.5053 15.3924 29.5002 15.402 29.4941 15.402C29.488 15.4021 29.4662 15.4269 29.4457 15.4571C29.4252 15.4874 29.3901 15.5312 29.3676 15.5543C29.3451 15.5775 29.3266 15.6014 29.3266 15.6073C29.3266 15.6132 29.3099 15.6362 29.2894 15.6583C29.2689 15.6803 29.2522 15.7054 29.2522 15.7139C29.2522 15.7225 29.2462 15.7295 29.2389 15.7295C29.2316 15.7295 29.2218 15.7395 29.2171 15.7517C29.208 15.7752 29.7073 16.2878 29.8626 16.4144C29.9076 16.4511 29.9661 16.503 29.9925 16.5297C30.019 16.5563 30.0446 16.5782 30.0494 16.5782C30.0543 16.5782 30.0667 16.5865 30.077 16.5968C30.0874 16.607 30.1234 16.6378 30.1571 16.6651C30.1908 16.6925 30.2332 16.7277 30.2512 16.7433C30.2692 16.7589 30.288 16.7717 30.2928 16.7717C30.2977 16.7718 30.3252 16.7919 30.3538 16.8165C30.3825 16.8411 30.4177 16.865 30.432 16.8696C30.4463 16.8742 30.458 16.8842 30.458 16.8918C30.458 16.8995 30.465 16.9057 30.4736 16.9057C30.4821 16.9057 30.5072 16.9225 30.5292 16.9429C30.5513 16.9634 30.575 16.9802 30.5818 16.9802C30.5886 16.9802 30.6035 16.9885 30.6149 16.9988C30.6611 17.0402 30.6806 17.0546 30.6905 17.0546C30.6962 17.0546 30.7228 17.0714 30.7497 17.0918C30.7765 17.1123 30.8056 17.1291 30.8143 17.1291C30.8231 17.1291 30.8302 17.1342 30.8302 17.1406C30.8302 17.1469 30.8553 17.1652 30.886 17.1814C30.9168 17.1975 30.9452 17.2146 30.9493 17.2194C30.9534 17.2241 30.9801 17.241 31.0086 17.2567C31.0371 17.2725 31.069 17.2934 31.0795 17.3031C31.0899 17.3128 31.1219 17.3293 31.1504 17.3396C31.179 17.3499 31.2024 17.363 31.2024 17.3687C31.2024 17.3743 31.2191 17.3832 31.2396 17.3883C31.2601 17.3934 31.2768 17.4042 31.2768 17.4122C31.2768 17.4203 31.2869 17.4268 31.2992 17.4268C31.3114 17.4268 31.3215 17.4335 31.3215 17.4417C31.3215 17.4499 31.331 17.4566 31.3426 17.4566C31.3675 17.4566 31.4607 17.5037 31.4679 17.5199C31.4706 17.526 31.4818 17.5311 31.4927 17.5311C31.5166 17.5311 31.6097 17.5786 31.6167 17.5943C31.6195 17.6005 31.629 17.6055 31.6379 17.6055C31.6468 17.6055 31.6948 17.6248 31.7446 17.6483C31.8661 17.7058 32.0287 17.778 32.1105 17.8109C32.131 17.8191 32.1722 17.8365 32.2021 17.8497C32.232 17.8628 32.2671 17.8735 32.2802 17.8735C32.2933 17.8735 32.304 17.8802 32.304 17.8884C32.304 17.8966 32.3204 17.9033 32.3404 17.9033C32.3604 17.9033 32.3808 17.91 32.3859 17.9182C32.391 17.9264 32.4064 17.9331 32.4203 17.9332C32.4341 17.9332 32.4646 17.9433 32.4881 17.9555C32.5116 17.9677 32.543 17.9777 32.5579 17.9777C32.5729 17.9777 32.5889 17.9839 32.5935 17.9913C32.5982 17.9988 32.6287 18.0094 32.6613 18.015C32.694 18.0205 32.7245 18.0311 32.7291 18.0386C32.7337 18.0461 32.7572 18.0522 32.7813 18.0522C32.8054 18.0522 32.8251 18.058 32.8251 18.0652C32.8251 18.0723 32.8532 18.0827 32.8876 18.0882C32.922 18.0936 32.9572 18.1037 32.9658 18.1104C32.9744 18.1171 32.9981 18.1265 33.0186 18.1312C33.0391 18.1359 33.0994 18.1507 33.1526 18.164C33.2058 18.1774 33.2695 18.1921 33.294 18.1967C33.3186 18.2014 33.342 18.2095 33.3461 18.2149C33.3535 18.2244 33.5083 18.2565 33.6178 18.2712C33.6485 18.2753 33.6736 18.2846 33.6736 18.292C33.6736 18.2993 33.6988 18.3055 33.7295 18.3058C33.7602 18.3061 33.8255 18.3161 33.8746 18.3279C33.9237 18.3398 33.9887 18.3496 34.0189 18.3497C34.0491 18.3499 34.078 18.3567 34.083 18.3649C34.0881 18.373 34.1203 18.3797 34.1546 18.3797C34.1889 18.3797 34.2695 18.3898 34.3337 18.4021C34.3979 18.4144 34.4896 18.4244 34.5375 18.4244C34.5854 18.4244 34.6282 18.4302 34.6326 18.4373C34.637 18.4444 34.7094 18.4544 34.7935 18.4595C34.8777 18.4646 35.0403 18.4751 35.1549 18.4829C35.4259 18.5014 36.2391 18.5009 36.5245 18.4821C36.6473 18.474 36.8115 18.4639 36.8892 18.4595C36.967 18.4552 37.037 18.4455 37.0448 18.438C37.0526 18.4305 37.0961 18.4242 37.1416 18.4239C37.187 18.4236 37.2778 18.4137 37.3433 18.4019C37.4088 18.39 37.4871 18.3802 37.5173 18.38C37.5476 18.3799 37.5764 18.373 37.5815 18.3649C37.5866 18.3567 37.6157 18.35 37.6462 18.35C37.6768 18.35 37.7404 18.3399 37.7875 18.3276C37.8347 18.3153 37.8926 18.3053 37.9163 18.3053C37.94 18.3053 37.9635 18.2986 37.9686 18.2904C37.9736 18.2822 37.9924 18.2756 38.0104 18.2756C38.0459 18.2758 38.2331 18.2338 38.2812 18.215C38.2976 18.2086 38.3277 18.1997 38.3482 18.1952C38.4859 18.1653 38.5417 18.149 38.5417 18.1386C38.5417 18.132 38.5614 18.1266 38.5855 18.1266C38.6096 18.1266 38.6331 18.1205 38.6377 18.113C38.6423 18.1056 38.6728 18.0949 38.7055 18.0894C38.7381 18.0839 38.7686 18.0732 38.7733 18.0658C38.7779 18.0583 38.7976 18.0522 38.8171 18.0522C38.8366 18.0522 38.8564 18.0461 38.861 18.0386C38.8656 18.0311 38.8961 18.0205 38.9288 18.0149C38.9615 18.0094 38.9883 17.9988 38.9883 17.9913C38.9883 17.9838 39.0013 17.9777 39.0172 17.9777C39.0331 17.9777 39.0498 17.9718 39.0543 17.9645C39.0587 17.9573 39.0859 17.9469 39.1147 17.9415C39.1434 17.9361 39.167 17.9253 39.167 17.9175C39.167 17.9097 39.1837 17.9033 39.2042 17.9033C39.2246 17.9033 39.2414 17.8973 39.2414 17.8901C39.2414 17.8828 39.2648 17.8724 39.2935 17.8671C39.3222 17.8617 39.3456 17.8509 39.3456 17.8431C39.3456 17.8352 39.3553 17.8288 39.3671 17.8288C39.379 17.8288 39.4202 17.8121 39.4587 17.7916C39.4972 17.7711 39.5377 17.7544 39.5488 17.7544C39.5599 17.7544 39.5689 17.7484 39.5689 17.7411C39.5689 17.7338 39.5857 17.7236 39.6061 17.7185C39.6266 17.7134 39.6433 17.7026 39.6433 17.6946C39.6433 17.6865 39.6535 17.68 39.666 17.68C39.6784 17.68 39.7151 17.6632 39.7476 17.6427C39.78 17.6223 39.8133 17.6055 39.8217 17.6055C39.83 17.6055 39.8369 17.5998 39.8369 17.5929C39.8369 17.5859 39.8653 17.5676 39.9002 17.5522C39.935 17.5368 39.9719 17.516 39.9823 17.5061C39.9927 17.4961 40.0278 17.473 40.0604 17.4547C40.0931 17.4363 40.1197 17.4159 40.1197 17.4092C40.1197 17.4025 40.1287 17.3971 40.1397 17.3971C40.1508 17.3971 40.1792 17.3803 40.203 17.3597C40.2268 17.3392 40.258 17.3187 40.2723 17.3141C40.2867 17.3095 40.2984 17.2995 40.2984 17.2918C40.2984 17.2842 40.3056 17.2779 40.3144 17.2779C40.3232 17.2779 40.3505 17.2578 40.3751 17.2333C40.3997 17.2087 40.4246 17.1886 40.4306 17.1886C40.4366 17.1886 40.4652 17.1668 40.4942 17.1402C40.5233 17.1136 40.5765 17.0684 40.6125 17.0397C40.6977 16.9718 41.03 16.6378 41.0833 16.5665C41.106 16.5361 41.1464 16.4884 41.173 16.4605C41.1996 16.4326 41.2214 16.4046 41.2214 16.3983C41.2214 16.3919 41.2299 16.3779 41.2403 16.367C41.2777 16.3283 41.4149 16.1316 41.4149 16.1168C41.4149 16.1085 41.4201 16.1017 41.4264 16.1017C41.4327 16.1017 41.4511 16.0766 41.4673 16.0459C41.4835 16.0152 41.5045 15.9818 41.514 15.9717C41.5234 15.9617 41.5402 15.9332 41.5511 15.9085C41.5621 15.8837 41.5761 15.8635 41.5823 15.8635C41.5885 15.8635 41.5936 15.8501 41.5936 15.8337C41.5936 15.8173 41.5995 15.8039 41.6068 15.8039C41.6141 15.8039 41.6243 15.7872 41.6294 15.7667C41.6346 15.7462 41.6454 15.7295 41.6534 15.7295C41.6614 15.7295 41.668 15.7204 41.668 15.7094C41.668 15.6983 41.6847 15.6577 41.7052 15.6192C41.7257 15.5807 41.7424 15.5395 41.7424 15.5277C41.7424 15.5158 41.7488 15.5061 41.7566 15.5061C41.7645 15.5061 41.7752 15.4827 41.7806 15.454C41.786 15.4254 41.7964 15.4019 41.8036 15.4019C41.8109 15.4019 41.8169 15.3889 41.8169 15.373C41.8169 15.3571 41.823 15.3403 41.8306 15.3356C41.8382 15.3309 41.8491 15.3056 41.8548 15.2794C41.8606 15.2531 41.8712 15.2197 41.8783 15.2051C41.8854 15.1905 41.8975 15.166 41.9052 15.1506C41.9128 15.1353 41.9236 15.0983 41.9292 15.0686C41.9348 15.0388 41.9453 15.0108 41.9525 15.0063C41.9598 15.0018 41.9657 14.9784 41.9657 14.9544C41.9657 14.9303 41.9713 14.9106 41.9781 14.9106C41.9896 14.9106 42.015 14.8114 42.0354 14.6872C42.0402 14.6586 42.0486 14.6318 42.0543 14.6277C42.0651 14.6198 42.0962 14.4586 42.1087 14.3448C42.1128 14.3079 42.1219 14.2644 42.129 14.248C42.1955 14.0941 42.1956 12.7621 42.1292 12.6102C42.122 12.5938 42.1128 12.5503 42.1087 12.5134C42.0962 12.4002 42.0652 12.2384 42.0544 12.2305C42.0489 12.2264 42.0406 12.203 42.0361 12.1784C42.0244 12.1153 41.9952 12.0051 41.9807 11.97C41.9739 11.9536 41.9561 11.8984 41.941 11.8473C41.9259 11.7961 41.9086 11.7543 41.9025 11.7542C41.8963 11.7541 41.8913 11.7373 41.8913 11.7168C41.8913 11.6964 41.8853 11.6796 41.878 11.6796C41.8707 11.6796 41.8605 11.6627 41.8553 11.642C41.8501 11.6213 41.8293 11.5681 41.809 11.5238C41.7888 11.4795 41.7722 11.4362 41.7722 11.4275C41.7722 11.4187 41.7655 11.4116 41.7573 11.4116C41.7491 11.4116 41.7424 11.3988 41.7424 11.3831C41.7424 11.3674 41.7374 11.3523 41.7313 11.3496C41.7251 11.3468 41.7 11.3044 41.6754 11.2553C41.6509 11.2061 41.6224 11.1571 41.6122 11.1463C41.6019 11.1354 41.5936 11.117 41.5936 11.1053C41.5936 11.0936 41.5879 11.084 41.581 11.084C41.5741 11.084 41.5557 11.0591 41.5401 11.0286C41.5244 10.9981 41.4966 10.9563 41.4782 10.9357C41.4597 10.9151 41.4447 10.8898 41.4447 10.8795C41.4447 10.8692 41.4394 10.8607 41.433 10.8607C41.4266 10.8607 41.4085 10.8389 41.3929 10.8123C41.3772 10.7857 41.349 10.7517 41.3301 10.7368C41.3112 10.7219 41.2958 10.7031 41.2958 10.6952C41.2958 10.6872 41.2807 10.6656 41.2623 10.6471C41.2439 10.6286 41.2054 10.5849 41.1767 10.5499C41.1209 10.4818 40.88 10.2354 40.8692 10.2354C40.8657 10.2354 40.8476 10.2203 40.8291 10.2019C40.8107 10.1834 40.7664 10.1449 40.7308 10.1163C40.6952 10.0876 40.6431 10.0424 40.6149 10.0157C40.5868 9.98914 40.5593 9.96735 40.5539 9.96733C40.5485 9.9673 40.5206 9.94717 40.4919 9.92259C40.4633 9.89799 40.4281 9.87411 40.4138 9.86951C40.3994 9.86489 40.3877 9.85593 40.3877 9.84959C40.3877 9.84324 40.3643 9.82542 40.3356 9.80998C40.3069 9.79454 40.2835 9.77752 40.2835 9.77215C40.2835 9.76677 40.2718 9.75845 40.2574 9.75364C40.226 9.74307 40.1841 9.71612 40.1432 9.68016C40.1265 9.66553 40.0977 9.64972 40.0791 9.64505C40.0605 9.6404 40.0453 9.63167 40.0453 9.62568C40.0453 9.61971 40.0186 9.60201 39.9859 9.58636C39.9533 9.57071 39.9265 9.5539 39.9264 9.549C39.9263 9.54411 39.8977 9.52753 39.8629 9.51218C39.8281 9.49685 39.7963 9.48075 39.7922 9.47643C39.7691 9.45208 39.3453 9.23779 39.3202 9.23779C39.3096 9.23779 39.3009 9.23109 39.3009 9.2229C39.3009 9.21471 39.2888 9.20801 39.274 9.20801C39.2592 9.20801 39.2341 9.19817 39.2182 9.18616C39.2023 9.17412 39.1776 9.16407 39.1632 9.16382C39.1489 9.16355 39.1372 9.15664 39.1372 9.14846C39.1372 9.14027 39.1274 9.13357 39.1154 9.13357C39.0884 9.13357 38.9827 9.08559 38.9759 9.07029C38.9732 9.06415 38.9583 9.05912 38.9429 9.05912C38.9112 9.05912 38.8048 9.01289 38.7973 8.99584C38.7945 8.98971 38.7803 8.98468 38.7656 8.98468C38.7377 8.98468 38.6636 8.95747 38.5077 8.88997C38.4767 8.87654 38.4382 8.86556 38.4221 8.86556C38.406 8.86556 38.3928 8.85886 38.3928 8.85067C38.3928 8.84248 38.3807 8.83578 38.3659 8.83578C38.3511 8.83578 38.2962 8.81903 38.244 8.79856C38.1917 8.77809 38.1369 8.76134 38.122 8.76134C38.1072 8.76134 38.0951 8.75616 38.0951 8.74983C38.0951 8.73917 38.0093 8.71195 37.9127 8.69198C37.8902 8.68732 37.8718 8.67844 37.8718 8.67221C37.8718 8.666 37.8447 8.65659 37.8116 8.65129C37.7785 8.64599 37.74 8.63564 37.726 8.62829C37.712 8.62093 37.6604 8.60386 37.6113 8.59034C37.5621 8.57682 37.5065 8.55951 37.4877 8.55188C37.4689 8.54425 37.4405 8.538 37.4245 8.538C37.4085 8.538 37.3954 8.53193 37.3954 8.52451C37.3954 8.51708 37.3619 8.50641 37.321 8.50078C37.2801 8.49515 37.2428 8.48447 37.2382 8.47704C37.2336 8.46963 37.2106 8.46355 37.187 8.46355C37.1634 8.46355 37.1399 8.45685 37.1349 8.44867C37.1298 8.44048 37.1134 8.43378 37.0985 8.43378C37.0671 8.43378 36.9238 8.39276 36.8857 8.37285C36.8715 8.3654 36.8486 8.35933 36.8349 8.35933C36.8111 8.35933 36.6766 8.32318 36.6138 8.29991C36.568 8.2829 36.4407 8.25146 36.3868 8.24382C36.3602 8.24004 36.3384 8.23099 36.3384 8.2237C36.3384 8.21641 36.3249 8.21044 36.3084 8.21044C36.2779 8.21044 36.1171 8.17164 36.063 8.15122C36.0285 8.13818 35.9014 8.10553 35.8471 8.09578C35.8267 8.0921 35.7965 8.08382 35.7802 8.07737C35.7184 8.0531 35.6441 8.0326 35.5829 8.02301C35.5481 8.01755 35.5196 8.00796 35.5196 8.00172C35.5196 7.99547 35.4979 7.98683 35.4713 7.98253C35.3807 7.96786 35.274 7.93934 35.2599 7.92598C35.2521 7.91866 35.2236 7.91265 35.1966 7.91265C35.1696 7.91265 35.1475 7.90658 35.1475 7.89917C35.1475 7.89174 35.114 7.88106 35.073 7.87543C35.0321 7.8698 34.9986 7.85913 34.9986 7.8517C34.9986 7.84428 34.9789 7.83821 34.9548 7.83821C34.9307 7.83821 34.9074 7.83228 34.9029 7.82503C34.8984 7.8178 34.8647 7.80736 34.8279 7.80185C34.7912 7.79633 34.7572 7.7855 34.7524 7.77779C34.7477 7.77008 34.7278 7.76376 34.7083 7.76376C34.6888 7.76376 34.6692 7.75784 34.6647 7.75059C34.6602 7.74335 34.6265 7.73291 34.5897 7.7274C34.553 7.72188 34.519 7.71106 34.5142 7.70334C34.5095 7.69563 34.4896 7.68932 34.4701 7.68932C34.4506 7.68932 34.4309 7.6832 34.4262 7.67572C34.4216 7.66825 34.3911 7.6576 34.3584 7.65208C34.3257 7.64656 34.2989 7.63592 34.2989 7.62845C34.2989 7.62098 34.2835 7.61487 34.2647 7.61487C34.2458 7.61487 34.224 7.60954 34.2163 7.60303C34.2085 7.59653 34.1619 7.57836 34.1128 7.56267C34.0637 7.54696 34.0201 7.52984 34.016 7.5246C34.0119 7.51937 33.9919 7.51115 33.9714 7.50633C33.9013 7.48986 33.8225 7.4587 33.8225 7.44744C33.8225 7.44126 33.8132 7.4362 33.8019 7.4362C33.7905 7.4362 33.7621 7.4262 33.7386 7.41396C33.7152 7.40173 33.6843 7.39168 33.6699 7.39162C33.6556 7.39158 33.6439 7.38483 33.6439 7.37664C33.6439 7.36846 33.6355 7.36155 33.6253 7.36129C33.615 7.36104 33.5732 7.34435 33.5322 7.32421C33.4913 7.30406 33.45 7.28752 33.4404 7.28744C33.4309 7.28737 33.4208 7.28228 33.4181 7.27614C33.4109 7.25996 33.3177 7.21286 33.2928 7.21286C33.2812 7.21286 33.2717 7.20661 33.2717 7.19897C33.2717 7.19133 33.2566 7.18039 33.2382 7.17464C33.2198 7.16888 33.2013 7.16007 33.1973 7.15502C33.1906 7.14686 33.1481 7.12202 33.0558 7.07252C33.0395 7.06372 33.0227 7.05318 33.0186 7.04908C33.0079 7.03839 32.9555 7.00601 32.9293 6.99392C32.917 6.98825 32.8903 6.96819 32.8699 6.94934C32.8495 6.93051 32.8268 6.91508 32.8195 6.91508C32.8122 6.91508 32.7906 6.89833 32.7717 6.87786C32.7527 6.85738 32.7336 6.84063 32.7291 6.84063C32.7152 6.84063 32.6467 6.77804 32.5141 6.6441C32.3755 6.50405 32.3487 6.47438 32.3487 6.46095C32.3487 6.45614 32.3319 6.43415 32.3115 6.41208C32.291 6.39 32.2743 6.36348 32.2743 6.35316C32.2743 6.34284 32.2691 6.3344 32.2628 6.3344C32.2564 6.3344 32.2381 6.30928 32.222 6.27857C32.2059 6.24787 32.1891 6.21938 32.1847 6.21529C32.1803 6.21119 32.1636 6.17769 32.1477 6.14084C32.1318 6.10399 32.1152 6.07049 32.1109 6.0664C32.0967 6.05288 32.051 5.90668 32.051 5.87456C32.051 5.85723 32.0443 5.84306 32.0361 5.84306C32.0279 5.84306 32.0212 5.82798 32.0212 5.80956C32.0212 5.79113 32.0112 5.72914 31.9991 5.67183C31.9702 5.53521 31.9702 5.14702 31.9991 4.98693C32.0109 4.92142 32.0207 4.8494 32.0209 4.82687C32.021 4.80435 32.0279 4.78593 32.0361 4.78593C32.0443 4.78593 32.051 4.76702 32.051 4.74391C32.051 4.6903 32.0866 4.57571 32.1457 4.43925C32.1591 4.40826 32.17 4.37308 32.17 4.36108C32.17 4.34908 32.1767 4.33925 32.1849 4.33925C32.1931 4.33925 32.1998 4.32974 32.1998 4.31813C32.1998 4.29776 32.2433 4.20564 32.2601 4.19038C32.2647 4.18627 32.2799 4.15947 32.2941 4.13081C32.3222 4.07375 32.3518 4.02332 32.3639 4.01169C32.3682 4.0076 32.3844 3.98433 32.4 3.95997C32.4318 3.91001 32.4394 3.90034 32.4994 3.83316C32.5229 3.80679 32.5422 3.78067 32.5422 3.77515C32.5422 3.76242 32.7411 3.55747 32.8111 3.49802C32.8401 3.47345 32.8916 3.43097 32.9256 3.4036C32.9596 3.37625 33.0021 3.34107 33.0202 3.32543C33.0382 3.3098 33.0573 3.29701 33.0627 3.29701C33.0681 3.29701 33.0859 3.28528 33.1022 3.27096C33.1391 3.23857 33.175 3.21588 33.2419 3.1826C33.2706 3.16835 33.3029 3.14806 33.3137 3.13752C33.3245 3.12698 33.3429 3.11834 33.3546 3.11834C33.3663 3.11834 33.3759 3.11311 33.3759 3.10673C33.3759 3.10034 33.4094 3.08212 33.4503 3.06623C33.4913 3.05034 33.5248 3.03212 33.5248 3.02573C33.5248 3.01934 33.5315 3.01412 33.5397 3.01412C33.548 3.01412 33.5894 2.99737 33.6318 2.97689C33.6743 2.95642 33.7178 2.93967 33.7285 2.93967C33.7393 2.93967 33.7481 2.93372 33.7481 2.92644C33.7481 2.91917 33.7723 2.90866 33.802 2.90309C33.8317 2.89752 33.8668 2.8875 33.8802 2.88083C33.9508 2.84545 34.1226 2.79078 34.1632 2.79078C34.1805 2.79078 34.1947 2.78408 34.1947 2.77589C34.1947 2.7677 34.2165 2.7607 34.2431 2.76035C34.2697 2.75999 34.3182 2.75004 34.351 2.73824C34.3838 2.72644 34.4312 2.71668 34.4564 2.71656C34.4817 2.71644 34.5073 2.71132 34.5134 2.70517C34.5285 2.68998 34.7375 2.65922 34.9055 2.64747C34.9813 2.64217 35.0433 2.63205 35.0433 2.62497C35.0433 2.6179 35.2811 2.61211 35.5717 2.61211C35.9141 2.61211 36.1002 2.61735 36.1002 2.627C36.1002 2.63562 36.1488 2.64201 36.2156 2.64216C36.2791 2.6423 36.3946 2.65224 36.4724 2.66422C36.5502 2.67621 36.6419 2.68614 36.6762 2.68629C36.7105 2.68644 36.7428 2.69326 36.7478 2.70144C36.7529 2.70963 36.7831 2.71633 36.815 2.71633C36.8468 2.71633 36.9115 2.72638 36.9586 2.73867C37.0058 2.75095 37.0664 2.761 37.0933 2.761C37.1203 2.761 37.1423 2.76703 37.1423 2.77439C37.1423 2.78176 37.1708 2.79115 37.2056 2.79526C37.2651 2.80229 37.3709 2.82683 37.5071 2.86521C37.5398 2.87444 37.5968 2.88897 37.6336 2.89751C37.6704 2.90605 37.7069 2.91902 37.7147 2.92635C37.7225 2.93367 37.7439 2.93967 37.7622 2.93967C37.7806 2.93967 37.7995 2.94598 37.8043 2.9537C37.809 2.96141 37.8429 2.97223 37.8796 2.97773C37.9162 2.98322 37.9462 2.99366 37.9462 3.00093C37.9462 3.00818 37.963 3.01412 37.9834 3.01412C38.0039 3.01412 38.0207 3.01994 38.0207 3.02706C38.0207 3.03417 38.0433 3.04367 38.0709 3.04815C38.0986 3.05265 38.1501 3.07028 38.1854 3.08733C38.2207 3.10439 38.2548 3.11834 38.2612 3.11834C38.2736 3.11834 38.4159 3.17992 38.4871 3.21606C38.5103 3.22782 38.5387 3.23745 38.5504 3.23745C38.562 3.23745 38.5715 3.24268 38.5715 3.24907C38.5715 3.25546 38.605 3.27368 38.6459 3.28957C38.6869 3.30545 38.7204 3.32368 38.7204 3.33007C38.7204 3.33645 38.7299 3.34168 38.7415 3.34168C38.761 3.34168 38.8521 3.38416 38.8692 3.40124C38.8733 3.40533 38.9068 3.42361 38.9437 3.44188C39.0239 3.48167 39.1266 3.53951 39.1371 3.55084C39.1412 3.55532 39.1781 3.57819 39.2191 3.60166C39.26 3.62512 39.2969 3.64904 39.3009 3.65478C39.305 3.66053 39.3235 3.66993 39.3419 3.67569C39.3603 3.68143 39.3754 3.69238 39.3754 3.70002C39.3754 3.70765 39.3854 3.71391 39.3977 3.71391C39.41 3.71391 39.42 3.72016 39.42 3.7278C39.42 3.73544 39.4318 3.74544 39.4461 3.75006C39.4604 3.75466 39.4956 3.77854 39.5243 3.80314C39.5529 3.82772 39.5804 3.84785 39.5852 3.84788C39.5901 3.8479 39.6102 3.86171 39.6299 3.8786C39.6496 3.89547 39.6808 3.92227 39.6993 3.93815C39.7178 3.95403 39.7379 3.96713 39.744 3.96726C39.75 3.9674 39.7758 3.98581 39.8012 4.00821C39.8266 4.0306 39.8761 4.07237 39.9113 4.10103C40.0425 4.2078 40.1015 4.26231 40.3022 4.46209C40.4914 4.65042 40.5366 4.68757 40.5366 4.65474C40.5366 4.64809 40.5483 4.62959 40.5626 4.61363C40.577 4.59767 40.6131 4.55454 40.6429 4.51777C40.6727 4.481 40.7145 4.43082 40.7359 4.40625C40.7573 4.38169 40.7747 4.35749 40.7747 4.3525C40.7747 4.3475 40.7965 4.31982 40.8231 4.29097C40.877 4.23257 40.8935 4.2127 40.9685 4.11593C40.997 4.07909 41.0306 4.03889 41.0431 4.0266C41.0557 4.0143 41.0892 3.97411 41.1176 3.93729C41.146 3.90047 41.1793 3.85739 41.1916 3.84157C41.2039 3.82574 41.234 3.79051 41.2586 3.76327C41.3307 3.6833 41.3405 3.67104 41.3405 3.66046C41.3405 3.65495 41.3639 3.62831 41.3926 3.60127C41.4212 3.57425 41.4447 3.54636 41.4447 3.5393C41.4447 3.53225 41.4715 3.49773 41.5042 3.46261C41.537 3.42749 41.5638 3.39547 41.5638 3.39148C41.5638 3.38749 41.5722 3.37575 41.5824 3.3654C41.5926 3.35505 41.6244 3.31768 41.6531 3.28236C41.6818 3.24703 41.7235 3.19736 41.7459 3.17196C41.7683 3.14656 41.7867 3.1149 41.7868 3.10159C41.7871 3.07701 41.5449 2.82623 41.4292 2.73122C41.3942 2.70256 41.3404 2.65399 41.3096 2.62328C41.2787 2.59257 41.2488 2.56744 41.2431 2.56744C41.2374 2.56744 41.206 2.54064 41.1732 2.50789C41.1405 2.47513 41.109 2.44833 41.1033 2.44833C41.0976 2.44833 41.0599 2.4184 41.0195 2.38182C40.979 2.34525 40.9414 2.3151 40.9359 2.31482C40.9303 2.31455 40.9169 2.30596 40.9061 2.29571C40.8738 2.26518 40.7774 2.19521 40.7677 2.19521C40.7627 2.19521 40.7405 2.17846 40.7184 2.15799C40.6964 2.13752 40.6699 2.12077 40.6595 2.12077C40.6492 2.12077 40.6408 2.11512 40.6408 2.10821C40.6408 2.10132 40.6173 2.08305 40.5887 2.06761C40.56 2.05217 40.5366 2.03438 40.5366 2.02805C40.5366 2.02172 40.5265 2.01654 40.5142 2.01654C40.502 2.01654 40.4919 2.00998 40.4919 2.00194C40.4919 1.99391 40.4752 1.98313 40.4547 1.97799C40.4342 1.97286 40.4175 1.96267 40.4175 1.95538C40.4175 1.94807 40.408 1.9421 40.3964 1.9421C40.3848 1.9421 40.3731 1.93654 40.3703 1.92974C40.3635 1.91282 40.1595 1.79321 40.1375 1.79321C40.1277 1.79321 40.1197 1.78664 40.1197 1.7786C40.1197 1.77057 40.103 1.75979 40.0825 1.75466C40.062 1.74952 40.0452 1.741 40.0451 1.73576C40.045 1.73051 40.0015 1.7061 39.9483 1.68154C39.8952 1.65697 39.8518 1.63185 39.8518 1.6257C39.8518 1.61955 39.8416 1.61453 39.8291 1.61453C39.8167 1.61453 39.78 1.59778 39.7476 1.57731C39.7151 1.55684 39.6842 1.54009 39.6787 1.54009C39.6733 1.54009 39.6212 1.51747 39.563 1.48982C39.5049 1.46219 39.4305 1.42796 39.3977 1.41377C39.2919 1.36794 39.2496 1.34997 39.2116 1.33472C39.1912 1.3265 39.1499 1.30905 39.1201 1.29594C39.0902 1.28282 39.055 1.27208 39.0419 1.27208C39.0288 1.27208 39.0181 1.26538 39.0181 1.25719C39.0181 1.24901 39.0064 1.24208 38.992 1.24181C38.9619 1.24126 38.8137 1.19177 38.7995 1.17749C38.7942 1.17219 38.7742 1.16786 38.7551 1.16786C38.736 1.16786 38.7204 1.16202 38.7204 1.15488C38.7204 1.14773 38.6933 1.13756 38.6601 1.13226C38.627 1.12696 38.5885 1.11688 38.5745 1.10985C38.5387 1.09182 38.4548 1.06719 38.389 1.0554C38.3582 1.04988 38.3293 1.03943 38.3248 1.03218C38.3203 1.02491 38.2981 1.01897 38.2753 1.01897C38.2526 1.01897 38.229 1.01395 38.2229 1.0078C38.2115 0.996351 38.0719 0.963863 37.9723 0.949465C37.9416 0.945028 37.9165 0.935395 37.9165 0.92807C37.9165 0.920744 37.8944 0.914744 37.8675 0.914744C37.8405 0.914744 37.7799 0.904694 37.7328 0.89241C37.6856 0.880127 37.6239 0.870076 37.5956 0.870076C37.5674 0.870076 37.5443 0.863376 37.5443 0.855187C37.5443 0.846998 37.5158 0.840178 37.481 0.840044C37.4462 0.839896 37.3708 0.829845 37.3135 0.817711C37.2562 0.805561 37.1775 0.79563 37.1386 0.79563C37.0997 0.79563 37.0679 0.78893 37.0679 0.780741C37.0679 0.772552 37.0294 0.765793 36.9823 0.765733C36.9352 0.765674 36.8166 0.755623 36.7186 0.743399C36.6207 0.731175 36.4687 0.721185 36.3808 0.721185C36.2904 0.721185 36.2171 0.714723 36.2119 0.706295C36.206 0.696856 36.021 0.691406 35.7057 0.691406C35.3905 0.691406 35.2054 0.696856 35.1996 0.706295ZM0.296875 9.57259V18.2011H1.36874H2.44061V14.7691V11.3372H4.16112C5.54855 11.3372 5.88504 11.3409 5.89918 11.3564C5.92547 11.3852 5.95373 11.4307 5.96357 11.46C5.96838 11.4743 5.97823 11.4861 5.98547 11.4861C5.99269 11.4861 5.99862 11.4961 5.99862 11.5084C5.99862 11.5207 6.00518 11.5307 6.01322 11.5307C6.02124 11.5307 6.03202 11.5475 6.03716 11.5679C6.04229 11.5884 6.05103 11.6052 6.05657 11.6052C6.06211 11.6052 6.07929 11.627 6.09477 11.6536C6.11025 11.6802 6.12676 11.7053 6.13148 11.7094C6.14615 11.7222 6.17771 11.7752 6.18688 11.8025C6.19169 11.8168 6.20154 11.8285 6.20878 11.8285C6.216 11.8285 6.22192 11.8357 6.22192 11.8444C6.22192 11.8531 6.23867 11.8822 6.25914 11.9091C6.27961 11.9359 6.29636 11.9633 6.29636 11.97C6.29636 11.9766 6.3131 12.004 6.33357 12.0308C6.35404 12.0577 6.37079 12.0868 6.37079 12.0955C6.37079 12.1043 6.37676 12.1114 6.38407 12.1114C6.39137 12.1114 6.40155 12.1282 6.40668 12.1486C6.41182 12.1691 6.4226 12.1858 6.43062 12.1858C6.43866 12.1858 6.44523 12.1959 6.44523 12.2082C6.44523 12.2205 6.45041 12.2305 6.45673 12.2305C6.46306 12.2305 6.48085 12.254 6.49629 12.2826C6.51173 12.3113 6.52926 12.3347 6.53528 12.3347C6.54129 12.3347 6.55042 12.3515 6.55555 12.372C6.56069 12.3924 6.57147 12.4092 6.57949 12.4092C6.58753 12.4092 6.5941 12.4192 6.5941 12.4315C6.5941 12.4438 6.60002 12.4539 6.60724 12.4539C6.61448 12.4539 6.62442 12.4656 6.62935 12.4799C6.63426 12.4942 6.6553 12.5328 6.67608 12.5655C6.69686 12.5983 6.72149 12.6402 6.7308 12.6586C6.74012 12.677 6.75337 12.6921 6.76025 12.6921C6.76711 12.6921 6.77274 12.7021 6.77274 12.7144C6.77274 12.7267 6.77871 12.7367 6.78602 12.7367C6.79332 12.7367 6.8035 12.7535 6.80863 12.774C6.81377 12.7944 6.82455 12.8112 6.83257 12.8112C6.84061 12.8112 6.84718 12.8212 6.84718 12.8335C6.84718 12.8458 6.85374 12.8559 6.86178 12.8559C6.86981 12.8559 6.88058 12.8726 6.88572 12.8931C6.89086 12.9136 6.89959 12.9303 6.90513 12.9303C6.91067 12.9303 6.92785 12.9521 6.94333 12.9787C6.95881 13.0053 6.9754 13.0304 6.98018 13.0345C6.98497 13.0386 7.00208 13.0671 7.01818 13.0978C7.03429 13.1285 7.05265 13.1536 7.05897 13.1536C7.0653 13.1536 7.07048 13.1608 7.07048 13.1695C7.07048 13.1783 7.08723 13.2074 7.1077 13.2342C7.12817 13.2611 7.14492 13.2875 7.14492 13.2931C7.14492 13.3028 7.21859 13.4213 7.23411 13.4365C7.24905 13.4512 7.27993 13.504 7.28852 13.5296C7.29333 13.5439 7.30165 13.5557 7.30702 13.5557C7.3124 13.5557 7.32941 13.5791 7.34485 13.6078C7.36029 13.6364 7.37783 13.6599 7.38384 13.6599C7.38985 13.6599 7.39859 13.6751 7.40325 13.6937C7.40791 13.7123 7.42372 13.7411 7.43836 13.7578C7.46876 13.7923 7.49783 13.8358 7.51237 13.8683C7.51787 13.8806 7.52626 13.894 7.53104 13.8981C7.53581 13.9022 7.55305 13.9311 7.56935 13.9624C7.58563 13.9936 7.60987 14.031 7.62321 14.0454C7.63653 14.0598 7.65206 14.0862 7.6577 14.104C7.66334 14.1218 7.67421 14.1363 7.68185 14.1363C7.68949 14.1363 7.69574 14.1464 7.69574 14.1587C7.69574 14.1709 7.70199 14.181 7.70963 14.181C7.71727 14.181 7.72821 14.1961 7.73395 14.2145C7.73972 14.2329 7.7492 14.2513 7.75503 14.2554C7.76088 14.2595 7.79493 14.3098 7.83069 14.3671C7.86646 14.4244 7.90099 14.4736 7.90739 14.4763C7.9138 14.479 7.91904 14.4878 7.91904 14.4959C7.91904 14.504 7.93579 14.5325 7.95626 14.5593C7.97673 14.5862 7.99348 14.6127 7.99348 14.6182C7.99348 14.6279 8.06716 14.7465 8.08267 14.7617C8.09368 14.7725 8.12605 14.8251 8.13763 14.851C8.14312 14.8633 8.15212 14.8767 8.15761 14.8808C8.16312 14.8849 8.19679 14.9351 8.23246 14.9925C8.26815 15.0498 8.30097 15.1 8.30544 15.1041C8.3165 15.1143 8.34874 15.1662 8.36094 15.1935C8.36643 15.2057 8.37499 15.2191 8.37995 15.2232C8.3849 15.2273 8.41836 15.2809 8.45428 15.3424C8.4902 15.4038 8.52516 15.4563 8.53194 15.459C8.53875 15.4617 8.5443 15.4734 8.5443 15.485C8.5443 15.4966 8.55087 15.5061 8.5589 15.5061C8.56693 15.5061 8.57771 15.5229 8.58284 15.5434C8.58798 15.5638 8.59816 15.5806 8.60546 15.5806C8.61277 15.5806 8.61874 15.5906 8.61874 15.6029C8.61874 15.6152 8.62392 15.6252 8.63024 15.6252C8.63657 15.6252 8.65436 15.6487 8.6698 15.6774C8.68524 15.706 8.70277 15.7295 8.70879 15.7295C8.7148 15.7295 8.72393 15.7462 8.72906 15.7667C8.7342 15.7872 8.74498 15.8039 8.753 15.8039C8.76104 15.8039 8.76761 15.814 8.76761 15.8263C8.76761 15.8385 8.77279 15.8486 8.77911 15.8486C8.78544 15.8486 8.80369 15.8737 8.81968 15.9044C8.86055 15.9829 8.92184 16.0784 8.93509 16.0843C8.94123 16.0871 8.94625 16.0988 8.94625 16.1104C8.94625 16.122 8.95282 16.1315 8.96086 16.1315C8.96888 16.1315 8.97966 16.1482 8.98479 16.1687C8.98993 16.1892 9.00011 16.2059 9.00741 16.2059C9.01472 16.2059 9.02069 16.216 9.02069 16.2283C9.02069 16.2405 9.02725 16.2506 9.03529 16.2506C9.04331 16.2506 9.05409 16.2673 9.05923 16.2878C9.06436 16.3083 9.0731 16.325 9.07864 16.325C9.08418 16.325 9.10136 16.3468 9.11684 16.3734C9.13232 16.4 9.14883 16.4252 9.15355 16.4293C9.16822 16.442 9.19978 16.495 9.20895 16.5223C9.21376 16.5367 9.22361 16.5484 9.23085 16.5484C9.23807 16.5484 9.24399 16.5554 9.24399 16.5641C9.24399 16.5727 9.27749 16.6306 9.31843 16.6927C9.35937 16.7548 9.39286 16.8114 9.39286 16.8185C9.39286 16.8255 9.39943 16.8313 9.40747 16.8313C9.41549 16.8313 9.42627 16.848 9.43141 16.8685C9.43654 16.889 9.44672 16.9057 9.45402 16.9057C9.46133 16.9057 9.4673 16.9158 9.4673 16.928C9.4673 16.9403 9.47248 16.9504 9.47881 16.9504C9.48513 16.9504 9.50292 16.9738 9.51836 17.0025C9.5338 17.0312 9.55134 17.0546 9.55735 17.0546C9.56336 17.0546 9.57249 17.0714 9.57763 17.0918C9.58276 17.1123 9.59354 17.1291 9.60156 17.1291C9.6096 17.1291 9.61617 17.1391 9.61617 17.1514C9.61617 17.1637 9.62209 17.1737 9.62931 17.1737C9.63655 17.1737 9.64649 17.1855 9.65142 17.1998C9.65633 17.2141 9.67737 17.2526 9.69815 17.2854C9.71893 17.3181 9.74356 17.36 9.75288 17.3784C9.76219 17.3969 9.77544 17.4119 9.78232 17.4119C9.78919 17.4119 9.79481 17.422 9.79481 17.4343C9.79481 17.4466 9.80138 17.4566 9.80942 17.4566C9.81744 17.4566 9.82822 17.4734 9.83335 17.4938C9.83849 17.5143 9.84867 17.5311 9.85597 17.5311C9.86328 17.5311 9.86925 17.5411 9.86925 17.5534C9.86925 17.5657 9.87426 17.5758 9.88041 17.576C9.88656 17.5761 9.91503 17.6162 9.94368 17.6651C9.97234 17.714 10.0008 17.7541 10.007 17.7542C10.0131 17.7543 10.0181 17.7644 10.0181 17.7767C10.0181 17.789 10.0241 17.7991 10.0314 17.7991C10.0387 17.7991 10.0489 17.8158 10.054 17.8363C10.0591 17.8568 10.0699 17.8735 10.0779 17.8735C10.086 17.8735 10.0926 17.8799 10.0926 17.8877C10.0926 17.8998 10.1369 17.974 10.1779 18.0307C10.2082 18.0725 10.2282 18.1066 10.2362 18.1304C10.241 18.1447 10.2508 18.1564 10.2581 18.1564C10.2653 18.1564 10.2712 18.1665 10.2712 18.1787C10.2712 18.1984 10.4226 18.2011 11.5442 18.2011H12.8171L12.7984 18.1682C12.7881 18.15 12.7713 18.1261 12.7611 18.115C12.7508 18.1038 12.7424 18.0851 12.7424 18.0735C12.7424 18.0618 12.7368 18.0522 12.7299 18.0522C12.723 18.0522 12.7047 18.0287 12.6893 18.0001C12.6739 17.9714 12.6561 17.948 12.6497 17.948C12.6434 17.948 12.6382 17.9379 12.6382 17.9256C12.6382 17.9133 12.6317 17.9033 12.6236 17.9033C12.6156 17.9033 12.6048 17.8865 12.5997 17.8661C12.5946 17.8456 12.5854 17.8288 12.5794 17.8288C12.5734 17.8288 12.5559 17.8054 12.5404 17.7767C12.525 17.7481 12.5072 17.7246 12.5009 17.7246C12.4945 17.7246 12.4894 17.7146 12.4894 17.7023C12.4894 17.69 12.4828 17.68 12.4748 17.68C12.4667 17.68 12.456 17.6632 12.4508 17.6427C12.4457 17.6223 12.4367 17.6055 12.431 17.6055C12.4252 17.6055 12.4054 17.5788 12.3871 17.5462C12.3688 17.5136 12.3458 17.4781 12.336 17.4674C12.3095 17.4384 12.2812 17.393 12.2713 17.3636C12.2665 17.3492 12.2571 17.3375 12.2504 17.3375C12.2438 17.3375 12.2344 17.3253 12.2297 17.3103C12.2249 17.2954 12.2094 17.2699 12.1952 17.2537C12.1599 17.2135 12.1329 17.1714 12.1225 17.1402C12.1177 17.1259 12.1083 17.1142 12.1016 17.1142C12.0949 17.1142 12.0855 17.1019 12.0808 17.087C12.0761 17.0721 12.0605 17.0466 12.0463 17.0304C12.011 16.9902 11.9841 16.9481 11.9736 16.9169C11.9688 16.9025 11.9589 16.8908 11.9517 16.8908C11.9445 16.8908 11.9385 16.8831 11.9385 16.8736C11.9385 16.8642 11.9218 16.8345 11.9013 16.8076C11.8809 16.7808 11.8641 16.7522 11.8641 16.7442C11.8641 16.7361 11.8591 16.7273 11.8529 16.7246C11.8421 16.7197 11.7286 16.5549 11.7167 16.5267C11.7134 16.5189 11.7049 16.5055 11.6978 16.4969C11.6615 16.4535 11.5664 16.307 11.5664 16.2946C11.5664 16.2868 11.5612 16.2804 11.5549 16.2804C11.5485 16.2804 11.5301 16.2553 11.5139 16.2245C11.4977 16.1938 11.4729 16.1558 11.4586 16.14C11.4444 16.1242 11.4288 16.0991 11.4241 16.0842C11.4194 16.0693 11.4093 16.057 11.4016 16.057C11.394 16.057 11.3877 16.0511 11.3877 16.0438C11.3877 16.027 11.266 15.8428 11.2505 15.8362C11.2441 15.8334 11.2389 15.8258 11.2389 15.8193C11.2389 15.8033 11.1164 15.6192 11.1016 15.6128C11.0952 15.6101 11.09 15.6013 11.09 15.5932C11.09 15.5852 11.0732 15.5566 11.0528 15.5298C11.0323 15.5029 11.0156 15.4761 11.0156 15.4702C11.0156 15.4643 10.9988 15.4375 10.9783 15.4107C10.9579 15.3838 10.9411 15.3547 10.9411 15.3459C10.9411 15.3371 10.9359 15.3277 10.9295 15.325C10.914 15.3184 10.7922 15.1342 10.7922 15.1173C10.7922 15.1101 10.787 15.1041 10.7806 15.1041C10.7741 15.1041 10.7562 15.0823 10.7408 15.0557C10.7253 15.0291 10.7088 15.004 10.704 14.9999C10.6894 14.9871 10.6578 14.9341 10.6486 14.9068C10.6438 14.8925 10.634 14.8808 10.6267 14.8808C10.6195 14.8808 10.6136 14.8707 10.6136 14.8585C10.6136 14.8462 10.6084 14.8361 10.6021 14.8361C10.5958 14.8361 10.578 14.8127 10.5625 14.784C10.5471 14.7553 10.5296 14.7319 10.5235 14.7319C10.5175 14.7319 10.5084 14.7151 10.5033 14.6947C10.4981 14.6742 10.4874 14.6574 10.4793 14.6574C10.4713 14.6574 10.4647 14.6474 10.4647 14.6351C10.4647 14.6228 10.4597 14.6127 10.4536 14.6126C10.4474 14.6124 10.419 14.5723 10.3903 14.5234C10.3616 14.4746 10.3332 14.4345 10.327 14.4343C10.3209 14.4342 10.3159 14.4246 10.3159 14.413C10.3159 14.4014 10.3107 14.3897 10.3044 14.387C10.2981 14.3842 10.2699 14.3451 10.2416 14.3001C10.2134 14.2551 10.1861 14.2149 10.1809 14.2108C10.1757 14.2067 10.1688 14.1966 10.1655 14.1884C10.1622 14.1803 10.1277 14.1255 10.0888 14.0667C10.0499 14.008 10.0181 13.9527 10.0181 13.9439C10.0181 13.9351 10.0125 13.9279 10.0056 13.9279C9.99868 13.9279 9.98041 13.9044 9.96497 13.8758C9.94953 13.8471 9.93174 13.8237 9.92542 13.8237C9.91909 13.8237 9.91391 13.8136 9.91391 13.8013C9.91391 13.789 9.90734 13.779 9.8993 13.779C9.89128 13.779 9.8805 13.7622 9.87537 13.7418C9.87023 13.7213 9.86146 13.7045 9.85588 13.7045C9.8503 13.7045 9.82617 13.671 9.80226 13.6301C9.77835 13.5892 9.75422 13.5557 9.74863 13.5557C9.74305 13.5557 9.73428 13.5389 9.72915 13.5184C9.72401 13.498 9.71323 13.4812 9.70521 13.4812C9.69717 13.4812 9.6906 13.4712 9.6906 13.4589C9.6906 13.4466 9.68542 13.4365 9.6791 13.4365C9.67277 13.4365 9.65498 13.4131 9.63954 13.3844C9.6241 13.3558 9.60657 13.3323 9.60055 13.3323C9.59454 13.3323 9.58541 13.3156 9.58028 13.2951C9.57514 13.2746 9.56436 13.2579 9.55634 13.2579C9.5483 13.2579 9.54173 13.2478 9.54173 13.2355C9.54173 13.2233 9.53655 13.2132 9.53022 13.2132C9.5239 13.2132 9.50611 13.1897 9.49067 13.1611C9.47523 13.1324 9.4577 13.109 9.45168 13.109C9.44567 13.109 9.43654 13.0922 9.43141 13.0718C9.42627 13.0513 9.41549 13.0345 9.40747 13.0345C9.39943 13.0345 9.39286 13.0245 9.39286 13.0122C9.39286 12.9999 9.38768 12.9899 9.38135 12.9899C9.37503 12.9899 9.35724 12.9664 9.3418 12.9378C9.32636 12.9091 9.30882 12.8856 9.30281 12.8856C9.2968 12.8856 9.28767 12.8689 9.28253 12.8484C9.2774 12.8279 9.26662 12.8112 9.2586 12.8112C9.25056 12.8112 9.24399 12.8017 9.24399 12.7901C9.24399 12.7785 9.23872 12.7668 9.23229 12.764C9.22302 12.7601 9.07449 12.5369 8.99836 12.4124C8.99017 12.3991 8.9751 12.379 8.96486 12.3678C8.95463 12.3566 8.94625 12.3379 8.94625 12.3262C8.94625 12.3145 8.93955 12.305 8.93136 12.305C8.92318 12.305 8.91648 12.2949 8.91648 12.2826C8.91648 12.2703 8.9113 12.2603 8.90497 12.2603C8.89864 12.2603 8.88085 12.2368 8.86541 12.2082C8.84998 12.1795 8.83244 12.1561 8.82642 12.1561C8.82041 12.1561 8.81129 12.1393 8.80615 12.1188C8.80101 12.0984 8.79023 12.0816 8.78221 12.0816C8.77417 12.0816 8.76761 12.0716 8.76761 12.0593C8.76761 12.047 8.76243 12.037 8.7561 12.037C8.74977 12.037 8.73198 12.0135 8.71654 11.9848C8.70111 11.9562 8.68357 11.9327 8.67755 11.9327C8.67154 11.9327 8.66241 11.916 8.65728 11.8955C8.65214 11.875 8.64136 11.8583 8.63334 11.8583C8.6253 11.8583 8.61874 11.8482 8.61874 11.836C8.61874 11.8237 8.61355 11.8136 8.60723 11.8136C8.6009 11.8136 8.58311 11.7902 8.56767 11.7615C8.55224 11.7328 8.5347 11.7094 8.52868 11.7094C8.52267 11.7094 8.51354 11.6926 8.50841 11.6722C8.50327 11.6517 8.49249 11.6349 8.48447 11.6349C8.47643 11.6349 8.46987 11.6249 8.46987 11.6126C8.46987 11.6003 8.46361 11.5903 8.45598 11.5903C8.44834 11.5903 8.43822 11.5781 8.43348 11.5631C8.42875 11.5482 8.41322 11.5227 8.39899 11.5065C8.36371 11.4663 8.33675 11.4242 8.32627 11.393C8.32146 11.3787 8.31314 11.3669 8.30776 11.3669C8.30239 11.3669 8.28537 11.3435 8.26993 11.3148C8.25449 11.2862 8.23623 11.2627 8.22934 11.2627C8.22243 11.2627 8.21679 11.2535 8.21679 11.2422C8.21679 11.2309 8.20674 11.2134 8.19446 11.2032C8.18217 11.193 8.17212 11.1803 8.17212 11.1749C8.17212 11.1596 8.31717 11.1311 8.45158 11.1201C8.51932 11.1145 8.57833 11.1041 8.58272 11.097C8.58712 11.0899 8.6227 11.084 8.66179 11.084C8.70088 11.084 8.73786 11.079 8.74397 11.0729C8.75363 11.0631 8.81018 11.0511 9.0171 11.0148C9.04379 11.0101 9.06931 11.0004 9.0738 10.9931C9.07831 10.9858 9.09667 10.9799 9.11461 10.9799C9.14342 10.98 9.23842 10.9529 9.32587 10.9198C9.42724 10.8814 9.49387 10.8607 9.51617 10.8607C9.53024 10.8607 9.54173 10.8548 9.54173 10.8475C9.54173 10.8403 9.56015 10.8307 9.58267 10.8263C9.64798 10.8135 9.73526 10.78 9.73526 10.7677C9.73526 10.7615 9.7454 10.7565 9.7578 10.7565C9.77019 10.7565 9.79197 10.7501 9.80619 10.7424C9.86669 10.7093 10.0311 10.6374 10.0463 10.6374C10.0554 10.6374 10.0628 10.632 10.0628 10.6255C10.0628 10.619 10.0929 10.6013 10.1298 10.5861C10.1666 10.5709 10.1968 10.5544 10.1969 10.5495C10.197 10.5446 10.2255 10.5273 10.2602 10.5111C10.3373 10.475 10.5596 10.3372 10.5665 10.3213C10.5692 10.315 10.5809 10.3098 10.5925 10.3098C10.6041 10.3098 10.6136 10.3036 10.6136 10.2959C10.6136 10.2883 10.6253 10.2783 10.6397 10.2737C10.654 10.2691 10.6892 10.2452 10.7178 10.2206C10.7465 10.196 10.774 10.1759 10.7789 10.1758C10.7838 10.1758 10.8046 10.1607 10.8249 10.1423C10.8453 10.1239 10.8879 10.0887 10.9196 10.0641C11.0243 9.98301 11.0803 9.93188 11.2461 9.76595C11.409 9.60281 11.4516 9.55621 11.5515 9.43213C11.5801 9.39649 11.6219 9.34659 11.6443 9.32119C11.6667 9.29578 11.6851 9.26665 11.6852 9.2564C11.6854 9.24617 11.6911 9.23779 11.698 9.23779C11.7049 9.23779 11.7232 9.21434 11.7386 9.18568C11.7541 9.15702 11.7704 9.13357 11.775 9.13357C11.7797 9.13357 11.803 9.10007 11.8269 9.05912C11.8508 9.01818 11.8757 8.98468 11.8821 8.98468C11.8886 8.98468 11.8939 8.9751 11.8939 8.9634C11.8939 8.95171 11.9023 8.93328 11.9125 8.92245C11.9227 8.91164 11.9509 8.86425 11.9752 8.81717C11.9994 8.77009 12.0246 8.73156 12.031 8.73156C12.0375 8.73156 12.0428 8.7249 12.0428 8.71677C12.0428 8.69134 12.0939 8.58267 12.1058 8.58267C12.1121 8.58267 12.1172 8.57615 12.1172 8.56818C12.1172 8.56021 12.1347 8.515 12.156 8.46768C12.1991 8.37234 12.2256 8.3111 12.2481 8.25511C12.2563 8.23463 12.2738 8.19342 12.2869 8.16352C12.3 8.13363 12.3107 8.09844 12.3107 8.08535C12.3107 8.07225 12.3174 8.06155 12.3256 8.06155C12.3338 8.06155 12.3405 8.05072 12.3405 8.03749C12.3405 8.01134 12.3815 7.87639 12.4021 7.8347C12.4092 7.82048 12.4149 7.79525 12.4149 7.77865C12.4149 7.76205 12.4214 7.73683 12.4292 7.72261C12.4371 7.70839 12.4509 7.66326 12.46 7.62232C12.469 7.58137 12.4825 7.52107 12.4899 7.48831C12.5403 7.26554 12.5707 7.08431 12.5925 6.87786C12.6011 6.79597 12.6149 6.67502 12.6232 6.60908C12.6427 6.45402 12.6427 5.82766 12.6232 5.67261C12.6064 5.53896 12.58 5.29804 12.5684 5.17305C12.5643 5.12801 12.5556 5.08446 12.5491 5.07627C12.5426 5.06808 12.5325 5.01783 12.5266 4.9646C12.5207 4.91137 12.5107 4.86112 12.5044 4.85293C12.4981 4.84474 12.4893 4.81459 12.4849 4.78593C12.4805 4.75727 12.4658 4.69027 12.4522 4.63704C12.4385 4.58381 12.4239 4.51849 12.4195 4.49187C12.4152 4.46525 12.4065 4.44348 12.4001 4.44348C12.3937 4.44348 12.384 4.41348 12.3785 4.37682C12.3731 4.34016 12.3622 4.30627 12.3545 4.30149C12.3468 4.29673 12.3405 4.27648 12.3405 4.25648C12.3405 4.23649 12.3338 4.22014 12.3256 4.22014C12.3174 4.22014 12.3105 4.20506 12.3102 4.18664C12.3099 4.16822 12.3001 4.13639 12.2884 4.11592C12.2767 4.09544 12.2669 4.06361 12.2666 4.04519C12.2663 4.02677 12.2607 4.01169 12.2541 4.01169C12.2475 4.01169 12.2296 3.97652 12.2143 3.93352C12.1989 3.89052 12.1708 3.82588 12.1518 3.78986C12.1328 3.75384 12.1172 3.71852 12.1172 3.71139C12.1172 3.70426 12.1004 3.67189 12.08 3.63946C12.0595 3.60703 12.0428 3.57032 12.0428 3.55787C12.0428 3.54542 12.0376 3.53524 12.0312 3.53524C12.0248 3.53524 12.0064 3.50515 11.9903 3.46837C11.9741 3.43161 11.9559 3.40146 11.9497 3.40137C11.9436 3.40129 11.9385 3.39437 11.9385 3.38597C11.9385 3.36706 11.8173 3.17231 11.8013 3.1655C11.7949 3.16276 11.7897 3.15104 11.7897 3.13944C11.7897 3.12783 11.7845 3.11834 11.7782 3.11834C11.7718 3.11834 11.7541 3.09489 11.7386 3.06623C11.7232 3.03757 11.7049 3.01412 11.698 3.01412C11.6911 3.01412 11.6854 3.00575 11.6852 2.99551C11.6851 2.98528 11.6654 2.95462 11.6414 2.92739C11.6174 2.90017 11.5823 2.85771 11.5634 2.83305C11.5446 2.80839 11.5208 2.77921 11.5105 2.76822C11.5003 2.75723 11.4919 2.74333 11.4919 2.73731C11.4919 2.72214 10.9321 2.16549 10.9165 2.1652C10.9096 2.16506 10.8829 2.14664 10.8572 2.12425C10.7667 2.04528 10.7397 2.0237 10.6959 1.9954C10.6715 1.97968 10.6385 1.95463 10.6225 1.93973C10.6065 1.92484 10.5813 1.90877 10.5663 1.90404C10.5514 1.8993 10.5392 1.88918 10.5392 1.88154C10.5392 1.8739 10.5297 1.86765 10.5181 1.86765C10.5065 1.86765 10.4948 1.86263 10.492 1.85648C10.4834 1.83716 10.373 1.76959 10.1595 1.65311C10.1432 1.64418 10.1264 1.63341 10.1223 1.6292C10.1182 1.62499 10.0865 1.60824 10.0518 1.59198C10.0171 1.57572 9.98861 1.55741 9.98851 1.55126C9.98842 1.54511 9.98182 1.54009 9.97386 1.54009C9.95872 1.54009 9.81589 1.47808 9.74786 1.44195C9.72612 1.43042 9.69765 1.42098 9.68459 1.42098C9.67152 1.42098 9.66083 1.41428 9.66083 1.40609C9.66083 1.3979 9.651 1.3912 9.639 1.3912C9.61892 1.3912 9.54121 1.36145 9.47867 1.32982C9.46445 1.32263 9.44343 1.31675 9.43199 1.31675C9.42052 1.31675 9.39197 1.30675 9.36851 1.29451C9.34506 1.28228 9.31454 1.27223 9.3007 1.27217C9.28685 1.27213 9.27138 1.26538 9.26632 1.25719C9.26126 1.24901 9.24116 1.24231 9.22166 1.24231C9.20216 1.24231 9.18254 1.23638 9.17806 1.22913C9.17359 1.22189 9.13986 1.21145 9.1031 1.20595C9.06635 1.20042 9.03237 1.1896 9.02759 1.18189C9.02283 1.17417 8.99588 1.16786 8.9677 1.16786C8.93952 1.16786 8.91648 1.16193 8.91648 1.15468C8.91648 1.14745 8.87795 1.13674 8.83088 1.13092C8.78379 1.12508 8.73858 1.11506 8.73039 1.10863C8.7222 1.1022 8.69205 1.09304 8.6634 1.08826C8.63474 1.08348 8.551 1.06891 8.47731 1.05585C7.87939 0.949927 8.13717 0.956061 4.02236 0.949793L0.296875 0.94412V9.57259ZM15.7943 9.5728V18.2011H21.4439H27.0936V17.2643C27.0936 16.749 27.0895 16.3169 27.0845 16.3039C27.0763 16.2825 26.6591 16.2804 22.5068 16.2804H17.938V13.31V10.3396H22.419H26.9V9.37924V8.41889H22.419H17.938V5.64206V2.86523H22.5068C26.6591 2.86523 27.0763 2.86308 27.0845 2.84167C27.0895 2.82872 27.0936 2.39656 27.0936 1.88132V0.944522H21.4439H15.7943V9.5728ZM44.6454 9.5728V18.2011H50.295H55.9447V17.2643C55.9447 16.749 55.9406 16.3169 55.9356 16.3039C55.9274 16.2825 55.5102 16.2804 51.3579 16.2804H46.7891V13.31V10.3396H51.2701H55.7511V9.37924V8.41889H51.2701H46.7891V5.64206V2.86523H51.3579C55.5102 2.86523 55.9274 2.86308 55.9356 2.84167C55.9406 2.82872 55.9447 2.39656 55.9447 1.88132V0.944522H50.295H44.6454V9.5728ZM7.60642 2.90041C7.69239 2.91421 7.78953 2.92944 7.82228 2.93427C7.85503 2.93908 7.88853 2.94822 7.89671 2.95458C7.9049 2.96092 7.94676 2.97085 7.98974 2.97663C8.03272 2.9824 8.07164 2.9932 8.07622 3.00063C8.08081 3.00804 8.10425 3.01412 8.12834 3.01412C8.15243 3.01412 8.17212 3.0193 8.17212 3.02563C8.17212 3.03629 8.25793 3.0635 8.35449 3.08347C8.37702 3.08813 8.39543 3.09788 8.39543 3.10513C8.39543 3.1124 8.40716 3.11839 8.42148 3.11843C8.4358 3.11849 8.46672 3.12854 8.49017 3.14076C8.51363 3.153 8.5421 3.16301 8.55344 3.16301C8.56479 3.16301 8.57407 3.16971 8.57407 3.1779C8.57407 3.18609 8.58143 3.19279 8.59044 3.19279C8.6083 3.19279 8.71093 3.23832 8.72296 3.25157C8.73822 3.26839 8.83033 3.3119 8.85069 3.3119C8.8623 3.3119 8.87182 3.3186 8.87182 3.32679C8.87182 3.33498 8.88186 3.34168 8.89415 3.34168C8.90643 3.34168 8.91648 3.34825 8.91648 3.35629C8.91648 3.36431 8.93322 3.37509 8.95369 3.38023C8.97416 3.38536 8.99091 3.39403 8.99091 3.39946C8.99091 3.4049 9.01436 3.42198 9.04302 3.43742C9.07167 3.45286 9.09512 3.47113 9.09512 3.47802C9.09512 3.48493 9.1021 3.49057 9.11063 3.49057C9.12524 3.49057 9.14208 3.50221 9.19134 3.54641C9.20275 3.55665 9.21636 3.56502 9.22159 3.56502C9.22681 3.56502 9.25577 3.58841 9.28593 3.617C9.31609 3.6456 9.34567 3.66905 9.35166 3.66911C9.37078 3.66935 9.67442 3.98418 9.6837 4.01339C9.68859 4.02884 9.69864 4.04147 9.70603 4.04147C9.72234 4.04147 9.83947 4.19773 9.83947 4.2195C9.83947 4.22805 9.84473 4.23503 9.85115 4.23503C9.85758 4.23503 9.87549 4.2568 9.89097 4.28342C9.90645 4.31004 9.92296 4.33516 9.92768 4.33925C9.93782 4.34807 9.97352 4.41164 10.0296 4.52068C10.0519 4.5642 10.0752 4.60205 10.0814 4.60477C10.0875 4.60751 10.0926 4.61798 10.0926 4.62804C10.0926 4.63811 10.1093 4.68108 10.1298 4.72351C10.1502 4.76595 10.167 4.81075 10.167 4.82308C10.167 4.83541 10.1737 4.84549 10.1819 4.84549C10.1901 4.84549 10.1968 4.85722 10.1969 4.87154C10.1969 4.88586 10.207 4.91679 10.2192 4.94024C10.2314 4.96371 10.2414 4.99441 10.2414 5.00849C10.2414 5.02256 10.2464 5.0391 10.2526 5.04524C10.2664 5.05907 10.3007 5.18993 10.3115 5.26983C10.3159 5.30258 10.3239 5.33273 10.3294 5.33683C10.3425 5.34668 10.3757 5.53441 10.3939 5.70161C10.4132 5.87972 10.4126 6.41037 10.3928 6.58752C10.3733 6.7623 10.3415 6.93911 10.3268 6.95373C10.3208 6.95978 10.3159 6.98111 10.3159 7.00117C10.3159 7.03331 10.2886 7.13212 10.2553 7.22031C10.2492 7.23669 10.2318 7.29191 10.2167 7.34301C10.2016 7.39412 10.1843 7.43601 10.1782 7.43607C10.172 7.43614 10.167 7.45295 10.167 7.47342C10.167 7.4939 10.1608 7.51065 10.1533 7.51065C10.1457 7.51065 10.1349 7.53243 10.1291 7.55904C10.1233 7.58564 10.1141 7.61078 10.1085 7.61487C10.0946 7.62513 10.0479 7.72731 10.0479 7.7474C10.0479 7.75641 10.0412 7.76376 10.033 7.76376C10.0248 7.76376 10.0181 7.77381 10.0181 7.7861C10.0181 7.79838 10.0131 7.80849 10.007 7.80857C10.0008 7.80865 9.98257 7.83881 9.9664 7.87557C9.95023 7.91234 9.93259 7.94243 9.9272 7.94243C9.9218 7.94243 9.91345 7.95415 9.90864 7.96849C9.89744 8.00184 9.87056 8.04262 9.82831 8.09039C9.80989 8.1112 9.79481 8.13425 9.79481 8.14158C9.79481 8.14892 9.77806 8.17043 9.7576 8.18941C9.73713 8.20838 9.72038 8.22753 9.72038 8.23195C9.72038 8.24028 9.68578 8.28209 9.60872 8.36691C9.48713 8.50076 9.45144 8.538 9.44479 8.538C9.4408 8.538 9.41175 8.56313 9.38024 8.59383C9.34874 8.62455 9.30397 8.66307 9.28075 8.67945C9.25754 8.69583 9.21815 8.72769 9.19321 8.75025C9.16828 8.7728 9.136 8.79503 9.1215 8.79965C9.10699 8.80425 9.09512 8.81425 9.09512 8.82189C9.09512 8.82953 9.08564 8.83578 9.07403 8.83578C9.06243 8.83578 9.05071 8.8414 9.04797 8.84826C9.04525 8.85512 8.99612 8.88842 8.93881 8.92223C8.88149 8.95606 8.82751 8.98896 8.81883 8.99537C8.78334 9.02159 8.70426 9.05912 8.68452 9.05912C8.67291 9.05912 8.6634 9.06582 8.6634 9.07401C8.6634 9.0822 8.65688 9.0889 8.64891 9.0889C8.63377 9.0889 8.49095 9.15091 8.42291 9.18703C8.40118 9.19857 8.36935 9.20801 8.3522 9.20801C8.33503 9.20801 8.32099 9.21395 8.32099 9.22122C8.32099 9.22847 8.30258 9.23807 8.28006 9.24254C8.25755 9.24702 8.20227 9.26175 8.15724 9.27528C8.01158 9.31907 7.97255 9.32908 7.88927 9.34407C7.84424 9.35217 7.79399 9.36472 7.77762 9.37196C7.76124 9.37921 7.7177 9.38829 7.68085 9.39215C7.64401 9.39602 7.55022 9.40797 7.47243 9.41874C7.36038 9.43425 6.82383 9.43836 4.88953 9.43856L2.44805 9.4388L2.4443 6.1518L2.44055 2.86481L4.94533 2.87006C7.20581 2.87481 7.46535 2.87778 7.60642 2.90041Z" fill="#1B1D21"/>
</svg>
